<svg id="img-11" xmlns="http://www.w3.org/2000/svg" xmlns:xlink="http://www.w3.org/1999/xlink" width="353" height="223" viewBox="0 0 353 223">
  <defs>
    <clipPath id="clip-path">
      <rect id="Rectángulo_409697" data-name="Rectángulo 409697" width="238.7" height="213.4" transform="translate(56.5 4.8)" fill="none"/>
    </clipPath>
    <clipPath id="clip-path-3">
      <rect id="Rectángulo_409681" data-name="Rectángulo 409681" width="41.6" height="11.1" transform="translate(137.4 188.9)" fill="none"/>
    </clipPath>
    <clipPath id="clip-path-4">
      <rect id="Rectángulo_409682" data-name="Rectángulo 409682" width="25.2" height="23.1" transform="translate(189 51.9)" fill="none"/>
    </clipPath>
    <clipPath id="clip-path-5">
      <rect id="Rectángulo_409683" data-name="Rectángulo 409683" width="25.2" height="25.2" transform="translate(161.4 106.9)" fill="none"/>
    </clipPath>
    <clipPath id="clip-path-6">
      <rect id="Rectángulo_409684" data-name="Rectángulo 409684" width="5.8" height="5" transform="translate(174.6 122.1)" fill="none"/>
    </clipPath>
    <clipPath id="clip-path-7">
      <rect id="Rectángulo_409685" data-name="Rectángulo 409685" width="3.6" height="3.2" transform="translate(168.2 120.8)" fill="none"/>
    </clipPath>
    <clipPath id="clip-path-8">
      <rect id="Rectángulo_409686" data-name="Rectángulo 409686" width="3.6" height="3.2" transform="translate(176.6 115.1)" fill="none"/>
    </clipPath>
    <clipPath id="clip-path-9">
      <rect id="Rectángulo_409687" data-name="Rectángulo 409687" width="3.1" height="4.5" transform="translate(166.2 117.8)" fill="none"/>
    </clipPath>
    <clipPath id="clip-path-10">
      <rect id="Rectángulo_409688" data-name="Rectángulo 409688" width="5.1" height="1.9" transform="translate(173.9 113.3)" fill="none"/>
    </clipPath>
    <clipPath id="clip-path-11">
      <rect id="Rectángulo_409689" data-name="Rectángulo 409689" width="141.3" height="105.3" transform="translate(117.7 38.4)" fill="none"/>
    </clipPath>
    <clipPath id="clip-path-12">
      <rect id="Rectángulo_409690" data-name="Rectángulo 409690" width="73" height="4.1" transform="translate(149.7 38.4)" fill="none"/>
    </clipPath>
    <clipPath id="clip-path-13">
      <rect id="Rectángulo_409691" data-name="Rectángulo 409691" width="26.9" height="39.1" transform="translate(239.3 38.4)" fill="none"/>
    </clipPath>
    <clipPath id="clip-path-14">
      <rect id="Rectángulo_409692" data-name="Rectángulo 409692" width="147.6" height="93.9" transform="translate(112.5 44.1)" fill="none"/>
    </clipPath>
    <clipPath id="clip-path-15">
      <path id="Trazado_907014" data-name="Trazado 907014" d="M106.4,12.7l33,61.5.6,1.3,1.4-.7,27.8-14.1,19.7,38.7,1.4,2.7,2.9-1.4,23.4-11.9L268,175.6l-13.7-1,37.8,27.3-8.8-47.1-5.2,13.7L221.2,81.8l-2-3-3,1.7L192.9,93.7l-20.8-37L171,54.8l-1.9,1L141.2,71.5,108.9,11.3Z" fill="none"/>
    </clipPath>
    <clipPath id="clip-path-17">
      <rect id="Rectángulo_409694" data-name="Rectángulo 409694" width="46.6" height="12.1" transform="translate(56.5 192.4)" fill="none"/>
    </clipPath>
    <clipPath id="clip-path-18">
      <rect id="Rectángulo_409695" data-name="Rectángulo 409695" width="45.2" height="12.1" transform="translate(103.1 206.2)" fill="none"/>
    </clipPath>
  </defs>
  <rect id="Rectángulo_409117" width="353" height="223" fill="none"/>
  <g id="Grupo_1119004">
    <g id="Grupo_1119913" data-name="Grupo 1119913" clip-path="url(#clip-path)">
      <g id="Grupo_1119003">
        <g id="Grupo_1118992">
          <g id="Grupo_1119908" data-name="Grupo 1119908" clip-path="url(#clip-path)">
            <g id="Grupo_1118991">
              <g id="Grupo_1118957" opacity="0.2">
                <g id="Grupo_1118956">
                  <g id="Grupo_1119896" data-name="Grupo 1119896" clip-path="url(#clip-path-3)">
                    <g id="Grupo_1118955">
                      <path id="Trazado_875343" d="M179,194.4c0,3.1-9.3,5.6-20.8,5.6s-20.8-2.5-20.8-5.6,9.3-5.6,20.8-5.6,20.8,2.5,20.8,5.6" fill="#88a7eb"/>
                    </g>
                  </g>
                </g>
              </g>
              <path id="Trazado_875344" d="M140.5,190.7v3.8c0,2.5,8.1,4.6,18.1,4.6s18.1-2,18.1-4.6v-3.8H140.5Z" fill="#ecb64a"/>
              <path id="Trazado_875345" d="M176.7,190.7c0,2.5-8.1,4.6-18.1,4.6s-18.1-2-18.1-4.6,8.1-4.6,18.1-4.6,18.1,2,18.1,4.6" fill="#f0ca4d"/>
              <path id="Trazado_875346" d="M172.1,190.7c0,1.6-6,2.9-13.4,2.9s-13.4-1.3-13.4-2.9,6-2.9,13.4-2.9,13.4,1.3,13.4,2.9" fill="#ffe48a"/>
              <path id="Trazado_875347" d="M144.2,184.7v3.8c0,2.5,8.1,4.6,18.1,4.6s18.1-2,18.1-4.6v-3.8H144.2Z" fill="#ecb64a"/>
              <path id="Trazado_875348" d="M180.4,184.7c0,2.5-8.1,4.6-18.1,4.6s-18.1-2-18.1-4.6,8.1-4.6,18.1-4.6,18.1,2,18.1,4.6" fill="#f0ca4d"/>
              <path id="Trazado_875349" d="M175.7,184.7c0,1.6-6,2.9-13.4,2.9s-13.4-1.3-13.4-2.9,6-2.9,13.4-2.9,13.4,1.3,13.4,2.9" fill="#ffe48a"/>
              <path id="Trazado_875350" d="M140.6,178.2V182c0,2.5,8.1,4.6,18.1,4.6s18.1-2,18.1-4.6v-3.8H140.6Z" fill="#ecb64a"/>
              <path id="Trazado_875351" d="M176.7,178.2c0,2.5-8.1,4.6-18.1,4.6s-18.1-2-18.1-4.6,8.1-4.6,18.1-4.6,18.1,2,18.1,4.6" fill="#f0ca4d"/>
              <path id="Trazado_875352" d="M172.1,178.2c0,1.6-6,2.9-13.4,2.9s-13.4-1.3-13.4-2.9,6-2.9,13.4-2.9,13.4,1.3,13.4,2.9" fill="#ffe48a"/>
              <path id="Trazado_875353" d="M144.2,173.1v3.8c0,2.5,8.1,4.6,18.1,4.6s18.1-2,18.1-4.6v-3.8H144.2Z" fill="#ecb64a"/>
              <path id="Trazado_875354" d="M180.4,173.1c0,2.5-8.1,4.6-18.1,4.6s-18.1-2-18.1-4.6,8.1-4.6,18.1-4.6,18.1,2,18.1,4.6" fill="#f0ca4d"/>
              <path id="Trazado_875355" d="M175.7,173.1c0,1.6-6,2.9-13.4,2.9s-13.4-1.3-13.4-2.9,6-2.9,13.4-2.9,13.4,1.3,13.4,2.9" fill="#ffe48a"/>
              <path id="Trazado_875356" d="M142.9,167v3.8c0,2.5,8.1,4.6,18.1,4.6s18.1-2,18.1-4.6V167H142.9Z" fill="#ecb64a"/>
              <path id="Trazado_875357" d="M179.1,167c0,2.5-8.1,4.6-18.1,4.6s-18.1-2-18.1-4.6,8.1-4.6,18.1-4.6,18.1,2,18.1,4.6" fill="#f0ca4d"/>
              <path id="Trazado_875358" d="M174.4,167c0,1.6-6,2.9-13.4,2.9s-13.4-1.3-13.4-2.9,6-2.9,13.4-2.9,13.4,1.3,13.4,2.9" fill="#ffe48a"/>
              <path id="Trazado_875359" d="M147,162.2V166c0,2.5,8.1,4.6,18.1,4.6s18.1-2,18.1-4.6v-3.8H147Z" fill="#ecb64a"/>
              <path id="Trazado_875360" d="M183.2,162.2c0,2.5-8.1,4.6-18.1,4.6s-18.1-2-18.1-4.6,8.1-4.6,18.1-4.6,18.1,2,18.1,4.6" fill="#f0ca4d"/>
              <path id="Trazado_875361" d="M178.5,162.2c0,1.6-6,2.9-13.4,2.9s-13.4-1.3-13.4-2.9,6-2.9,13.4-2.9,13.4,1.3,13.4,2.9" fill="#ffe48a"/>
              <path id="Trazado_875362" d="M136.3,46.1a24.8,24.8,0,1,0-24.8,24.8,24.8,24.8,0,0,0,24.8-24.8h0M111.5,63.5a17.35,17.35,0,1,1,.1,0h0" fill="#cce4ff"/>
              <path id="Trazado_875363" d="M151.3,50V42.3h-6.6a27.528,27.528,0,0,0-1.2-5.7l6.1-2.6-3-7.1-6.1,2.6a37.127,37.127,0,0,0-2.8-4.1l4.7-4.7L137,15.3,132.3,20a31.733,31.733,0,0,0-4.9-3.2l2.4-6.1-7.2-2.9-2.4,6.1a38.558,38.558,0,0,0-4.9-.9V6.4h-7.7V13a27.527,27.527,0,0,0-5.7,1.2L99.3,8.1l-7.1,3,2.6,6.1A37.126,37.126,0,0,0,90.7,20L86,15.3l-5.4,5.4,4.7,4.7a31.733,31.733,0,0,0-3.2,4.9L76,27.9l-2.9,7.2,6.1,2.4a38.558,38.558,0,0,0-.9,4.9H71.7v7.7h6.6a27.527,27.527,0,0,0,1.2,5.7l-6.1,2.6,3,7.1,6.1-2.6A37.127,37.127,0,0,0,85.3,67l-4.7,4.7L86,77.1l4.7-4.7a31.733,31.733,0,0,0,4.9,3.2l-2.4,6.1,7.2,2.8,2.4-6.1a38.558,38.558,0,0,0,4.9.9v6.6h7.7V79.3a27.527,27.527,0,0,0,5.7-1.2l2.6,6.1,7.1-3-2.6-6.1a37.128,37.128,0,0,0,4.1-2.8L137,77l5.4-5.4-4.7-4.7a31.733,31.733,0,0,0,3.2-4.9l6.1,2.4,2.9-7.2-6.1-2.4a38.558,38.558,0,0,0,.9-4.9h6.6ZM111.5,67.7a21.6,21.6,0,1,1,21.6-21.6h0a21.638,21.638,0,0,1-21.6,21.6" fill="#bfc9ff"/>
              <path id="Trazado_875364" d="M190.9,32.5A15.853,15.853,0,1,0,173,46a15.874,15.874,0,0,0,17.9-13.5h0m-17.2,8.8a11.059,11.059,0,1,1,12.5-9.4h0a10.933,10.933,0,0,1-12.5,9.4" fill="#cce4ff"/>
              <path id="Trazado_875365" d="M200.1,36.3l.7-4.9-4.2-.6a22.954,22.954,0,0,0-.2-3.7l4.1-1.1-1.3-4.7-4.1,1.1a24.37,24.37,0,0,0-1.4-2.8l3.4-2.5-3-3.9-3.4,2.5a33.289,33.289,0,0,0-2.8-2.5L190,9.5l-4.3-2.4-2.1,3.7a17.6,17.6,0,0,0-3-1l.6-4.2-4.9-.7-.6,4.2a22.954,22.954,0,0,0-3.7.2l-1.1-4.1-4.7,1.3,1.1,4.1a24.371,24.371,0,0,0-2.8,1.4L162,8.6l-3.9,3,2.5,3.4a33.292,33.292,0,0,0-2.5,2.8l-3.7-2.1L152,20l3.7,2.1a17.6,17.6,0,0,0-1,3l-4.2-.6-.7,4.9,4.2.6a22.954,22.954,0,0,0,.2,3.7l-4.1,1.1,1.3,4.7,4.1-1.1a24.369,24.369,0,0,0,1.4,2.8l-3.4,2.5,3,3.9,3.4-2.5a33.289,33.289,0,0,0,2.8,2.5l-2.1,3.6,4.3,2.4,2.1-3.7a17.6,17.6,0,0,0,3,1l-.6,4.2,4.9.7.6-4.2a22.954,22.954,0,0,0,3.7-.2l1.1,4.1,4.7-1.3-1.1-4.1a24.372,24.372,0,0,0,2.8-1.4l2.5,3.4,3.9-3L190,45.7a33.292,33.292,0,0,0,2.5-2.8l3.7,2.1,2.4-4.3-3.7-2.1a17.6,17.6,0,0,0,1-3l4.2.6ZM173.3,44a13.831,13.831,0,1,1,15.6-11.8h0A13.925,13.925,0,0,1,173.3,44" fill="#bfc9ff"/>
              <path id="Trazado_875366" d="M121.4,191.8l39.7-76.2h-9.8l-39.7,76.2h9.8Z" fill="#207fa0"/>
              <path id="Trazado_875367" d="M261,191.8l-39.7-76.2h-9.8l39.7,76.2Z" fill="#207fa0"/>
              <rect id="Rectángulo_409156" width="159.9" height="105.3" transform="translate(106.4 38.4)" fill="#e6eaed"/>
              <g id="Grupo_1118960" opacity="0.4">
                <g id="Grupo_1118959">
                  <g id="Grupo_1119897" data-name="Grupo 1119897" clip-path="url(#clip-path-4)">
                    <g id="Grupo_1118958">
                      <path id="Trazado_875368" d="M201.3,64.9l12.9,9.7L202.4,63.8l11-9.7-2-2.2L201.3,62.8l-10.2-9.4-2,2.3,11.1,8.4L190,75.1,201.4,65Z" fill="#a2c3fc"/>
                    </g>
                  </g>
                </g>
              </g>
              <g id="Grupo_1118963" opacity="0.4">
                <g id="Grupo_1118962">
                  <g id="Grupo_1119898" data-name="Grupo 1119898" clip-path="url(#clip-path-5)">
                    <g id="Grupo_1118961">
                      <path id="Trazado_875369" d="M184.1,112.5a12.3,12.3,0,1,1-17.1-3.2,12.335,12.335,0,0,1,17.1,3.2h0Z" fill="none" stroke="#a2c3fc" stroke-miterlimit="10" stroke-width="0.9"/>
                    </g>
                  </g>
                </g>
              </g>
              <g id="Grupo_1118966" opacity="0.4">
                <g id="Grupo_1118965">
                  <g id="Grupo_1119899" data-name="Grupo 1119899" clip-path="url(#clip-path-6)">
                    <g id="Grupo_1118964">
                      <path id="Trazado_875370" d="M177.4,124.6c1.4-1,2.9-.2,3-1s-2-2.4-4.3-.8-1.6,4.1-.8,4.3.6-1.5,2-2.4" fill="#a2c3fc"/>
                    </g>
                  </g>
                </g>
              </g>
              <g id="Grupo_1118969" opacity="0.4">
                <g id="Grupo_1118968">
                  <g id="Grupo_1119900" data-name="Grupo 1119900" clip-path="url(#clip-path-7)">
                    <g id="Grupo_1118967">
                      <path id="Trazado_875371" d="M171.7,122.2c-.2.1-.4,0-.5,0h0a1.29,1.29,0,1,0-2.1,1.5c.1.2,0,.4,0,.5s-.4,0-.5,0a1.942,1.942,0,0,1,3.2-2.2h0c.1.2,0,.4,0,.5h0" fill="#a2c3fc"/>
                    </g>
                  </g>
                </g>
              </g>
              <g id="Grupo_1118972" opacity="0.4">
                <g id="Grupo_1118971">
                  <g id="Grupo_1119901" data-name="Grupo 1119901" clip-path="url(#clip-path-8)">
                    <g id="Grupo_1118970">
                      <path id="Trazado_875372" d="M180.1,116.5c-.2.1-.4,0-.5,0h0a1.29,1.29,0,1,0-2.1,1.5c.1.2,0,.4,0,.5s-.4,0-.5,0h0a1.942,1.942,0,0,1,3.2-2.2h0c.1.2,0,.4,0,.5h0" fill="#a2c3fc"/>
                    </g>
                  </g>
                </g>
              </g>
              <g id="Grupo_1118975" opacity="0.4">
                <g id="Grupo_1118974">
                  <g id="Grupo_1119902" data-name="Grupo 1119902" clip-path="url(#clip-path-9)">
                    <g id="Grupo_1118973">
                      <path id="Trazado_875373" d="M167.4,121.9a2.01,2.01,0,0,1-.8.4c-.2,0-.4,0-.4-.2s0-.4.2-.4h0a3.735,3.735,0,0,0,2.2-3.5c0-.2.2-.3.4-.3s.3.2.3.4a4.416,4.416,0,0,1-1.9,3.7" fill="#a2c3fc"/>
                    </g>
                  </g>
                </g>
              </g>
              <g id="Grupo_1118978" opacity="0.4">
                <g id="Grupo_1118977">
                  <g id="Grupo_1119903" data-name="Grupo 1119903" clip-path="url(#clip-path-10)">
                    <g id="Grupo_1118976">
                      <path id="Trazado_875374" d="M178.3,114.5a4.464,4.464,0,0,1-4.2.4.271.271,0,0,1-.2-.4c.1-.1.3-.3.4-.2a3.649,3.649,0,0,0,4-.7c.1-.2.3-.2.5,0,.2.1.2.3,0,.5h0l-.6.6" fill="#a2c3fc"/>
                    </g>
                  </g>
                </g>
              </g>
              <g id="Grupo_1118981" opacity="0.2">
                <g id="Grupo_1118980">
                  <g id="Grupo_1119904" data-name="Grupo 1119904" clip-path="url(#clip-path-11)">
                    <g id="Grupo_1118979">
                      <path id="Trazado_875375" d="M220.5,85l-2-3-3,1.7L192.2,96.8,171.4,59.9,170.3,58l-1.9,1L140.5,74.7,121,38.4h-3.3l20.9,39,.7,1.3,1.3-.7,27.9-14.2,19.7,38.7,1.4,2.7,2.9-1.5,23.4-11.9,30.7,51.7h12.5L220.5,84.8Z" fill="#88a7eb"/>
                    </g>
                  </g>
                </g>
              </g>
              <g id="Grupo_1118984" opacity="0.2">
                <g id="Grupo_1118983">
                  <g id="Grupo_1119905" data-name="Grupo 1119905" clip-path="url(#clip-path-12)">
                    <g id="Grupo_1118982">
                      <rect id="Rectángulo_409165" width="73" height="4.1" transform="translate(149.7 38.4)" fill="#88a7eb"/>
                    </g>
                  </g>
                </g>
              </g>
              <g id="Grupo_1118987" opacity="0.2">
                <g id="Grupo_1118986">
                  <g id="Grupo_1119906" data-name="Grupo 1119906" clip-path="url(#clip-path-13)">
                    <g id="Grupo_1118985">
                      <path id="Trazado_875376" d="M239.3,48.4a29.206,29.206,0,0,0,26.9,29.1V38.4H241a28.518,28.518,0,0,0-1.8,10" fill="#88a7eb"/>
                    </g>
                  </g>
                </g>
              </g>
              <g id="Grupo_1118990" opacity="0.4">
                <g id="Grupo_1118989">
                  <g id="Grupo_1119907" data-name="Grupo 1119907" clip-path="url(#clip-path-14)">
                    <g id="Grupo_1118988">
                      <path id="Trazado_875377" d="M260.1,44.1H112.5V138H260.1Zm-.5,9.2H251V44.6h8.6Zm-95.3,34h8.1v7.8h-8.1Zm-.5,7.8h-8.1V87.3h8.1Zm9.2-7.8h8.1v7.8H173Zm8.7,0h8.1v7.8h-8.1Zm8.6,0h8.1v7.8h-8.1Zm8.7,0h8.1v7.8H199Zm8.7,0h8.1v7.8h-8.1Zm8.6,0h8.1v7.8h-8.1Zm0-8.4h8.1v7.8h-8.1Zm-.5,7.9h-8.1V79h8.1Zm-8.7,0H199V79h8.1Zm-8.6,0h-8.1V79h8.1Zm-8.7,0h-8.1V79h8.1Zm-8.7,0H173V79h8.1Zm-8.6,0h-8.1V79h8.1Zm-8.7,0h-8.1V79h8.1Zm-8.7,0H147V79h8.1Zm0,8.4H147V87.4h8.1Zm0,8.3H147V95.7h8.1Zm.6-7.8h8.1v7.8h-8.1Zm8.6,0h8.1v7.8h-8.1Zm8.7,0h8.1v7.8H173Zm8.7,0h8.1v7.8h-8.1Zm8.6,0h8.1v7.8h-8.1Zm8.7,0h8.1v7.8H199Zm8.7,0h8.1v7.8h-8.1Zm8.6,0h8.1v7.8h-8.1Zm8.7,0h8.1v7.8H225Zm0-8.4h8.1v7.8H225Zm0-8.4h8.1v7.8H225Zm0-8.3h8.1v7.8H225Zm-.5,7.8h-8.1V70.6h8.1Zm-8.7,0h-8.1V70.6h8.1Zm-8.7,0H199V70.6h8.1Zm-8.6,0h-8.1V70.6h8.1Zm-8.7,0h-8.1V70.6h8.1Zm-8.7,0H173V70.6h8.1Zm-8.6,0h-8.1V70.6h8.1Zm-8.7,0h-8.1V70.6h8.1Zm-8.7,0H147V70.6h8.1Zm-8.6,0h-8.1V70.6h8.1Zm0,8.4h-8.1V79h8.1Zm0,8.3h-8.1V87.3h8.1Zm0,8.4h-8.1V95.7h8.1Zm0,8.4h-8.1v-7.8h8.1Zm.5-7.8h8.1v7.8H147Zm8.7,0h8.1v7.8h-8.1Zm8.6,0h8.1v7.8h-8.1Zm8.7,0h8.1v7.8H173Zm8.7,0h8.1v7.8h-8.1Zm8.6,0h8.1v7.8h-8.1Zm8.7,0h8.1v7.8H199Zm8.7,0h8.1v7.8h-8.1Zm8.6,0h8.1v7.8h-8.1Zm8.7,0h8.1v7.8H225Zm8.7,0h8.1v7.8h-8.1Zm0-8.4h8.1v7.8h-8.1Zm0-8.4h8.1v7.8h-8.1Zm0-8.4h8.1v7.8h-8.1Zm0-8.3h8.1v7.8h-8.1Zm0-8.4h8.1V70h-8.1Zm-.6,7.8H225V62.2h8.1Zm-8.6,0h-8.1V62.2h8.1Zm-8.7,0h-8.1V62.2h8.1Zm-8.7,0H199V62.2h8.1Zm-8.6,0h-8.1V62.2h8.1Zm-8.7,0h-8.1V62.2h8.1Zm-8.7,0H173V62.2h8.1Zm-8.6,0h-8.1V62.2h8.1Zm-8.7,0h-8.1V62.2h8.1Zm-8.7,0H147V62.2h8.1Zm-8.6,0h-8.1V62.2h8.1Zm-8.7,0h-8.1V62.2h8.1Zm0,8.4h-8.1V70.6h8.1Zm0,8.4h-8.1V79h8.1Zm0,8.3h-8.1V87.3h8.1Zm0,8.4h-8.1V95.7h8.1Zm0,8.4h-8.1v-7.8h8.1Zm0,8.4h-8.1v-7.8h8.1Zm.5-7.9h8.1v7.8h-8.1Zm8.7,0h8.1v7.8H147Zm8.7,0h8.1v7.8h-8.1Zm8.6,0h8.1v7.8h-8.1Zm8.7,0h8.1v7.8H173Zm8.7,0h8.1v7.8h-8.1Zm8.6,0h8.1v7.8h-8.1Zm8.7,0h8.1v7.8H199Zm8.7,0h8.1v7.8h-8.1Zm8.6,0h8.1v7.8h-8.1Zm8.7,0h8.1v7.8H225Zm8.7,0h8.1v7.8h-8.1Zm8.6,0h8.1v7.8h-8.1Zm0-8.3h8.1v7.8h-8.1Zm0-8.4h8.1v7.8h-8.1Zm0-8.4h8.1v7.8h-8.1Zm0-8.4h8.1v7.8h-8.1Zm0-8.3h8.1v7.8h-8.1Zm0-8.4h8.1V70h-8.1Zm0-8.4h8.1v7.8h-8.1Zm-.5,7.9h-8.1V53.9h8.1Zm-8.7,0H225V53.9h8.1Zm-8.6,0h-8.1V53.9h8.1Zm-8.7,0h-8.1V53.9h8.1Zm-8.7,0H199V53.9h8.1Zm-8.6,0h-8.1V53.9h8.1Zm-8.7,0h-8.1V53.9h8.1Zm-8.7,0H173V53.9h8.1Zm-8.6,0h-8.1V53.9h8.1Zm-8.7,0h-8.1V53.9h8.1Zm-8.7,0H147V53.9h8.1Zm-8.6,0h-8.1V53.9h8.1Zm-8.7,0h-8.1V53.9h8.1Zm-8.7,0H121V53.9h8.1Zm0,8.3H121V62.2h8.1Zm0,8.4H121V70.6h8.1Zm0,8.4H121V79h8.1Zm0,8.3H121V87.3h8.1Zm0,8.4H121V95.7h8.1Zm0,8.4H121v-7.8h8.1Zm0,8.4H121v-7.8h8.1Zm0,8.3H121v-7.8h8.1Zm.6-7.8h8.1v7.8h-8.1Zm8.6,0h8.1v7.8h-8.1Zm8.7,0h8.1v7.8H147Zm8.7,0h8.1v7.8h-8.1Zm8.6,0h8.1v7.8h-8.1Zm8.7,0h8.1v7.8H173Zm8.7,0h8.1v7.8h-8.1Zm8.6,0h8.1v7.8h-8.1Zm8.7,0h8.1v7.8H199Zm8.7,0h8.1v7.8h-8.1Zm8.6,0h8.1v7.8h-8.1Zm8.7,0h8.1v7.8H225Zm8.7,0h8.1v7.8h-8.1Zm8.6,0h8.1v7.8h-8.1Zm8.7,0h8.6v7.8H251Zm0-8.4h8.6v7.8H251Zm0-8.3h8.6v7.8H251Zm0-8.4h8.6v7.8H251Zm0-8.4h8.6v7.8H251Zm0-8.4h8.6v7.8H251Zm0-8.3h8.6v7.8H251Zm0-8.4h8.6V70H251Zm0-8.4h8.6v7.8H251Zm-.5-.5h-8.1V44.6h8.1Zm-8.7,0h-8.1V44.6h8.1Zm-8.7,0H225V44.6h8.1Zm-8.6,0h-8.1V44.6h8.1Zm-8.7,0h-8.1V44.6h8.1Zm-8.7,0H199V44.6h8.1Zm-8.6,0h-8.1V44.6h8.1Zm-8.7,0h-8.1V44.6h8.1Zm-8.7,0H173V44.6h8.1Zm-8.6,0h-8.1V44.6h8.1Zm-8.7,0h-8.1V44.6h8.1Zm-8.7,0H147V44.6h8.1Zm-8.6,0h-8.1V44.6h8.1Zm-8.7,0h-8.1V44.6h8.1Zm-8.7,0H121V44.6h8.1ZM113,44.6h7.4v8.7H113Zm0,9.2h7.4v7.8H113Zm0,8.4h7.4V70H113Zm0,8.4h7.4v7.8H113Zm0,8.3h7.4v7.8H113Zm0,8.4h7.4v7.8H113Zm0,8.4h7.4v7.8H113Zm0,8.4h7.4v7.8H113Zm0,8.3h7.4v7.8H113Zm0,8.4h7.4v7.8H113Zm0,8.4h7.4v8.3H113Zm8,0h8.1v8.3H121v-8.3Zm8.7,0h8.1v8.3h-8.1Zm8.6,0h8.1v8.3h-8.1Zm8.7,0h8.1v8.3H147Zm8.7,0h8.1v8.3h-8.1Zm8.6,0h8.1v8.3h-8.1Zm8.7,0h8.1v8.3H173Zm8.7,0h8.1v8.3h-8.1Zm8.6,0h8.1v8.3h-8.1Zm8.7,0h8.1v8.3H199Zm8.7,0h8.1v8.3h-8.1Zm8.6,0h8.1v8.3h-8.1Zm8.7,0h8.1v8.3H225Zm8.7,0h8.1v8.3h-8.1Zm8.6,0h8.1v8.3h-8.1Zm8.7,0h8.6v8.3H251Z" fill="#a2c3fc"/>
                    </g>
                  </g>
                </g>
              </g>
            </g>
          </g>
        </g>
        <g id="Grupo_1118994">
          <g id="Grupo_1119909" data-name="Grupo 1119909" clip-path="url(#clip-path-15)">
            <g id="Grupo_1118993">
              <rect id="Rectángulo_409170" width="265.9" height="265.7" transform="matrix(0.688, -0.725, 0.725, 0.688, 11.192, 111.577)" fill="#4c5066"/>
            </g>
          </g>
        </g>
        <g id="Grupo_1119002">
          <g id="Grupo_1119912" data-name="Grupo 1119912" clip-path="url(#clip-path)">
            <g id="Grupo_1119001">
              <rect id="Rectángulo_409171" width="69.9" height="6.3" transform="translate(151.4 34.9)" fill="#207fa0"/>
              <rect id="Rectángulo_409172" width="69.9" height="6.3" transform="translate(151.4 140.5)" fill="#207fa0"/>
              <path id="Trazado_875379" d="M291.9,48.4A23.4,23.4,0,1,1,268.5,25h0a23.43,23.43,0,0,1,23.4,23.4" fill="#88a7eb"/>
              <path id="Trazado_875380" d="M269.5,46.2h25.8a27.014,27.014,0,0,0-29.1-24.8,27.721,27.721,0,0,0-10.1,2.8l13.4,22Z" fill="#bfc9ff"/>
              <path id="Trazado_875381" d="M266.1,49,252.3,26.5A27.087,27.087,0,0,0,266,75.4V49Z" fill="#ff4263"/>
              <path id="Trazado_875382" d="M270.5,50.6V75.4a27.17,27.17,0,0,0,24.8-24.8H270.5Z" fill="#d4e157"/>
              <g id="Grupo_1118997" opacity="0.2">
                <g id="Grupo_1118996">
                  <g id="Grupo_1119910" data-name="Grupo 1119910" clip-path="url(#clip-path-17)">
                    <g id="Grupo_1118995">
                      <path id="Trazado_875383" d="M103.1,198.5c0,3.3-10.4,6-23.3,6s-23.3-2.7-23.3-6,10.4-6,23.3-6,23.3,2.7,23.3,6" fill="#88a7eb"/>
                    </g>
                  </g>
                </g>
              </g>
              <path id="Trazado_875384" d="M61.3,194.7v4.2c0,2.7,8.8,5,19.7,5s19.7-2.2,19.7-5v-4.2H61.4Z" fill="#ecb64a"/>
              <path id="Trazado_875385" d="M100.6,194.7c0,2.7-8.8,5-19.7,5s-19.7-2.2-19.7-5,8.8-5,19.7-5,19.7,2.2,19.7,5" fill="#f0ca4d"/>
              <path id="Trazado_875386" d="M95.6,194.6c0,1.7-6.5,3.1-14.6,3.1s-14.6-1.4-14.6-3.1,6.5-3.1,14.6-3.1,14.6,1.4,14.6,3.1" fill="#ffe48a"/>
              <path id="Trazado_875387" d="M76,193.1s-.2-.1-.2-.2a1.007,1.007,0,0,1-.1-.3c0-.2.1-.3.3-.4.2,0,.5-.1.8-.1h9.1s.2.1.2.2a1.007,1.007,0,0,1,.1.3c0,.2-.1.3-.3.4-.2,0-.5.1-.8.1Z" fill="#e17844"/>
              <path id="Trazado_875388" d="M65.3,188.1v4.2c0,2.7,8.8,5,19.7,5s19.7-2.2,19.7-5v-4.2H65.4Z" fill="#ecb64a"/>
              <path id="Trazado_875389" d="M104.6,188.1c0,2.7-8.8,5-19.7,5s-19.7-2.2-19.7-5,8.8-5,19.7-5,19.7,2.2,19.7,5" fill="#f0ca4d"/>
              <path id="Trazado_875390" d="M99.5,188.1c0,1.7-6.5,3.1-14.6,3.1s-14.6-1.4-14.6-3.1,6.5-3.1,14.6-3.1,14.6,1.4,14.6,3.1" fill="#ffe48a"/>
              <path id="Trazado_875391" d="M61.3,181.1v4.2c0,2.7,8.8,5,19.7,5s19.7-2.2,19.7-5v-4.2H61.4Z" fill="#ecb64a"/>
              <path id="Trazado_875392" d="M100.6,181.1c0,2.7-8.8,5-19.7,5s-19.7-2.2-19.7-5,8.8-5,19.7-5,19.7,2.2,19.7,5" fill="#f0ca4d"/>
              <path id="Trazado_875393" d="M95.6,181.1c0,1.7-6.5,3.1-14.6,3.1s-14.6-1.4-14.6-3.1S72.9,178,81,178s14.6,1.4,14.6,3.1" fill="#ffe48a"/>
              <path id="Trazado_875394" d="M76,179.6s-.2-.1-.2-.2a1.007,1.007,0,0,1-.1-.3c0-.2.1-.3.3-.4.2,0,.5-.1.8-.1h9.1s.2.1.2.2a1.007,1.007,0,0,1,.1.3c0,.2-.1.3-.3.4-.2,0-.5.1-.8.1Z" fill="#e17844"/>
              <path id="Trazado_875395" d="M66.3,174.7v4.2c0,2.7,8.8,5,19.7,5s19.7-2.2,19.7-5v-4.2H66.4Z" fill="#ecb64a"/>
              <path id="Trazado_875396" d="M105.6,174.7c0,2.7-8.8,5-19.7,5s-19.7-2.2-19.7-5,8.8-5,19.7-5,19.7,2.2,19.7,5" fill="#f0ca4d"/>
              <path id="Trazado_875397" d="M100.6,174.7c0,1.7-6.5,3.1-14.6,3.1s-14.6-1.4-14.6-3.1,6.5-3.1,14.6-3.1,14.6,1.4,14.6,3.1" fill="#ffe48a"/>
              <g id="Grupo_1119000" opacity="0.2">
                <g id="Grupo_1118999">
                  <g id="Grupo_1119911" data-name="Grupo 1119911" clip-path="url(#clip-path-18)">
                    <g id="Grupo_1118998">
                      <path id="Trazado_875398" d="M148.4,212.2c0,3.3-10.1,6-22.6,6s-22.6-2.7-22.6-6,10.1-6,22.6-6,22.6,2.7,22.6,6" fill="#88a7eb"/>
                    </g>
                  </g>
                </g>
              </g>
              <path id="Trazado_875399" d="M106.5,208.1v4.2c0,2.7,8.8,5,19.7,5s19.7-2.2,19.7-5v-4.2H106.6Z" fill="#ecb64a"/>
              <path id="Trazado_875400" d="M145.8,208.1c0,2.7-8.8,5-19.7,5s-19.7-2.2-19.7-5,8.8-5,19.7-5,19.7,2.2,19.7,5" fill="#f0ca4d"/>
              <path id="Trazado_875401" d="M140.8,208.1c0,1.7-6.5,3.1-14.6,3.1s-14.6-1.4-14.6-3.1,6.5-3.1,14.6-3.1,14.6,1.4,14.6,3.1" fill="#ffe48a"/>
              <path id="Trazado_875402" d="M110.5,201.6v4.2c0,2.7,8.8,5,19.7,5s19.7-2.2,19.7-5v-4.2H110.6Z" fill="#ecb64a"/>
              <path id="Trazado_875403" d="M149.8,201.6c0,2.7-8.8,5-19.7,5s-19.7-2.2-19.7-5,8.8-5,19.7-5,19.7,2.2,19.7,5" fill="#f0ca4d"/>
              <path id="Trazado_875404" d="M144.7,201.6c0,1.7-6.5,3.1-14.6,3.1s-14.6-1.4-14.6-3.1,6.5-3.1,14.6-3.1,14.6,1.4,14.6,3.1" fill="#ffe48a"/>
              <path id="Trazado_875405" d="M106.5,194.6v4.2c0,2.7,8.8,5,19.7,5s19.7-2.2,19.7-5v-4.2H106.6Z" fill="#ecb64a"/>
              <path id="Trazado_875406" d="M145.9,194.6c0,2.7-8.8,5-19.7,5s-19.7-2.2-19.7-5,8.8-5,19.7-5,19.7,2.2,19.7,5" fill="#f0ca4d"/>
              <path id="Trazado_875407" d="M140.8,194.6c0,1.7-6.5,3.1-14.6,3.1s-14.6-1.4-14.6-3.1,6.5-3.1,14.6-3.1,14.6,1.4,14.6,3.1" fill="#ffe48a"/>
              <path id="Trazado_875408" d="M148.6,135.7,86,155.4a4.265,4.265,0,0,1-5.4-2.8,3.378,3.378,0,0,1-.1-2L95.5,89a4.322,4.322,0,0,1,5-3.6,3.829,3.829,0,0,1,2.4,1.3l47.6,41.8a4.377,4.377,0,0,1,0,6.1,4.248,4.248,0,0,1-1.7,1" fill="#ff4263"/>
              <path id="Trazado_875409" d="M139,132.8,91.9,147.6a3.337,3.337,0,0,1-4.1-2.1,2.573,2.573,0,0,1-.1-1.5L99,97.7a3.246,3.246,0,0,1,3.7-2.7,2.744,2.744,0,0,1,1.8,1l35.8,31.5a3.29,3.29,0,0,1,0,4.6,3.528,3.528,0,0,1-1.3.8" fill="#ffe48a"/>
              <path id="Trazado_875410" d="M112,126.7a1.324,1.324,0,0,1-1.3,1.3,1.231,1.231,0,0,1-1-.5c-4.9-6-15.6-20.5-7-23.6s9.4,15,9.3,22.8" fill="#333232"/>
              <path id="Trazado_875411" d="M117.2,132.9a4.119,4.119,0,1,1-4.8-3.3h0a4.169,4.169,0,0,1,4.8,3.3" fill="#333232"/>
            </g>
          </g>
        </g>
      </g>
    </g>
  </g>
</svg>
