<svg id="icono-10" xmlns="http://www.w3.org/2000/svg" xmlns:xlink="http://www.w3.org/1999/xlink" width="295" height="166.8" viewBox="0 0 295 166.8">
  <defs>
    <clipPath id="clip-path">
      <rect id="Rectángulo_409665" data-name="Rectángulo 409665" width="135.6" height="159.7" transform="translate(119.1)" fill="none"/>
    </clipPath>
    <clipPath id="clip-path-3">
      <rect id="Rectángulo_409663" data-name="Rectángulo 409663" width="11.5" height="12.7" transform="translate(142.4 33.8)" fill="none"/>
    </clipPath>
    <clipPath id="clip-path-4">
      <rect id="Rectángulo_409666" data-name="Rectángulo 409666" width="81.8" height="78" transform="translate(37.4 30.1)" fill="none"/>
    </clipPath>
  </defs>
  <rect id="Rectángulo_401121" width="295" height="117.4" rx="30" transform="translate(0 49.4)" fill="#bfc9ff"/>
  <g id="Grupo_1119587">
    <g id="Grupo_1119879" data-name="Grupo 1119879" clip-path="url(#clip-path)">
      <g id="Grupo_1119586">
        <g id="Grupo_1119585">
          <g id="Grupo_1119878" data-name="Grupo 1119878" clip-path="url(#clip-path)">
            <g id="Grupo_1119584">
              <path id="Trazado_906559" d="M171.5,27.8s-2.5,8.8-.8,15.2c1.5,5.6,2.8,15.1-6.4,17.6s-18-7.9-18-8.5-1.8-7.5,0-11.9,1.6-10.6,6.6-13.2,18.6.8,18.6.8" fill="#ff862d"/>
              <path id="Trazado_906560" d="M252.4,156.5l-7.3-4.5-6.3,3.8,2.2,1.6,7.7,1.1s3-.4,3.1-.5a4.715,4.715,0,0,0,.6-1.5" fill="#ffc0bb"/>
              <path id="Trazado_906561" d="M252.4,156.5l1.9,1.2a.984.984,0,0,1,.3,1.4,1.05,1.05,0,0,1-.9.5h-14a.817.817,0,0,1-.9-.8v-2.9c9.4,2.9,12.6,2,13.6.7" fill="#ff862d"/>
              <path id="Trazado_906562" d="M125.8,31.9a32.8,32.8,0,0,0,8.4-15.1c.6-2,1.6-7.9,7.3-12,8.1-5.9,15.9-6.1,23.2-2.2,8.4,4.6,10.2,17.1,7.5,23.6l-16.5-5.1,4.2,2.4c1.6,31.5-5.5,30.3-8.5,33.3s-15.5,3-23.8-1.4c-13.4-7.2-8.1-16.7-1.7-23.5" fill="#ff862d"/>
              <path id="Trazado_906563" d="M216.6,156.5l-7.3-4.5-6.3,3.8,2.2,1.6,7.7,1.1s3-.4,3.1-.5a4.715,4.715,0,0,0,.6-1.5" fill="#ffc0bb"/>
              <path id="Trazado_906564" d="M216.6,156.5l1.9,1.2a.984.984,0,0,1,.3,1.4,1.05,1.05,0,0,1-.9.5h-14a.817.817,0,0,1-.9-.8v-2.9c9.4,2.9,12.6,2,13.6.7" fill="#ff862d"/>
              <path id="Trazado_906565" d="M152.6,45.8s21.8,26.9,25.5,31.1l22.1-21.8a30.435,30.435,0,0,1,6.7,5.1s-8.9,20.6-16.6,26L174.9,96.5l2.9,7-5.5,4.3-2.9-6.9-7.9-17.6L154,60l-1.4-11.6V45.7Z" fill="#136d68"/>
              <path id="Trazado_906566" d="M193.2,118.8l9.8,37.4,8.9-2.7V121L199,112.1l-5.8,6.7Z" fill="#1d3a39"/>
              <path id="Trazado_906567" d="M152.7,48.5s9.2,15,11.1,20.8.4,6.3,1.2,13.3,7.3,25.8,7.3,25.8l-10.7,7.2s-5.8-18.5-5.8-19.3-5.4-34.6-5.4-34.6l-4.5-12.6,6.7-.6Z" fill="#e9faff"/>
              <path id="Trazado_906568" d="M162.6,114.8S181,98.3,195.2,95s51,57.4,51,57.4l-7.6,3.6s-33.1-23.8-39.4-34.4c0,0-19.1,25.9-32.2,27.4-12.6,1.4-26.5,3.1-34.9-6.5-13.9-16,30.5-27.6,30.5-27.6" fill="#2a6d3a"/>
              <path id="Trazado_906569" d="M144.3,33.8l-4.1,11s3,6.7,12.8,4.2c0,0-1-2.3.6-7,1.7-4.8-9.4-8.2-9.4-8.2" fill="#ffc0bb"/>
              <g id="Grupo_1119583" opacity="0.6">
                <g id="Grupo_1119582">
                  <g id="Grupo_1119877" data-name="Grupo 1119877" clip-path="url(#clip-path-3)">
                    <g id="Grupo_1119581">
                      <path id="Trazado_906570" d="M144.3,33.8l-1.9,5.1c.9,3.8,4.1,6.6,10.4,7.6a13.353,13.353,0,0,1,.9-4.5c1.7-4.8-9.4-8.2-9.4-8.2" fill="#fc8d84"/>
                    </g>
                  </g>
                </g>
              </g>
              <path id="Trazado_906571" d="M200.9,110.8a12.413,12.413,0,0,1,.3,2.7,13.678,13.678,0,0,1-.2,2.8,13.1,13.1,0,0,1-.6,2.7,19.855,19.855,0,0,1-.9,2.6l-.2-.2a7.551,7.551,0,0,0,1.4-1.1A15.936,15.936,0,0,0,202,119c.4-.5.8-.9,1.2-1.4s.7-1,1.1-1.5a13.03,13.03,0,0,1-1,1.5,17.093,17.093,0,0,1-1.1,1.4,15.935,15.935,0,0,1-1.3,1.3,17.408,17.408,0,0,1-1.4,1.2l-.4.3.2-.5c.3-.8.6-1.7.9-2.6a13.1,13.1,0,0,0,.6-2.7,12.413,12.413,0,0,0,.3-2.7v-2.7" fill="#136d68"/>
              <path id="Trazado_906572" d="M167,26.5c-.9,1.8-.4,3.8,1,4.5s3.3-.2,4.1-2,.4-3.8-1-4.5-3.3.2-4.1,2" fill="#f99893"/>
              <path id="Trazado_906573" d="M165.8,37.2c.5-.8.9-1.6,1.3-2.4a32.2,32.2,0,0,0,2-6.9,7.006,7.006,0,0,1,.3-1.4,15.292,15.292,0,1,0-29.7-7.3,12.589,12.589,0,0,0-.4,2.7,3.228,3.228,0,0,0-3-.4c-1.9.7-2.7,3.1-1.8,5.5s3.1,3.7,4.9,3a1.012,1.012,0,0,0,.7-.4,14.346,14.346,0,0,0,13.4,14,13.187,13.187,0,0,0,9.5-3.3,1.205,1.205,0,0,0,.5-.5,17.834,17.834,0,0,0,2.2-2.6" fill="#ffc0bb"/>
              <path id="Trazado_906574" d="M157.9,22.9v2.6a4.868,4.868,0,0,0,.1,1.2,2.1,2.1,0,0,0,.4,1.1h0V28s.2.2.2.3.1.2.2.4v.4a1.612,1.612,0,0,1-.6,1.3,3.379,3.379,0,0,1-1.2.6h-1.3a2.663,2.663,0,0,0,1.2-.3,3.328,3.328,0,0,0,1-.6,1.284,1.284,0,0,0,.4-1v-.2s0-.2-.1-.2c0,0,0-.1-.2-.2a1.439,1.439,0,0,0-.2-.3,3.259,3.259,0,0,1-.4-1.3V25.6a7.985,7.985,0,0,1,.5-2.6" fill="#f99893"/>
              <path id="Trazado_906575" d="M152.8,24.1a1.351,1.351,0,1,1-1.3-1.4,1.415,1.415,0,0,1,1.3,1.4h0" fill="#1d3a39"/>
              <path id="Trazado_906576" d="M164.3,25.4A1.351,1.351,0,1,1,163,24a1.415,1.415,0,0,1,1.3,1.4h0" fill="#1d3a39"/>
              <path id="Trazado_906577" d="M154.5,21.1a11.7,11.7,0,0,0-2-.5,12.033,12.033,0,0,0-1.9,0,4.075,4.075,0,0,0-1.8.5c-.3,0-.6.3-.9.4-.3.2-.6.3-.9.5l.6-.9a2.7,2.7,0,0,1,.8-.7,4.851,4.851,0,0,1,2.1-.8,5.583,5.583,0,0,1,2.2.3,3.708,3.708,0,0,1,1.7,1.3" fill="#ff862d"/>
              <path id="Trazado_906578" d="M160.4,21.7a3.717,3.717,0,0,1,1.9-.9,8.129,8.129,0,0,1,2.2.1,3.865,3.865,0,0,1,1.9,1.2,5.5,5.5,0,0,1,.7.9,2.994,2.994,0,0,1,.4,1c-.3-.2-.5-.5-.8-.7s-.5-.4-.8-.6a5.306,5.306,0,0,0-1.7-.8,5.663,5.663,0,0,0-1.8-.3h-2" fill="#ff862d"/>
              <path id="Trazado_906579" d="M141,22.4a6.356,6.356,0,0,0-1.8-.6l-.7-.4.5-.9h.3l.2-2.9,1.3-2.6s5-7,5.1-7.2,4-2.4,4.2-2.6,5.5.8,5.5.8,9.3-2,7.7,3.2-8.4,7.9-8.7,7.7c1.1-1.2,1.2-4.5,1.2-4.5-4.8,5.5-13.5,9.4-14.9,9.9" fill="#ff862d"/>
              <path id="Trazado_906580" d="M144.2,21s-2.5,4.4,0,6c0,0-4.5,0-6-5.6s1.7-3.3,2.1-3.2,3.9,2.8,3.9,2.8" fill="#ff862d"/>
              <path id="Trazado_906581" d="M167.5,9.6l4,14.3s-5.5-11.7-9.9-13.2,1-3.7,1-3.7l4.9,2.6Z" fill="#ff862d"/>
              <path id="Trazado_906582" d="M151,32.6a4.3,4.3,0,0,0,4.6,4.1,4.179,4.179,0,0,0,3.6-2.4l-8.3-1.8Z" fill="#fff"/>
              <path id="Trazado_906583" d="M244.7,57.6,203.5,44.4a1.648,1.648,0,0,0-2.1,1.1h0l-18.9,58.9a1.648,1.648,0,0,0,1.1,2.1l41.2,13.2a1.648,1.648,0,0,0,2.1-1.1l18.9-58.9a1.648,1.648,0,0,0-1.1-2.1" fill="#ff862d"/>
              <rect id="Rectángulo_409507" width="55.6" height="39.7" transform="translate(187.239 100.742) rotate(-72.2)" fill="#e9faff"/>
              <path id="Trazado_906584" d="M213.3,52.3l20.5,6.6.9-2.7a3.779,3.779,0,0,0-2.4-4.7l-13.4-4.3a3.779,3.779,0,0,0-4.7,2.4l-.9,2.7Z" fill="#a4e5ff"/>
              <rect id="Rectángulo_409508" width="1.6" height="20.9" transform="translate(216.907 60.226) rotate(-72.2)" fill="#a4e5ff"/>
              <rect id="Rectángulo_409509" width="1.6" height="20.9" transform="translate(215.229 65.695) rotate(-72.2)" fill="#a4e5ff"/>
              <rect id="Rectángulo_409510" width="1.6" height="20.9" transform="translate(213.42 71.16) rotate(-72.2)" fill="#a4e5ff"/>
              <rect id="Rectángulo_409511" width="1.6" height="20.9" transform="translate(211.737 76.56) rotate(-72.2)" fill="#a4e5ff"/>
              <rect id="Rectángulo_409512" width="1.6" height="20.9" transform="translate(210.028 82.024) rotate(-72.2)" fill="#a4e5ff"/>
              <rect id="Rectángulo_409513" width="1.6" height="20.9" transform="translate(208.25 87.394) rotate(-72.2)" fill="#a4e5ff"/>
              <rect id="Rectángulo_409514" width="1.6" height="20.9" transform="translate(206.441 92.858) rotate(-72.2)" fill="#a4e5ff"/>
              <rect id="Rectángulo_409515" width="1.6" height="20.9" transform="translate(204.858 98.258) rotate(-72.2)" fill="#a4e5ff"/>
              <rect id="Rectángulo_409516" width="11.4" height="11.9" transform="translate(199.998 65.152) rotate(-72.2)" fill="#a4e5ff"/>
              <rect id="Rectángulo_409517" width="11.4" height="11.9" transform="translate(195.602 78.799) rotate(-72.2)" fill="#a4e5ff"/>
              <rect id="Rectángulo_409518" width="11.4" height="11.9" transform="translate(191.042 92.955) rotate(-72.2)" fill="#a4e5ff"/>
              <path id="Trazado_906585" d="M198.3,80.7c0,.2,0,.4.2.5h.2c2.1-.5,8.9-1.8,9.1-1.3.3.6-5.7,2-5.8,2.6s5.7-.9,5.9-.2-5.1,1.9-5.2,2.2,5.2-.3,5.6,0-5.1,1.6-5.3,2,4,.8,4,1.1,0,.6-9.4,2.4l-3.8.6-3.3-1.2V85.2c-.1,0,8.2-9.2,8.7-9.1.5,0,.6.5-1,4.5" fill="#ffc0bb"/>
              <path id="Trazado_906586" d="M140.5,43s-18.8,22.6-16.2,62.5,3,40.1,3,40.1,11.5-1.2,20.1-8.1a99.136,99.136,0,0,1,19-11.5l-6.9-22.5s9,.3,15.6-2.5,20.2-10.1,20.2-10.1-1.1-6.7-2.6-8.8c0,0-17.4,5.3-26.1,5.4,0,0-10.2-31.3-26-44.6" fill="#27a2a0"/>
              <path id="Trazado_906587" d="M141.9,50.3a87.453,87.453,0,0,1,8,8.1,97.7,97.7,0,0,1,6.9,9l.8,1.2c.3.4.5.8.8,1.2l1.5,2.4a7.458,7.458,0,0,1,.7,1.2l.7,1.2.7,1.2c.2.4.4.9.6,1.3l1.2,2.6,1.1,2.6.5,1.3.4,1.3.9,2.7c-.4-.9-.7-1.8-1-2.6l-.5-1.3-.6-1.3-1.2-2.6-1.3-2.5c-.2-.4-.4-.8-.6-1.3l-.7-1.2-.7-1.2c-.2-.4-.5-.8-.7-1.2L157.9,70a8.341,8.341,0,0,0-.8-1.2l-.8-1.2c-2.1-3.1-4.3-6.1-6.7-9.1l-1.8-2.2c-.6-.7-1.2-1.4-1.9-2.1-1.3-1.4-2.6-2.8-3.9-4.1" fill="#136d68"/>
              <path id="Trazado_906588" d="M133.7,66.1c1.5,3.5,3.2,6.9,4.9,10.3.9,1.7,1.7,3.4,2.6,5.1s1.8,3.3,2.8,5l3,4.8c.5.8,1.1,1.6,1.6,2.3.6.8,1.1,1.5,1.7,2.3a37.905,37.905,0,0,0,3.8,4.2,19.6,19.6,0,0,0,4.6,3.4,21.146,21.146,0,0,1-4.8-3.2c-1.4-1.3-2.7-2.7-4-4.1a49.555,49.555,0,0,1-3.4-4.6c-1-1.6-2.1-3.2-3.1-4.8-1.9-3.3-3.7-6.7-5.4-10.1s-3.1-7-4.5-10.5" fill="#136d68"/>
            </g>
          </g>
        </g>
      </g>
    </g>
  </g>
  <g id="Grupo_1119589">
    <g id="Grupo_1119880" data-name="Grupo 1119880" clip-path="url(#clip-path-4)">
      <g id="Grupo_1119588">
        <path id="Trazado_906589" d="M79.1,30.1V67.9H76.5L48.6,45.5A36.09,36.09,0,0,1,76.5,30.1h2.6" fill="#a4e5ff"/>
        <path id="Trazado_906590" d="M76.5,30.1V67.9L46,45.5c6.9-9.7,17.8-15.4,30.6-15.4" fill="#e9faff"/>
        <path id="Trazado_906591" d="M77.6,69.2H40c0-7.5.7-16.3,4.5-22.2h2.6L77.6,69.1Z" fill="#b1b742"/>
        <path id="Trazado_906592" d="M75,69.2H37.4A38.565,38.565,0,0,1,44.5,47L75,69.1Z" fill="#d4e157"/>
        <path id="Trazado_906593" d="M81,70s-2.6-2.6-2.6-38.2c24.7,0,40.8,17.1,40.8,38.2a38.2,38.2,0,0,1-76.4,0Z" fill="#136d68"/>
        <path id="Trazado_906594" d="M78.4,70V31.8A38.2,38.2,0,1,1,40.2,70H78.4Z" fill="#27a2a0"/>
      </g>
    </g>
  </g>
</svg>
