<svg id="img-13" xmlns="http://www.w3.org/2000/svg" xmlns:xlink="http://www.w3.org/1999/xlink" width="353" height="223" viewBox="0 0 353 223">
  <defs>
    <clipPath id="clip-path">
      <rect id="Rectángulo_409758" data-name="Rectángulo 409758" width="237.6" height="203.9" transform="translate(57.7 6.2)" fill="none"/>
    </clipPath>
    <clipPath id="clip-path-4">
      <rect id="Rectángulo_409749" data-name="Rectángulo 409749" width="23.5" height="14.2" transform="translate(171.5 139.3)" fill="none"/>
    </clipPath>
    <clipPath id="clip-path-5">
      <rect id="Rectángulo_409750" data-name="Rectángulo 409750" width="23.5" height="14" transform="translate(174.7 139.5)" fill="none"/>
    </clipPath>
    <clipPath id="clip-path-6">
      <rect id="Rectángulo_409751" data-name="Rectángulo 409751" width="27.2" height="2" transform="translate(125.4 25.1)" fill="none"/>
    </clipPath>
    <clipPath id="clip-path-7">
      <rect id="Rectángulo_409752" data-name="Rectángulo 409752" width="27" height="2.3" transform="translate(127.9 27.1)" fill="none"/>
    </clipPath>
    <clipPath id="clip-path-8">
      <rect id="Rectángulo_409753" data-name="Rectángulo 409753" width="26.9" height="4.6" transform="translate(67.7 141)" fill="none"/>
    </clipPath>
    <clipPath id="clip-path-9">
      <rect id="Rectángulo_409754" data-name="Rectángulo 409754" width="26.6" height="4.9" transform="translate(69.9 143.2)" fill="none"/>
    </clipPath>
    <clipPath id="clip-path-10">
      <rect id="Rectángulo_409755" data-name="Rectángulo 409755" width="19.6" height="19" transform="translate(257.3 74.7)" fill="none"/>
    </clipPath>
    <clipPath id="clip-path-11">
      <rect id="Rectángulo_409756" data-name="Rectángulo 409756" width="19.7" height="18.6" transform="translate(260.4 74.6)" fill="none"/>
    </clipPath>
  </defs>
  <g id="Capa_1">
    <g id="Grupo_1119200">
      <rect id="Rectángulo_409117" width="353" height="223" fill="none"/>
      <g id="Grupo_1119231">
        <g id="Grupo_1120000" data-name="Grupo 1120000" clip-path="url(#clip-path)">
          <g id="Grupo_1119230">
            <g id="Grupo_1119229">
              <g id="Grupo_1119999" data-name="Grupo 1119999" clip-path="url(#clip-path)">
                <g id="Grupo_1119228">
                  <g id="Grupo_1119203" opacity="0.6">
                    <g id="Grupo_1119202">
                      <g id="Grupo_1119990" data-name="Grupo 1119990" clip-path="url(#clip-path)">
                        <g id="Grupo_1119201">
                          <path id="Trazado_875631" d="M244.4,14.2C205,3.7,167,4.6,127.2,11c-21.4,3.4-47.1,8.1-58.1,34-7.7,18.1,1.4,23,6.3,37.6,4.8,14.2-5.1,23.2-10.5,34.2-5.8,11.6-9.5,29.6-5.3,42.7,16.6,51.2,88.3,53,125,49.7,32-2.9,94.8-.6,108.4-46.3,7.3-24.2-4.8-49.1-4.8-73.5,0-15.9,3.3-31.6-4.2-46.1-9-17.3-23.8-24.8-39.6-29" fill="#e5e9fe"/>
                        </g>
                      </g>
                    </g>
                  </g>
                  <path id="Trazado_875632" d="M123.2,125.8V120h-4.6a7.972,7.972,0,0,0-.3-1.5l4.3-1.7-2.1-5.4-4.4,1.7-1.2-1.8,3.3-3.3-4.1-4.1-3.4,3.4a13.029,13.029,0,0,0-1.5-1l1.8-4.4-5.3-2.2-1.8,4.4c-.6-.1-1.2-.3-1.8-.4V98.9H96.3v4.8a7.972,7.972,0,0,0-1.5.3L93,99.5l-5.4,2.1,1.8,4.4a18.759,18.759,0,0,0-1.8,1.2l-3.4-3.4-4.1,4.1,3.3,3.3a13.029,13.029,0,0,0-1,1.5l-4.3-1.8-2.2,5.3,4.3,1.8a10.622,10.622,0,0,0-.4,1.9H75.2v5.8h4.6a11.043,11.043,0,0,0,.3,1.6L75.9,129l2.1,5.4,4.2-1.7c.4.7.8,1.3,1.2,1.9l-3.2,3.2,4.1,4.1,3.1-3.1a9.063,9.063,0,0,0,1.6,1.1L87.3,144l5.3,2.2,1.7-4.1a12.859,12.859,0,0,0,1.9.4v4.4H102v-4.4a9,9,0,0,0,1.6-.3l1.6,4.1,5.4-2.1-1.6-4.1a12.735,12.735,0,0,0,1.9-1.3l3.1,3.1,4.1-4.1-3.2-3.2c.4-.5.7-1,1.1-1.6l4.2,1.7,2.2-5.3-4.2-1.7c.1-.6.3-1.2.4-1.9h4.6Zm-24,8.4a11.3,11.3,0,1,1,11.3-11.3,11.288,11.288,0,0,1-11.3,11.3h0" fill="#a1c4ac"/>
                  <path id="Trazado_875633" d="M221.5,38.6V32.8h-4.6a7.972,7.972,0,0,0-.3-1.5l4.3-1.7-2.1-5.4-4.4,1.7-1.2-1.8,3.3-3.3-4.1-4.1L209,20.1a13.029,13.029,0,0,0-1.5-1l1.8-4.4L204,12.5l-1.8,4.4c-.6-.1-1.2-.3-1.8-.4V11.7h-5.8v4.8a7.972,7.972,0,0,0-1.5.3l-1.8-4.5-5.4,2.1,1.8,4.4a18.758,18.758,0,0,0-1.8,1.2l-3.4-3.4-4.1,4.1,3.3,3.3a13.03,13.03,0,0,0-1,1.5l-4.3-1.8L174.2,29l4.3,1.8a10.621,10.621,0,0,0-.4,1.9h-4.6v5.8h4.6a11.043,11.043,0,0,0,.3,1.6l-4.2,1.7,2.1,5.4,4.2-1.7c.4.7.8,1.3,1.2,1.9l-3.2,3.2,4.1,4.1,3.1-3.1a9.062,9.062,0,0,0,1.6,1.1l-1.7,4.1,5.3,2.2,1.7-4.1a12.86,12.86,0,0,0,1.9.4v4.4h5.8V55.3a9.005,9.005,0,0,0,1.6-.3l1.6,4.1,5.4-2.1-1.6-4.1a12.735,12.735,0,0,0,1.9-1.3l3.1,3.1,4.1-4.1-3.2-3.2c.4-.5.7-1,1.1-1.6l4.2,1.7,2.2-5.3-4.2-1.7c.1-.6.3-1.2.4-1.9h4.6Zm-24,8.4a11.3,11.3,0,1,1,11.3-11.3A11.288,11.288,0,0,1,197.5,47h0" fill="#bfc9ff"/>
                  <path id="Trazado_875634" d="M276.9,136.3v-5.9h-2.3a20.694,20.694,0,0,0-.4-2.2l2.2-.9-2.2-5.5-2.2.9a12.735,12.735,0,0,0-1.3-1.9l1.7-1.7-4.2-4.2-1.7,1.7-1.8-1.2.9-2.2-5.5-2.3-.9,2.2c-.8-.2-1.5-.3-2.3-.5v-2.4H251v2.4a20.687,20.687,0,0,0-2.2.4l-.9-2.2-5.5,2.2.9,2.2a12.735,12.735,0,0,0-1.9,1.3l-1.7-1.7-4.2,4.2,1.7,1.7-1.2,1.8-2.2-.9-2.3,5.5,2.1.9c-.2.8-.3,1.5-.5,2.3h-2.3v5.9h2.3a20.69,20.69,0,0,0,.4,2.2l-2.1.9,2.2,5.5,2.1-.9a12.734,12.734,0,0,0,1.3,1.9l-1.6,1.6,4.2,4.2,1.6-1.6a18.759,18.759,0,0,0,1.8,1.2l-.9,2.1,5.5,2.3.9-2.1c.8.2,1.5.3,2.3.5v2.3h5.9V154a16.959,16.959,0,0,0,2.2-.4l.9,2.1,5.5-2.2-.9-2.1a12.734,12.734,0,0,0,1.9-1.3l1.6,1.6,4.2-4.2-1.6-1.6a18.762,18.762,0,0,0,1.2-1.8l2.1.9,2.3-5.5-2.1-.9c.2-.8.3-1.5.5-2.3h2.3Zm-23,9.9a12.8,12.8,0,1,1,12.8-12.8h0a12.825,12.825,0,0,1-12.8,12.8" fill="#a1c4ac"/>
                  <path id="Trazado_875635" d="M194.6,154.7v-6.1h-2.4c-.1-.7-.3-1.5-.4-2.2l2.2-.9-2.3-5.6-2.2.9c-.4-.7-.9-1.4-1.3-2l1.7-1.7-4.3-4.3-1.7,1.7a12.736,12.736,0,0,0-1.9-1.3l.9-2.2-5.6-2.4-.9,2.2a20.483,20.483,0,0,0-2.4-.5v-2.4h-6.1v2.4a16.959,16.959,0,0,0-2.2.4l-.9-2.2-5.6,2.3.9,2.2a13.735,13.735,0,0,0-2,1.3l-1.7-1.7-4.3,4.3,1.7,1.7a12.736,12.736,0,0,0-1.3,1.9l-2.2-.9-2.4,5.6,2.2.9a20.483,20.483,0,0,0-.5,2.4h-2.4v6.1h2.4a14.346,14.346,0,0,0,.4,2.2l-2.2.9,2.3,5.6,2.2-.9c.4.7.9,1.4,1.3,2l-1.7,1.7,4.3,4.3,1.7-1.7a12.736,12.736,0,0,0,1.9,1.3l-.9,2.2,5.6,2.4.9-2.2a20.483,20.483,0,0,0,2.4.5v2.4h6.1v-2.4c.8-.1,1.5-.3,2.2-.4l.9,2.2,5.6-2.3-.9-2.2c.7-.4,1.4-.9,2-1.3l1.7,1.7,4.3-4.3-1.7-1.7a12.736,12.736,0,0,0,1.3-1.9l2.2.9,2.4-5.6-2.2-.9a20.483,20.483,0,0,0,.5-2.4ZM170.8,165a13.3,13.3,0,1,1,13.3-13.3h0A13.294,13.294,0,0,1,170.8,165" fill="#bfc9ff"/>
                  <path id="Trazado_875636" d="M201.7,141.6c-3.8-1.4-11-1.1-18.9,1s-14.2,5.4-16.9,8.5l-2.1.5.8,3h0c1,3.7,10.7,4.3,21.7,1.4s19.1-8.3,18.1-12l-.8-3-2,.5Z" fill="#f8a55d"/>
                  <path id="Trazado_875637" d="M203.8,141.1c1,3.7-7.1,9.1-18.1,12s-20.7,2.3-21.7-1.4,7.1-9.1,18.1-12,20.7-2.3,21.7,1.4" fill="#fdc363"/>
                  <path id="Trazado_875638" d="M200.4,142c.8,3.1-5.9,7.5-15.1,10s-17.2,1.9-18-1.2,5.9-7.5,15.1-10,17.2-1.9,18,1.2" fill="#ffd685"/>
                  <path id="Trazado_875639" d="M171.6,154.9c8.5-5.6,17.1-11.3,25.6-16.9-.8,0-1.6-.1-2.4-.1l-25.5,16.8a16.412,16.412,0,0,0,2.3.2" fill="#ffd967"/>
                  <path id="Trazado_875640" d="M200.4,138.5a20.483,20.483,0,0,0-2.4-.5c-8.5,5.6-17,11.3-25.5,16.9,1.1,0,2.2,0,3.4-.1,8.2-5.4,16.4-10.9,24.6-16.3" fill="#ffd967"/>
                  <path id="Trazado_875641" d="M200.4,142c.8,3.1-5.9,7.5-15.1,10s-17.2,1.9-18-1.2,5.9-7.5,15.1-10,17.2-1.9,18,1.2" fill="#ffd685"/>
                  <path id="Trazado_875642" d="M191.6,139.3a50.045,50.045,0,0,0-9.3,1.5c-9.1,2.4-15.9,6.9-15.1,10,.3,1.1,1.6,1.9,3.5,2.3,6.9-4.6,13.9-9.2,20.8-13.8" fill="#ffd685"/>
                  <path id="Trazado_875643" d="M179.2,153.2a59.81,59.81,0,0,0,6.1-1.2c9.1-2.4,15.9-6.9,15.1-10a2.857,2.857,0,0,0-1.7-1.7l-19.5,12.9" fill="#ffd685"/>
                  <path id="Trazado_875644" d="M168.1,150.9c-.8-3.1,5.9-7.5,15.1-10,5.6-1.5,10.8-1.9,14.2-1.2-3.3-.9-8.9-.6-15,1-9.1,2.4-15.9,6.9-15.1,10,.3,1.2,1.7,2,3.8,2.4-1.6-.4-2.7-1.2-3-2.2" fill="#f9a855"/>
                  <path id="Trazado_875645" d="M182.3,142.6l2.3-.6.2.6a20.534,20.534,0,0,1,4.9-.6l-2.2,1.7a19.267,19.267,0,0,0-2.4.1l.4,1.3q5.25-.9,5.7.6c.1.5-.2,1-1,1.6a17.639,17.639,0,0,1-3.7,1.7l.2.8-2.2.6-.2-.8h-.4a15.945,15.945,0,0,1-3,.6,8.761,8.761,0,0,1-2.8,0l2.1-1.6a15.417,15.417,0,0,0,3.7-.3l-.4-1.5a13.273,13.273,0,0,1-4,.3c-1-.1-1.5-.4-1.6-.9s.2-1,.9-1.6a12.214,12.214,0,0,1,3.7-1.6l-.2-.6Zm.7,3-.3-1.1c-.8.3-1.2.6-1.1.9,0,.3.5.4,1.4.2m2.7,1,.3,1.2c.9-.3,1.3-.6,1.2-1,0-.3-.6-.4-1.6-.2" fill="#fdc363"/>
                  <path id="Trazado_875646" d="M181.7,142.7l2.3-.6.2.6a20.534,20.534,0,0,1,4.9-.6l-2.2,1.7a19.267,19.267,0,0,0-2.4.1l.4,1.3q5.25-.9,5.7.6c.1.5-.2,1-1,1.6a17.639,17.639,0,0,1-3.7,1.7l.2.8-2.2.6-.2-.8h-.4a15.945,15.945,0,0,1-3,.6,8.761,8.761,0,0,1-2.8,0l2.1-1.6a15.417,15.417,0,0,0,3.7-.3l-.4-1.5a13.273,13.273,0,0,1-4,.3c-1-.1-1.5-.4-1.6-.9s.2-1,.9-1.6a12.214,12.214,0,0,1,3.7-1.6l-.2-.6Zm.8,3-.3-1.1c-.8.3-1.2.6-1.1.9,0,.3.5.4,1.4.2m2.6,1.1.3,1.2c.9-.3,1.3-.6,1.2-1,0-.3-.6-.4-1.6-.2" fill="#f8a55d"/>
                  <path id="Trazado_875647" d="M182.3,142.6l2.3-.6.2.6a20.534,20.534,0,0,1,4.9-.6l-2.2,1.7a19.267,19.267,0,0,0-2.4.1l.4,1.3q5.25-.9,5.7.6c.1.5-.2,1-1,1.6a17.639,17.639,0,0,1-3.7,1.7l.2.8-2.2.6-.2-.8h-.4a15.945,15.945,0,0,1-3,.6,8.761,8.761,0,0,1-2.8,0l2.1-1.6a15.417,15.417,0,0,0,3.7-.3l-.4-1.5a13.273,13.273,0,0,1-4,.3c-1-.1-1.5-.4-1.6-.9s.2-1,.9-1.6a12.214,12.214,0,0,1,3.7-1.6l-.2-.6Zm.7,3-.3-1.1c-.8.3-1.2.6-1.1.9,0,.3.5.4,1.4.2m2.7,1,.3,1.2c.9-.3,1.3-.6,1.2-1,0-.3-.6-.4-1.6-.2" fill="#fdc363"/>
                  <g id="Grupo_1119206" opacity="0.4">
                    <g id="Grupo_1119205">
                      <g id="Grupo_1119991" data-name="Grupo 1119991" clip-path="url(#clip-path-4)">
                        <g id="Grupo_1119204">
                          <path id="Trazado_875648" d="M173.8,153.4l21.3-14.1a19.217,19.217,0,0,0-2.4,0c-7,4.6-14.1,9.3-21.1,13.9a16.412,16.412,0,0,0,2.3.2" fill="#fff3cd"/>
                        </g>
                      </g>
                    </g>
                  </g>
                  <g id="Grupo_1119209" opacity="0.4">
                    <g id="Grupo_1119208">
                      <g id="Grupo_1119992" data-name="Grupo 1119992" clip-path="url(#clip-path-5)">
                        <g id="Grupo_1119207">
                          <path id="Trazado_875649" d="M198.1,140a9.766,9.766,0,0,0-2.3-.6c-7.1,4.7-14.1,9.3-21.2,14a20.554,20.554,0,0,0,3.5-.2c6.7-4.4,13.4-8.9,20-13.3" fill="#fff3cd"/>
                        </g>
                      </g>
                    </g>
                  </g>
                  <path id="Trazado_875650" d="M156.9,32.8c-2.4-3.3-8.4-7.2-16-9.9s-14.8-3.7-18.7-2.7l-2-.7-1,2.9h0c-1.3,3.6,6.3,9.7,17,13.6s20.4,4.1,21.7.5l1-2.9-2-.7Z" fill="#f8a55d"/>
                  <path id="Trazado_875651" d="M158.8,33.5c-1.3,3.6-11,3.4-21.7-.5s-18.3-9.9-17-13.6,11-3.4,21.7.5,18.3,9.9,17,13.6" fill="#fdc363"/>
                  <path id="Trazado_875652" d="M155.6,32.3c-1.1,3-9.2,2.8-18-.4s-15.2-8.3-14.1-11.3,9.2-2.8,18,.4,15.2,8.3,14.1,11.3" fill="#ffd685"/>
                  <path id="Trazado_875653" d="M124.6,26.5c10.2.2,20.5.5,30.7.7-.6-.5-1.2-1-1.9-1.5-10.2-.2-20.4-.5-30.5-.7a14.282,14.282,0,0,0,1.8,1.5" fill="#ffd967"/>
                  <path id="Trazado_875654" d="M157.6,29.5c-.5-.6-1.1-1.2-1.7-1.8-10.2-.2-20.4-.5-30.6-.7.9.6,1.8,1.2,2.8,1.8l29.5.6" fill="#ffd967"/>
                  <path id="Trazado_875655" d="M155.6,32.3c-1.1,3-9.2,2.8-18-.4s-15.2-8.3-14.1-11.3,9.2-2.8,18,.4,15.2,8.3,14.1,11.3" fill="#ffd685"/>
                  <path id="Trazado_875656" d="M149.9,25.1a44.384,44.384,0,0,0-8.5-4.1c-8.9-3.2-17-3.4-18-.4-.4,1.1.2,2.5,1.5,3.9,8.3.2,16.6.4,25,.6" fill="#ffd685"/>
                  <path id="Trazado_875657" d="M131.8,29.4a41.066,41.066,0,0,0,5.7,2.5c8.9,3.2,17,3.4,18,.4a3.358,3.358,0,0,0-.4-2.4c-7.8-.2-15.6-.3-23.4-.5" fill="#ffd685"/>
                  <path id="Trazado_875658" d="M124,21.3c1.1-3,9.2-2.8,18,.4,5.5,2,10,4.7,12.4,7.1-2.2-2.6-7-5.6-12.9-7.7-8.9-3.2-17-3.4-18-.4-.4,1.2.3,2.6,1.7,4.1-1.1-1.3-1.5-2.5-1.2-3.5" fill="#f9a855"/>
                  <path id="Trazado_875659" d="M140.3,22.5l2.2.8-.2.6a22.155,22.155,0,0,1,4.3,2.3h-2.8c-.6-.3-1.3-.8-2-1.1l-.5,1.3c3.2,1.6,4.7,2.8,4.3,3.7-.2.5-.7.7-1.7.7a13.442,13.442,0,0,1-4-.7l-.3.8-2.2-.8.3-.8h-.4c-.9-.5-1.9-.9-2.8-1.4a11.355,11.355,0,0,1-2.3-1.5h2.7a16.229,16.229,0,0,0,3.2,1.7l.5-1.5a14.475,14.475,0,0,1-3.4-2c-.7-.6-1-1.2-.8-1.6.2-.5.7-.7,1.7-.8a10.457,10.457,0,0,1,3.9.8l.2-.6Zm-1.1,2.9.4-1.1c-.9-.2-1.3-.2-1.4,0-.1.3.2.6,1,1m1.6,2.4-.4,1.2c.9.3,1.5.2,1.6,0,.1-.3-.3-.6-1.1-1.1" fill="#fdc363"/>
                  <path id="Trazado_875660" d="M139.8,22.3l2.2.8-.2.6a22.155,22.155,0,0,1,4.3,2.3h-2.8c-.6-.3-1.3-.8-2-1.1l-.5,1.3c3.2,1.6,4.7,2.8,4.3,3.7-.2.5-.7.7-1.7.7a13.442,13.442,0,0,1-4-.7l-.3.8-2.2-.8.3-.8h-.4c-.9-.5-1.9-.9-2.8-1.4a11.355,11.355,0,0,1-2.3-1.5h2.7a16.229,16.229,0,0,0,3.2,1.7l.5-1.5a14.475,14.475,0,0,1-3.4-2c-.7-.6-1-1.2-.8-1.6.2-.5.7-.7,1.7-.8a10.457,10.457,0,0,1,3.9.8l.2-.6Zm-1.1,2.9.4-1.1c-.9-.2-1.3-.2-1.4,0-.1.3.2.6,1,1m1.6,2.4-.4,1.2c.9.3,1.5.2,1.6,0,.1-.3-.3-.6-1.1-1.1" fill="#f8a55d"/>
                  <path id="Trazado_875661" d="M140.3,22.5l2.2.8-.2.6a22.155,22.155,0,0,1,4.3,2.3h-2.8c-.6-.3-1.3-.8-2-1.1l-.5,1.3c3.2,1.6,4.7,2.8,4.3,3.7-.2.5-.7.7-1.7.7a13.442,13.442,0,0,1-4-.7l-.3.8-2.2-.8.3-.8h-.4c-.9-.5-1.9-.9-2.8-1.4a11.355,11.355,0,0,1-2.3-1.5h2.7a16.229,16.229,0,0,0,3.2,1.7l.5-1.5a14.475,14.475,0,0,1-3.4-2c-.7-.6-1-1.2-.8-1.6.2-.5.7-.7,1.7-.8a10.457,10.457,0,0,1,3.9.8l.2-.6Zm-1.1,2.9.4-1.1c-.9-.2-1.3-.2-1.4,0-.1.3.2.6,1,1m1.6,2.4-.4,1.2c.9.3,1.5.2,1.6,0,.1-.3-.3-.6-1.1-1.1" fill="#fdc363"/>
                  <g id="Grupo_1119212" opacity="0.4">
                    <g id="Grupo_1119211">
                      <g id="Grupo_1119993" data-name="Grupo 1119993" clip-path="url(#clip-path-6)">
                        <g id="Grupo_1119210">
                          <path id="Trazado_875662" d="M127.2,26.5l25.5.6c-.6-.5-1.3-1-1.9-1.5L125.5,25c.5.5,1.1,1,1.7,1.5" fill="#fff3cd"/>
                        </g>
                      </g>
                    </g>
                  </g>
                  <g id="Grupo_1119215" opacity="0.4">
                    <g id="Grupo_1119214">
                      <g id="Grupo_1119994" data-name="Grupo 1119994" clip-path="url(#clip-path-7)">
                        <g id="Grupo_1119213">
                          <path id="Trazado_875663" d="M154.8,29.4c-.5-.6-1-1.2-1.6-1.8L127.8,27a17.482,17.482,0,0,0,2.9,1.8c8,.2,16,.4,24,.5" fill="#fff3cd"/>
                        </g>
                      </g>
                    </g>
                  </g>
                  <path id="Trazado_875664" d="M98.2,151.7c-2-3.5-7.7-8-15-11.4s-14.3-5.1-18.3-4.4L63,135l-1.3,2.8h0c-1.6,3.5,5.3,10.3,15.6,15.1s19.9,6,21.6,2.6l1.3-2.8-1.9-.9Z" fill="#f8a55d"/>
                  <path id="Trazado_875665" d="M100.1,152.6c-1.7,3.5-11.3,2.3-21.6-2.6s-17.2-11.7-15.6-15.1,11.3-2.3,21.6,2.6,17.2,11.7,15.6,15.1" fill="#fdc363"/>
                  <path id="Trazado_875666" d="M97,151.1c-1.4,2.9-9.4,1.9-17.9-2.1s-14.3-9.7-13-12.6,9.4-1.9,17.9,2.1,14.3,9.7,13,12.6" fill="#ffd685"/>
                  <path id="Trazado_875667" d="M66.7,142.3c10.2,1.2,20.3,2.4,30.5,3.6a14.543,14.543,0,0,0-1.8-1.6l-30.3-3.6a12.094,12.094,0,0,0,1.6,1.6" fill="#ffd967"/>
                  <path id="Trazado_875668" d="M99.2,148.5c-.5-.7-1-1.3-1.5-1.9-10.1-1.2-20.3-2.4-30.4-3.6.8.7,1.7,1.4,2.6,2.1,9.8,1.2,19.5,2.3,29.3,3.5" fill="#ffd967"/>
                  <path id="Trazado_875669" d="M97,151.1c-1.4,2.9-9.4,1.9-17.9-2.1s-14.3-9.7-13-12.6,9.4-1.9,17.9,2.1,14.3,9.7,13,12.6" fill="#ffd685"/>
                  <path id="Trazado_875670" d="M92,143.4a50.423,50.423,0,0,0-8-4.9c-8.5-4.1-16.6-5-17.9-2.1-.5,1,0,2.5,1.1,4,8.3,1,16.5,2,24.8,3" fill="#ffd685"/>
                  <path id="Trazado_875671" d="M73.6,146a48.26,48.26,0,0,0,5.5,3c8.5,4.1,16.6,5,17.9,2.1a2.871,2.871,0,0,0-.2-2.4c-7.7-.9-15.5-1.8-23.2-2.7" fill="#ffd685"/>
                  <path id="Trazado_875672" d="M66.6,137.1c1.4-2.9,9.4-1.9,17.9,2.1,5.3,2.5,9.5,5.6,11.6,8.3-1.9-2.8-6.4-6.2-12.1-9-8.5-4.1-16.6-5-17.9-2.1-.5,1.1,0,2.6,1.3,4.3-1-1.4-1.3-2.7-.8-3.6" fill="#f9a855"/>
                  <path id="Trazado_875673" d="M82.7,139.9l2.1,1-.3.6a16.543,16.543,0,0,1,4.1,2.8H85.8a7.045,7.045,0,0,0-1.9-1.6l-.6,1.2c3.1,1.9,4.4,3.2,4,4.1-.2.5-.8.6-1.8.6a16.014,16.014,0,0,1-3.9-1.1l-.4.7-2.1-1,.3-.7-.3-.2a22.01,22.01,0,0,1-2.6-1.5,18.4,18.4,0,0,1-2.2-1.7H77a10.927,10.927,0,0,0,3,2.3l.7-1.4a12.2,12.2,0,0,1-3.2-2.4c-.7-.7-.9-1.3-.7-1.7.2-.5.8-.7,1.7-.6a12.939,12.939,0,0,1,3.8,1.2l.3-.6Zm-1.3,2.7.5-1.1c-.8-.3-1.3-.3-1.4,0s.2.6.9,1.1m1.3,2.6-.5,1.1c.9.3,1.4.4,1.6,0,.1-.3-.2-.7-1-1.2" fill="#fdc363"/>
                  <path id="Trazado_875674" d="M82.2,139.6l2.1,1-.3.6a16.543,16.543,0,0,1,4.1,2.8H85.3a7.045,7.045,0,0,0-1.9-1.6l-.6,1.2c3.1,1.9,4.4,3.2,4,4.1-.2.5-.8.6-1.8.6a16.014,16.014,0,0,1-3.9-1.1l-.4.7-2.1-1,.4-.7-.3-.2a22.01,22.01,0,0,1-2.6-1.5,18.4,18.4,0,0,1-2.2-1.7h2.7a10.927,10.927,0,0,0,3,2.3l.7-1.4a12.2,12.2,0,0,1-3.2-2.4c-.7-.7-.9-1.3-.7-1.7.2-.5.8-.7,1.7-.6a12.939,12.939,0,0,1,3.8,1.2l.3-.6Zm-1.3,2.8.5-1.1c-.8-.3-1.3-.3-1.4,0s.2.6.9,1.1m1.3,2.5-.5,1.1c.9.3,1.4.4,1.6,0,.1-.3-.2-.7-1-1.2" fill="#f8a55d"/>
                  <path id="Trazado_875675" d="M82.7,139.9l2.1,1-.3.6a16.543,16.543,0,0,1,4.1,2.8H85.8a7.045,7.045,0,0,0-1.9-1.6l-.6,1.2c3.1,1.9,4.4,3.2,4,4.1-.2.5-.8.6-1.8.6a16.014,16.014,0,0,1-3.9-1.1l-.4.7-2.1-1,.3-.7-.3-.2a22.01,22.01,0,0,1-2.6-1.5,18.4,18.4,0,0,1-2.2-1.7H77a10.927,10.927,0,0,0,3,2.3l.7-1.4a12.2,12.2,0,0,1-3.2-2.4c-.7-.7-.9-1.3-.7-1.7.2-.5.8-.7,1.7-.6a12.939,12.939,0,0,1,3.8,1.2l.3-.6Zm-1.3,2.7.5-1.1c-.8-.3-1.3-.3-1.4,0s.2.6.9,1.1m1.3,2.6-.5,1.1c.9.3,1.4.4,1.6,0,.1-.3-.2-.7-1-1.2" fill="#fdc363"/>
                  <g id="Grupo_1119218" opacity="0.4">
                    <g id="Grupo_1119217">
                      <g id="Grupo_1119995" data-name="Grupo 1119995" clip-path="url(#clip-path-8)">
                        <g id="Grupo_1119216">
                          <path id="Trazado_875676" d="M69.2,142.7c8.4,1,16.9,2,25.3,3-.6-.6-1.2-1.1-1.8-1.6-8.4-1-16.7-2-25.1-3a12.094,12.094,0,0,0,1.6,1.6" fill="#fff3cd"/>
                        </g>
                      </g>
                    </g>
                  </g>
                  <g id="Grupo_1119221" opacity="0.4">
                    <g id="Grupo_1119220">
                      <g id="Grupo_1119996" data-name="Grupo 1119996" clip-path="url(#clip-path-9)">
                        <g id="Grupo_1119219">
                          <path id="Trazado_875677" d="M96.5,148.2a13.3,13.3,0,0,0-1.4-1.9l-25.2-3,2.7,2.1c8,.9,15.9,1.9,23.9,2.8" fill="#fff3cd"/>
                        </g>
                      </g>
                    </g>
                  </g>
                  <path id="Trazado_875678" d="M283.9,75.3c-4-.4-11,1.5-18.1,5.4s-12.5,8.6-14.4,12.2l-1.9,1,1.5,2.7h0c1.8,3.4,11.4,1.7,21.4-3.7S289,80.4,287.2,77l-1.5-2.7-1.9,1Z" fill="#f8a55d"/>
                  <path id="Trazado_875679" d="M285.8,74.4c1.8,3.4-4.8,10.5-14.8,15.9s-19.6,7.1-21.4,3.7,4.8-10.5,14.8-15.9S284,71,285.8,74.4" fill="#fdc363"/>
                  <path id="Trazado_875680" d="M282.7,76c1.5,2.8-4,8.7-12.3,13.2s-16.3,5.9-17.8,3.1,4-8.7,12.3-13.2,16.3-5.9,17.8-3.1" fill="#ffd685"/>
                  <path id="Trazado_875681" d="M257.7,95.3c7-7.5,13.9-15,20.9-22.5-.8.1-1.5.3-2.4.5-7,7.5-13.9,14.9-20.8,22.3a20.785,20.785,0,0,0,2.3-.3" fill="#ffd967"/>
                  <path id="Trazado_875682" d="M281.9,72.6h-2.5c-7,7.5-13.9,14.9-20.8,22.4a22.267,22.267,0,0,0,3.2-.9l20.1-21.6" fill="#ffd967"/>
                  <path id="Trazado_875683" d="M282.7,76c1.5,2.8-4,8.7-12.3,13.2s-16.3,5.9-17.8,3.1,4-8.7,12.3-13.2,16.3-5.9,17.8-3.1" fill="#ffd685"/>
                  <path id="Trazado_875684" d="M273.6,75.5a46.958,46.958,0,0,0-8.7,3.6c-8.3,4.5-13.8,10.4-12.3,13.2.6,1,2,1.5,3.9,1.5,5.7-6.1,11.3-12.2,17-18.3" fill="#ffd685"/>
                  <path id="Trazado_875685" d="M264.7,91.9a47.976,47.976,0,0,0,5.7-2.6c8.3-4.5,13.8-10.4,12.3-13.2a2.956,2.956,0,0,0-2.1-1.3L264.7,91.9" fill="#ffd685"/>
                  <path id="Trazado_875686" d="M253.4,92.3c-1.5-2.8,4-8.7,12.3-13.2,5.1-2.8,10.1-4.4,13.5-4.5-3.4-.1-8.8,1.5-14.4,4.5-8.3,4.5-13.8,10.4-12.3,13.2.6,1.1,2.1,1.5,4.3,1.4-1.7,0-2.9-.5-3.4-1.4" fill="#f9a855"/>
                  <path id="Trazado_875687" d="M265.2,80.9l2-1.1.3.6a19.635,19.635,0,0,1,4.6-1.7l-1.7,2.2a15.457,15.457,0,0,0-2.3.7l.7,1.2c3.3-1.4,5.2-1.6,5.7-.8q.3.6-.6,1.8a13.131,13.131,0,0,1-3.2,2.5l.4.7-2,1.1-.4-.7-.3.2a13.9,13.9,0,0,1-2.8,1.2,11.9,11.9,0,0,1-2.7.7l1.7-2.1a14.249,14.249,0,0,0,3.5-1.1l-.8-1.4a12.939,12.939,0,0,1-3.8,1.2c-1,.1-1.5,0-1.8-.5-.2-.4,0-1,.5-1.7a10.76,10.76,0,0,1,3.2-2.4l-.3-.6Zm1.4,2.7-.6-1c-.7.5-1,.9-.9,1.1.1.3.6.2,1.4,0m3,.3.6,1.1c.8-.5,1.1-.9,1-1.2s-.7-.2-1.6.1" fill="#fdc363"/>
                  <path id="Trazado_875688" d="M264.7,81.1l2-1.1.3.6a19.635,19.635,0,0,1,4.6-1.7l-1.7,2.2a15.457,15.457,0,0,0-2.3.7l.7,1.2c3.3-1.4,5.2-1.6,5.7-.8q.3.6-.6,1.8a13.131,13.131,0,0,1-3.2,2.5l.4.7-2,1.1-.4-.7-.3.2a13.9,13.9,0,0,1-2.8,1.2,11.9,11.9,0,0,1-2.7.7l1.7-2.1a14.249,14.249,0,0,0,3.5-1.1l-.8-1.4a12.939,12.939,0,0,1-3.8,1.2c-1,.1-1.5,0-1.8-.5-.2-.4,0-1,.5-1.7a10.76,10.76,0,0,1,3.2-2.4l-.3-.6Zm1.5,2.8-.6-1c-.7.5-1,.9-.9,1.1.1.3.6.2,1.4,0m2.9.2.6,1.1c.8-.5,1.1-.9,1-1.2s-.7-.2-1.6.1" fill="#f8a55d"/>
                  <path id="Trazado_875689" d="M265.2,80.9l2-1.1.3.6a19.635,19.635,0,0,1,4.6-1.7l-1.7,2.2a15.457,15.457,0,0,0-2.3.7l.7,1.2c3.3-1.4,5.2-1.6,5.7-.8q.3.6-.6,1.8a13.131,13.131,0,0,1-3.2,2.5l.4.7-2,1.1-.4-.7-.3.2a13.9,13.9,0,0,1-2.8,1.2,11.9,11.9,0,0,1-2.7.7l1.7-2.1a14.249,14.249,0,0,0,3.5-1.1l-.8-1.4a12.939,12.939,0,0,1-3.8,1.2c-1,.1-1.5,0-1.8-.5-.2-.4,0-1,.5-1.7a10.76,10.76,0,0,1,3.2-2.4l-.3-.6Zm1.4,2.7-.6-1c-.7.5-1,.9-.9,1.1.1.3.6.2,1.4,0m3,.3.6,1.1c.8-.5,1.1-.9,1-1.2s-.7-.2-1.6.1" fill="#fdc363"/>
                  <g id="Grupo_1119224" opacity="0.4">
                    <g id="Grupo_1119223">
                      <g id="Grupo_1119997" data-name="Grupo 1119997" clip-path="url(#clip-path-10)">
                        <g id="Grupo_1119222">
                          <path id="Trazado_875690" d="M259.5,93.4c5.8-6.2,11.6-12.4,17.4-18.7a20.481,20.481,0,0,0-2.4.5c-5.8,6.2-11.5,12.3-17.2,18.5a18.1,18.1,0,0,0,2.3-.3" fill="#fff3cd"/>
                        </g>
                      </g>
                    </g>
                  </g>
                  <g id="Grupo_1119227" opacity="0.4">
                    <g id="Grupo_1119226">
                      <g id="Grupo_1119998" data-name="Grupo 1119998" clip-path="url(#clip-path-11)">
                        <g id="Grupo_1119225">
                          <path id="Trazado_875691" d="M280,74.6h-2.4c-5.8,6.2-11.5,12.4-17.3,18.6,1.1-.3,2.2-.6,3.3-1,5.5-5.9,10.9-11.7,16.4-17.6" fill="#fff3cd"/>
                        </g>
                      </g>
                    </g>
                  </g>
                  <path id="Trazado_875692" d="M146.8,92.1c-3.7-9.5-5.9-9.8-8.9-13.9-4.4-6.1-13.5-11-14.5-6.3-.5,2.3,16.9,20.1,19.7,23.6,1.3-.6,2.2-2.5,3.7-3.4" fill="#e9b0b7"/>
                  <path id="Trazado_875693" d="M142.8,96.9c-2.4-2.9-12.2-14.6-13.2-15.6-5.9-6-8.7-8.6-6.4-12.2,2.6-4.1,9.9,2.2,14.9,7.6,3.3,3.6,4.8,5.6,9.3,13,.8,2.5-1.9,8-4.6,7.1" fill="#bac26a"/>
                  <path id="Trazado_875694" d="M117.9,42.8a6.729,6.729,0,0,0-4.4.8,13.355,13.355,0,0,1-1.8.7c-2.3.6-2.9,4.1-2.7,6.1a16.812,16.812,0,0,0,.9,3.2c.8,2.8,3.1,5.6,6.2,5.4a7.032,7.032,0,0,0,5.3-2.8c3.1-3.9,2.3-12.6-3.6-13.6" fill="#4c5066"/>
                  <path id="Trazado_875695" d="M144.1,95c-.8-.6-3-2.7-2.6-4.1.4-1.2,1-1.4,1-1.4a105.166,105.166,0,0,1,17.3-6.3c4.9-1.3,2.1,2.7,2.1,2.7-4.8,3-9.1,6.2-17.8,9.1" fill="#e9b0b7"/>
                  <path id="Trazado_875696" d="M161.7,81.6c-1,1.1-2,2.3-1.8,2.7h.3s-.3.2.1,0h.1a.909.909,0,0,0-.1,1.1c.8,1.3,2.8.2,3.8-.2a17.611,17.611,0,0,0,2.3-1.4c.8-.6,1.6-2.6.7-3.5s-1.7.9-2.4.2c-.4-.4.3-2-1-1-.2.2-1.2,1.2-2.1,2.2" fill="#e9b0b7"/>
                  <path id="Trazado_875697" d="M158.6,83.4A114.158,114.158,0,0,0,141.8,89c-.8,1.7,0,.7-.4,1.9-.4,1.4,1,5.5,1.8,6.1,7.8-2.6,12.8-7.2,17.1-9.9l-1.8-3.6Z" fill="#bac26a"/>
                  <path id="Trazado_875698" d="M158.7,88.2c.6-.4,1.2-.8,1.7-1.2l-1.8-3.6-2.1.6,2.1,4.2Z" fill="#bfc9ff"/>
                  <path id="Trazado_875699" d="M122.6,162.1s-2.8,7.1,2.9,30c.5,1.8,1.9,1.7,2.6,1.1a1.606,1.606,0,0,0,.5-1.1s2.7-26,2-29.3-8.1-.7-8.1-.7" fill="#e9b0b7"/>
                  <path id="Trazado_875700" d="M130,109.5H116.7v7.8c0,6.4,0,4.8.3,11.2.3,5.5,4.3,30.3,4.9,31.6s.3,3.8,1.5,4.8c1.8,1.6,5.4,2.5,7,.5,1-1.4.6-8.3.8-10.1a33.145,33.145,0,0,0,.2-4.4c.3-5.5-.1-11.1-.1-16.6a184.966,184.966,0,0,0-1.3-24.7" fill="#4c5066"/>
                  <path id="Trazado_875701" d="M136.4,194.4a14.921,14.921,0,0,1-2.1-.2,8.039,8.039,0,0,1-2.6-.9,21.11,21.11,0,0,1-2.7-1.8,1.439,1.439,0,0,1-.3-.2,3.309,3.309,0,0,1-3.2,0c-.1,0-.2-.1-.3-.2h-.1a1.689,1.689,0,0,0-.3,1,23.079,23.079,0,0,0-.3,3.7c.2.8,4.8,1.8,6.3,1.9a21.01,21.01,0,0,0,5.6-.1c2-.3,1.4-3.2-.1-3.4" fill="#374d7f"/>
                  <path id="Trazado_875702" d="M112.1,55.5c.5,1.2,2.7,2.4,2.9,1.2a6.219,6.219,0,0,0-.5-3.3c-.5-1.2-.4-1.4-1.4-.9a2.3,2.3,0,0,0-1,3" fill="#e9b0b7"/>
                  <path id="Trazado_875703" d="M115,57.7c.2-2.5,7.6,2.2,7.6,2.2l-.8,9.7s0-.4-3.7-.3c-2.2,0-3.6.8-3.5-1.3,0-1.3.3-9.4.4-10.2" fill="#e9b0b7"/>
                  <path id="Trazado_875704" d="M114.8,60.2c1.1,3.4,4.1,5.9,7.3,5.6l.5-5.9s-7.5-4.7-7.6-2.2v2.5" fill="#e69589"/>
                  <path id="Trazado_875705" d="M124.3,61.3c-2.1,1.7-6.3,1.2-8.1-.6a6.7,6.7,0,0,1-2-3.9c-.3-1.7-.1-3.3-.4-5a16.353,16.353,0,0,1-.2-2.2,6.1,6.1,0,0,1,1.2-3.4,8.642,8.642,0,0,1,2.9-2.1,7.19,7.19,0,0,1,2.8-1.3,2.523,2.523,0,0,1,1.7.6c3.1,1.9,4.7,6.3,4.8,9.9,0,2.6-.5,6.3-2.7,8.1" fill="#e9b0b7"/>
                  <path id="Trazado_875706" d="M115.1,52.5a40.309,40.309,0,0,0,3.2,2.6,3.6,3.6,0,0,0,4.4,0,5.436,5.436,0,0,1,4.3-.9c0,2.5-.7,5.5-2.7,7.1-2.1,1.7-6.3,1.2-8.1-.6a6.7,6.7,0,0,1-2-3.9c-.3-1.7-.2-3.3-.4-5a6.376,6.376,0,0,1,1.4.8" fill="#4c5066"/>
                  <path id="Trazado_875707" d="M113,161.3s2.8,7.1-2.9,30c-.5,1.8-1.9,1.7-2.6,1.1a1.606,1.606,0,0,1-.5-1.1s-1.4-26.5-.7-29.7,6.8-.2,6.8-.2" fill="#e9b0b7"/>
                  <path id="Trazado_875708" d="M106.1,109.5a4.923,4.923,0,0,0-.6,1.7,165.779,165.779,0,0,0-1.2,22.3c0,5.5.6,22.7.9,29.1.1,2.5,5.8,4.3,7.6,2.7a8.478,8.478,0,0,0,2.5-3.2c.6-1.3,2.6-30.8,3-36.3.4-6.4.4-2.9.4-9.3v-7H106.1Z" fill="#4c5066"/>
                  <path id="Trazado_875709" d="M125.4,106.7c.6-11.5,2.8-28.4,1.4-30-2.5-2.9,1.1-.7-.8-3-2.8-3.4-11.3-7-14.8-2.1-1.2,1.7-.1,5.4-.4,6.6-.6,2.8-.8,16.8-1.5,28l16.1.4Z" fill="#e9b0b7"/>
                  <path id="Trazado_875710" d="M127.4,68.3c-.6-.2-4.8-1.1-5.5-1.2-.9.8-1.9-.4-3.2-.4-1.4,0-2.9,1-3.8.3l-.1-.1c-.7,0,1.1,0,.4.2-1.8.2-7.3,2.8-8.4,3.5-4.7,2.9-3,7-2.9,8.7.3,4.4.7,39.5-.1,44.3h28.8c.5-.4-.7-39.2-1-44.8-.5-7.5-.2-9-3.9-10.3" fill="#d3df59"/>
                  <path id="Trazado_875711" d="M117.7,194.7a14.92,14.92,0,0,1-2.1-.2,8.039,8.039,0,0,1-2.6-.9,21.11,21.11,0,0,1-2.7-1.8,1.439,1.439,0,0,1-.3-.2,3.309,3.309,0,0,1-3.2,0c-.1,0-.2-.1-.3-.2h-.1a1.689,1.689,0,0,0-.3,1,23.079,23.079,0,0,0-.3,3.7c.2.8,4.8,1.8,6.3,1.9a26.22,26.22,0,0,0,5.6-.1c2-.3,1.4-3.2-.1-3.4" fill="#374d7f"/>
                  <path id="Trazado_875712" d="M129.4,192c.7-7.6,1.9-26.9,1.4-29.3-.7-3.2-8.1-.7-8.1-.7s-3.3,7.1,2.6,29.8l4.2.2Z" fill="#4c5066"/>
                  <path id="Trazado_875713" d="M110.7,192.1c4.7-20.5,5-32.3,5-32.3s-10.5-3.9-10.3,2.1c.1,2.5.4,22.4.8,30.3h4.5Z" fill="#4c5066"/>
                  <path id="Trazado_875714" d="M114.9,64.1l4.8,2.3-2.1,5-7.1-3.1s2.4-4,4.3-4.2" fill="#bfc9ff"/>
                  <path id="Trazado_875715" d="M119.7,66.4l2.9,4.4,2.2-2.9s-.8-2.6-2.6-2.9l-2.5,1.3Z" fill="#bfc9ff"/>
                  <path id="Trazado_875716" d="M127.1,41c0-1.2-.8-1.2-1.9-1.1-1,.2-2.1.4-3.1.5a13.167,13.167,0,0,1-3.4-.4,9.084,9.084,0,0,0-5.8,1.1c-2.7,1.4-4.3,6.1-3.9,9.2.2,1,.6.8,1.3,1.5a6.015,6.015,0,0,0,1.3.9H113c.2-.2.6.2.8.4.2.3.4.9.9.8s.6-.8.7-1.2a24.319,24.319,0,0,0,0-2.7c0-1.9,1.8-1.9,3.3-2.1,2.5-.5,4.8-.8,7-2.5a5.022,5.022,0,0,0,1.5-4.2" fill="#4c5066"/>
                  <path id="Trazado_875717" d="M198.2,84.5a31.3,31.3,0,1,1-31.3-31.3,31.283,31.283,0,0,1,31.3,31.3h0" fill="#5a5adb"/>
                  <path id="Trazado_875718" d="M195.7,84.5a28.8,28.8,0,1,1-28.8-28.8,28.807,28.807,0,0,1,28.8,28.8" fill="#4c5066"/>
                  <path id="Trazado_875719" d="M194.2,84.5a27.3,27.3,0,1,1-27.3-27.3,27.271,27.271,0,0,1,27.3,27.3" fill="#fff"/>
                  <rect id="Rectángulo_409265" width="1.8" height="6.4" transform="translate(166.1 59)" fill="#4c5066"/>
                  <rect id="Rectángulo_409266" width="1.8" height="6.4" transform="translate(166.1 102.9)" fill="#4c5066"/>
                  <rect id="Rectángulo_409267" width="6.4" height="1.8" transform="translate(185.7 83.3)" fill="#4c5066"/>
                  <rect id="Rectángulo_409268" width="6.4" height="1.8" transform="translate(141.8 83.3)" fill="#4c5066"/>
                  <rect id="Rectángulo_409269" width="6.4" height="1.8" transform="translate(179.556 70.328) rotate(-45)" fill="#4c5066"/>
                  <rect id="Rectángulo_409270" width="6.4" height="1.8" transform="translate(148.556 101.369) rotate(-45)" fill="#4c5066"/>
                  <rect id="Rectángulo_409271" width="1.8" height="6.4" transform="translate(179.547 98.025) rotate(-45)" fill="#4c5066"/>
                  <rect id="Rectángulo_409272" width="1.8" height="6.4" transform="translate(148.536 67.096) rotate(-45)" fill="#4c5066"/>
                  <path id="Trazado_875720" d="M166.9,91.9a1.155,1.155,0,0,1-1.2-1.2h0V72.1a1.2,1.2,0,0,1,2.4,0h0V90.8a1.155,1.155,0,0,1-1.2,1.2h0" fill="#4a6cb3"/>
                  <path id="Trazado_875721" d="M177,85.1H161.4a.9.9,0,0,1,0-1.8H177a.9.9,0,0,1,0,1.8" fill="#4a6cb3"/>
                  <path id="Trazado_875722" d="M165.4,84.5a1.5,1.5,0,1,1,1.5,1.5,1.538,1.538,0,0,1-1.5-1.5" fill="#5a5adb"/>
                  <path id="Trazado_875723" d="M124.3,99.1c-2.3-9.9-4.4-10.5-6.8-15-3.5-6.7-11.8-12.8-13.4-8.2-.8,2.2,13.9,22.3,16.1,26.2,1.4-.4,2.5-2.2,4.1-2.9" fill="#e9b0b7"/>
                  <path id="Trazado_875724" d="M121.2,101.6c-.8-.7-2.6-3.1-2-4.4.5-1.1,1.1-1.2,1.1-1.2a122.544,122.544,0,0,1,18-3.8c5-.6,1.7,2.9,1.7,2.9-5.2,2.3-9.9,4.9-18.9,6.5" fill="#e9b0b7"/>
                  <path id="Trazado_875725" d="M119.7,103.3c-2-3.2-10.7-15.1-11.5-16.3-5.4-8.6-6.9-10.7-4.1-13.9,3.2-3.7,9.5,3.5,13.7,9.6,2.7,4,4,6.2,7.4,14.2.4,2.6-3,7.6-5.6,6.4" fill="#bac26a"/>
                  <path id="Trazado_875726" d="M140.5,90.8c-1.2,1-2.3,2-2.1,2.5h.4s-.3.2.1,0h.1a1.128,1.128,0,0,0-.3,1.1c.6,1.4,2.7.6,3.8.3a11.176,11.176,0,0,0,2.5-1.1c.9-.5,1.9-2.4,1.1-3.3-.8-1-1.8.7-2.4-.1-.4-.4.6-2-.8-1.2a25.754,25.754,0,0,0-2.4,1.9" fill="#e9b0b7"/>
                  <path id="Trazado_875727" d="M137.2,92.2a113.415,113.415,0,0,0-17.4,3.2c-1.1,1.5,0,.6-.6,1.8-.6,1.4.2,5.6.9,6.3,8.1-1.5,13.7-5.3,18.3-7.4Z" fill="#bac26a"/>
                  <path id="Trazado_875728" d="M136.6,97c.6-.3,1.3-.6,1.9-.9l-1.2-3.9a15.17,15.17,0,0,0-2.1.3l1.5,4.5Z" fill="#bfc9ff"/>
                  <path id="Trazado_875729" d="M247.1,59.2a8.236,8.236,0,0,1,.4,3.5c-.2,1.9-1,3.6.5,5.1,1.6,1.6,2.6,2.2,2.7,4.6,0,1.9-.6,3.9-2.7,4.1-1.9.2-3.8-.9-5.6-.2-1.6.6-1.8,2.5-3.1,3.4-1.7,1.2-4.7.9-6.5.6-1.6-.3-3.8.1-5.2-.7-2.1-1.4-1.6-4.1-.8-6.1.9-2.4-.5-4.6-1.1-7a11.19,11.19,0,0,1,1.1-7.8c.7-1.4.4-2.8,1.2-4.2a10.411,10.411,0,0,1,3.1-3.8c3.2-2,8.3-1.1,10.9,1.5,1.9,1.9,4.1,4.3,5,6.9" fill="#4c5066"/>
                  <path id="Trazado_875730" d="M211.7,85.3c.7-.5,2.5-2.5,2-3.7-.4-1-.9-1.1-.9-1.1-2.8-1.1-5.7-2-8.6-2.9-.9-.3-3-1.3-4-1-1.2.3-1.9,2.1-2.4,3,.8,0,1.9.9,2.7,1.3,1,.5,2.1,1.1,3.1,1.5a55.653,55.653,0,0,0,8.1,2.9" fill="#e9b0b7"/>
                  <path id="Trazado_875731" d="M213.6,79.8c2.9-.6,6.7-.8,7.8-1.2,6.5-1.9,12.7-3.5,13.7-.5,1.1,3.4-5.7,6.5-11.3,7.9-4.9,1.2-8.5,1-13.8,1.2a12.368,12.368,0,0,1,3.6-7.4" fill="#5a5adb"/>
                  <path id="Trazado_875732" d="M239.6,62.8c-.2,1.1-1.8,2.5-2.2,1.6a5.663,5.663,0,0,1-.2-2.9c.2-1.1,0-1.2,1-1a1.915,1.915,0,0,1,1.4,2.3" fill="#e9b0b7"/>
                  <path id="Trazado_875733" d="M237.6,66.4c-.2-2.2-6.6,1.9-6.6,1.9l.7,8.4s0-.3,3.2-.3c1.9,0,3.6,0,3.5-1.8,0-1.1-.7-7.4-.8-8.1" fill="#e9b0b7"/>
                  <path id="Trazado_875734" d="M237.7,68.5c-.9,2.9-3.5,5.1-6.2,4.8l-.4-5.1s6.4-4.1,6.6-1.9a8.945,8.945,0,0,0,.2,1.9v.2" fill="#e69589"/>
                  <path id="Trazado_875735" d="M230.5,70c2.1,1,5.5-.2,6.7-2.2a6.016,6.016,0,0,0,.9-3.7,32.086,32.086,0,0,0-.7-4.3,6.279,6.279,0,0,0-.3-1.9,5.63,5.63,0,0,0-1.7-2.6,7.674,7.674,0,0,0-2.8-1.2,10.957,10.957,0,0,0-2.6-.6c-.6,0-.9.5-1.3.9-2.2,2.2-2.7,6.3-2,9.2.5,2.2,1.7,5.2,3.8,6.3" fill="#e9b0b7"/>
                  <path id="Trazado_875736" d="M228.6,122.4a25.093,25.093,0,0,0,2.4,9.3c4.7,12.4,8.1,24.1,10.1,27.5,2.2,3.7,8.6-2.9,8.6-2.9s-8.9-36.9-11-39.3-10.4,2.1-10.2,5.4" fill="#e9b0b7"/>
                  <path id="Trazado_875737" d="M228.6,122.4a25.093,25.093,0,0,0,2.4,9.3c4.7,12.4,8.1,24.1,10.1,27.5,2.2,3.7,9.2-1.4,9.2-1.4s-7.9-38.2-10-40.5-11.9,1.9-11.7,5.2" fill="#4c5066"/>
                  <path id="Trazado_875738" d="M242.3,164.2s1.6,5.3,14.4,21.1c1.7,2.1,2.4-.9,2.4-.9s-10-23.5-11.7-25.8-5.1,5.7-5.1,5.7" fill="#e9b0b7"/>
                  <path id="Trazado_875739" d="M246.7,177.2c-4.5-8.2-6.1-18.7-6.1-18.7s7.7-3.4,9.4-1.1c.9,1.1,4,7.9,6.9,14.5-2.3,1.1-10.2,5.3-10.2,5.3" fill="#4c5066"/>
                  <path id="Trazado_875740" d="M228.9,120.5a27.973,27.973,0,0,0-3.7,8.9,206.221,206.221,0,0,0-5.9,26.4c-.5,4.3,6.2,4.5,6.2,4.5s14.9-34.9,14.7-38-9.5-4.5-11.4-1.8" fill="#e9b0b7"/>
                  <path id="Trazado_875741" d="M219.5,164.1s-.9,5.7,4,25.4c.7,2.6,2.7,0,2.7,0s.8-22,.3-24.8-7-.6-7-.6" fill="#e9b0b7"/>
                  <path id="Trazado_875742" d="M217.8,181.8c-1.6-12.1.8-24.6.8-24.6s7.4.2,8,3c.3,1.6,2.9,15.3,3,21.6Z" fill="#4c5066"/>
                  <path id="Trazado_875743" d="M219.6,149.6a150.405,150.405,0,0,1,3.8-16.1,161.455,161.455,0,0,1,5.7-17c.6-1.5-.2-7.7.8-8.4,2.2-1.5,8,.3,11.1.9a5.076,5.076,0,0,1,1.8.9c1,.6,2.4,4.1,2.7,5.3A12.515,12.515,0,0,1,244,125c-1.4,2.2-2.6,4.4-3.9,6.6-1.1,1.9-2.4,3.6-3.5,5.5-2.4,4.3-4,8.9-5.8,13.5-.6,1.6-4.4,8.9-4.5,10,0,5.7-5.2-2.4-7-2.9-1-.3-1-.5-.9-1.6a21.3,21.3,0,0,1,.3-2.5c.2-1.4.4-2.8.7-4.2" fill="#4c5066"/>
                  <path id="Trazado_875744" d="M229.5,111c-.5-9.9-2.4-24.4-1.2-25.8,2.2-2.5,2.3-7.9,3.9-9.9,2.4-3,4.4-4.4,7.4,0,1,1.5,2.2,10.2,2.5,11.3.5,2.4.7,14.5,1.3,24.2l-13.9.3Z" fill="#e9b0b7"/>
                  <path id="Trazado_875745" d="M229.5,111c-.5-7.2-1-13.2-1.6-17.5-.2-1.3-.6-2.6-.8-3.8a8.805,8.805,0,0,1,.8-3.9l1.5-3.3c.5-1.1.8-2.2,1.2-3.3.1-.3.7-2.9,1-2.9,0,0,1.4-.1,1.9-.2a8.486,8.486,0,0,0,2.6-1.1,21.168,21.168,0,0,1,2.1-1.5,20.764,20.764,0,0,1,5,11.3c.2,1.4,0,22.9.4,25.9l-14.1.3Z" fill="#fff"/>
                  <path id="Trazado_875746" d="M230.7,97.8A41.435,41.435,0,0,1,232,84.7a48.31,48.31,0,0,1,4.8-10.3,11.318,11.318,0,0,1,1.3-1,20.764,20.764,0,0,1,5,11.3c.2,1.4,3.2,27.3,3.7,30.3L233,117.7c-.7-4.6-2.2-15.4-2.3-20" fill="#5a5adb"/>
                  <path id="Trazado_875747" d="M231.1,105c.3.3,3.5,1.7,4.1.4a120.194,120.194,0,0,0,5-13c1.8-5.5,2-12.3-1.5-12.8-3.1-.5-4.2,7.9-5.4,14.6-.3,1.4-1.1,3.1-2.1,7.6,0,0-.7,2.4-.1,3.3" fill="#e9b0b7"/>
                  <path id="Trazado_875748" d="M233,50.3a4.741,4.741,0,0,0-1,1,5.428,5.428,0,0,0-1.9,2.8,18.456,18.456,0,0,0-.4,2.3,3.733,3.733,0,0,0,1.5,3.5A5.7,5.7,0,0,0,234,61a2.271,2.271,0,0,1,1.6.6c.3.2.4.7.7.9,1,.8,1-.9,1.1-1.4,0,.3,0,0,.2-.6.4-1.5.4-2.8,1.2-4.1a4.53,4.53,0,0,0,.3-4.5c-.9-1.4-3.5-1.8-5-1.8a1.548,1.548,0,0,0-1.1.3" fill="#4c5066"/>
                  <path id="Trazado_875749" d="M216.8,191.1c.8-.1,1,0,1.8-.1a8.083,8.083,0,0,0,2.2-.7,11.354,11.354,0,0,0,2.3-1.5l.2-.2a2.8,2.8,0,0,0,2.8,0s.2-.1.2-.2h0a2.614,2.614,0,0,1,.3.8,17.2,17.2,0,0,1,.2,3.2c-.2.7-4.1,1.6-5.4,1.7a25.656,25.656,0,0,1-4.8,0c-1.7-.3-1.2-2.8.1-2.9" fill="#374d7f"/>
                  <path id="Trazado_875750" d="M250.6,188.5c.7-.4,1-.4,1.6-.8a6.549,6.549,0,0,0,1.8-1.5,17.683,17.683,0,0,0,1.6-2.2s.1-.2.2-.2a2.814,2.814,0,0,0,2.6-1,1.007,1.007,0,0,0,.1-.3h.1a1.794,1.794,0,0,1,.5.7,15.11,15.11,0,0,1,1.3,2.9c.1.7-3.3,2.9-4.5,3.5a24.109,24.109,0,0,1-4.5,1.6c-1.7.3-2.1-2.2-.9-2.8" fill="#374d7f"/>
                  <path id="Trazado_875751" d="M226.2,58.7a12.389,12.389,0,0,1,1.8-5.3,8.632,8.632,0,0,1,3.1-2.9,4.751,4.751,0,0,1,2.4-.6c.9,1.8-.8,4.2-1.6,5.8-.5,1.1-1.5,1.4-2.3,2.1a9.509,9.509,0,0,0-1.5,2,15.583,15.583,0,0,0-1.6,2c-.7-.3-.5-2.6-.4-3.3" fill="#4c5066"/>
                  <path id="Trazado_875752" d="M197.2,77.6a2.786,2.786,0,0,1,2.6-2.5c1.2,0,1.6,1.3,1.7,2.3.3,1.6.1,2.4-1.5,3.2-2.3,1.1-3.2-1.1-2.8-3" fill="#e9b0b7"/>
                  <path id="Trazado_875753" d="M221.9,109.9c2,8.6-2.8,20.8-2.8,20.8s-9.6-9.3-11.6-17.9.8-12.3,4.4-13.1,8,1.7,9.9,10.3" fill="#fcb62a"/>
                  <path id="Trazado_875754" d="M219,106.9c1.4,6-1.9,14.6-1.9,14.6s-6.7-6.6-8.1-12.6.6-8.7,3.1-9.2,5.6,1.2,7,7.2" fill="#f89e2b"/>
                  <path id="Trazado_875755" d="M192.6,75.8a99.693,99.693,0,0,0-1.8,25s.1,10.4,16.8-.3c0,0-3.1-18.7-15-24.7" fill="#ffd685"/>
                  <path id="Trazado_875756" d="M192.6,75.8s-.5,2.3-1,5.9a23.618,23.618,0,0,1,4.2,7.8c.9,3,1.3,6.6-.2,9.5a15.34,15.34,0,0,1-3.8,4.6c1.6,2,5.6,3.3,15.8-3.2,0,0-3.1-18.7-15-24.7" fill="#fbbd7f"/>
                  <path id="Trazado_875757" d="M218.7,70a100.307,100.307,0,0,1,12.7,21.7s4.5,9.4-15.2,7.1c0,0-5.4-18.1,2.6-28.8" fill="#ffd685"/>
                  <path id="Trazado_875758" d="M218.7,70a54.764,54.764,0,0,1,3.5,4.9,22.2,22.2,0,0,0-.3,8.9c.5,3.1,1.7,6.5,4.3,8.5a15.648,15.648,0,0,0,5.4,2.5c-.5,2.5-3.6,5.4-15.6,4,0,0-5.4-18.1,2.6-28.8" fill="#fbbd7f"/>
                  <path id="Trazado_875759" d="M218.4,68c3.9,17,.7,31.5-5.9,33s-16.2-9.6-20.1-26.7,4-34.5,5.9-35c2-.5,16.3,11.6,20.2,28.6" fill="#cd6b70"/>
                  <path id="Trazado_875760" d="M216.6,97.7c-6.6,1.5-16.2-9.6-20.1-26.7-2.9-12.3.5-24.9,3.3-31.1a4.418,4.418,0,0,0-1.6-.6c-1.8.4-9.8,17.9-5.9,35,3.9,17,13.5,28.2,20.1,26.7a6.774,6.774,0,0,0,4.2-3.4h-.1" fill="#cc5369"/>
                  <path id="Trazado_875761" d="M216.6,99.9a1.4,1.4,0,0,1-1,1.7h0l-6.5,1.5a1.4,1.4,0,0,1-1.7-1,1.453,1.453,0,0,1,1-1.7l6.5-1.5a1.4,1.4,0,0,1,1.7,1h0" fill="#4c5066"/>
                  <path id="Trazado_875762" d="M209.5,49.6c-5-6.6-10.2-10.5-11.4-10.2-1,.2-4.1,6.1-5.8,14.2,0,0,2.3.7,8.9-.8s8.2-3.2,8.2-3.2" fill="#ffd685"/>
                  <path id="Trazado_875763" d="M199.5,39.8a2.01,2.01,0,0,0-1.3-.4c-1,.2-4.1,6.1-5.8,14.2a7.8,7.8,0,0,0,3.4,0,47.647,47.647,0,0,1,3.7-13.9" fill="#fbbd7f"/>
                  <path id="Trazado_875764" d="M210.2,62.1A6.828,6.828,0,1,1,202,57a6.736,6.736,0,0,1,8.2,5.1h0" fill="#4c5066"/>
                  <path id="Trazado_875765" d="M209.1,62.3a5.749,5.749,0,1,1-6.9-4.3h0a5.745,5.745,0,0,1,6.9,4.3" fill="#b2e2f9"/>
                  <path id="Trazado_875766" d="M209.1,62.3a5.749,5.749,0,1,1-6.9-4.3h0a5.745,5.745,0,0,1,6.9,4.3" fill="#b2e2f9"/>
                  <path id="Trazado_875767" d="M208.6,61.1a1.421,1.421,0,0,0,.2.6,5.745,5.745,0,0,1-4.3,6.9,5.842,5.842,0,0,1-6.5-3.1,5.725,5.725,0,0,0,10.8-3.8c0-.2-.2-.4-.3-.6" fill="#009bd7"/>
                  <path id="Trazado_875768" d="M200.4,58.8A8.063,8.063,0,0,0,199,60l9.6,6a6.07,6.07,0,0,0,.5-1.8c-2.9-1.8-5.8-3.6-8.8-5.5" fill="#fff"/>
                  <path id="Trazado_875769" d="M198.4,61a5.024,5.024,0,0,0-.5,1.3c3.1,1.9,6.2,3.8,9.2,5.7a4.3,4.3,0,0,0,.9-1c-3.2-2-6.5-4-9.7-6" fill="#fff"/>
                  <path id="Trazado_875770" d="M212.5,90.6c2,8.8,2.5,16.2,1,16.6s-4.3-6.5-6.4-15.3-2.5-16.2-1-16.6,4.3,6.5,6.4,15.3" fill="#ffd685"/>
                  <path id="Trazado_875771" d="M202.4,42.7h0l.3.3.9.9a26.038,26.038,0,0,1,3,3.6l.9,1.2c.3.4.6.9.9,1.3q.9,1.35,1.8,3a34.123,34.123,0,0,1,1.7,3.3c.1.3.3.6.4.9l.4.9c.3.6.5,1.2.8,1.8a13.354,13.354,0,0,1,.7,1.8l.6,1.8.6,1.8.5,1.8a13.634,13.634,0,0,1,.4,1.7,9.362,9.362,0,0,0,.4,1.6A9.006,9.006,0,0,1,217,72l.3,1.5c.1.9.3,1.8.4,2.6a16.831,16.831,0,0,1,.2,2v1.7c.2.2,0,.4-.2.4a.366.366,0,0,1-.4-.4h0a10.623,10.623,0,0,0-.2-1.7,19.583,19.583,0,0,0-.3-2c-.1-.8-.3-1.6-.4-2.5a7.006,7.006,0,0,0-.3-1.4l-.3-1.5a9.364,9.364,0,0,0-.4-1.6c-.2-.5-.3-1.1-.5-1.7l-.5-1.7-.6-1.7a13.354,13.354,0,0,0-.7-1.8c-.3-.6-.5-1.2-.7-1.7a13.017,13.017,0,0,0-.8-1.7l-.4-.8a5.94,5.94,0,0,0-.4-.8c-.6-1.1-1.2-2.2-1.7-3.2-.6-1-1.2-2-1.8-2.8-.3-.4-.6-.9-.9-1.3l-.9-1.2a31.746,31.746,0,0,0-3-3.4l-.9-.9-.3-.3h0a.707.707,0,0,1,0-1.1c.4-.3.8-.4,1.1,0h0" fill="#fff"/>
                  <path id="Trazado_875772" d="M231.5,105.2c.8-.4,2.8-2.1,2.5-3.4-.2-1.1-.7-1.2-.7-1.2a93.9,93.9,0,0,0-14.5-6.4c-4.1-1.4-2,2.2-2,2.2,4,2.9,7.4,5.9,14.7,8.9" fill="#e9b0b7"/>
                  <path id="Trazado_875773" d="M230.9,99.4c.8-2.9,2.2-6.4,2.4-7.5,1.2-6.7,2.6-12.9,5.6-12.4,3.5.5,3.3,8,2,13.7-1.1,4.9-2.9,8-5,12.9a12.636,12.636,0,0,1-5-6.6" fill="#fff"/>
                  <path id="Trazado_875774" d="M215.3,89.6c-.1-.1-.3-.2-.4-.3a.631.631,0,0,0-.9,0,.563.563,0,0,0,0,.9c0,.2.2.3.3.5.3.2.6.5.9.7a1.38,1.38,0,0,1,.3.4,17.27,17.27,0,0,1-4.1-2,1.08,1.08,0,0,0-.7-.3c-.2,0-.4.2-.5.5-.2.4-.5.8-.7,1.2a1.4,1.4,0,0,0,.4,2.2,11.365,11.365,0,0,0,4.1,2.4c1.2.3,2.3.9,3.6,1.1a14.622,14.622,0,0,0,1.6-1.9c0-.3-.2-.5-.3-.8a10.927,10.927,0,0,0-.5-1.7,19.277,19.277,0,0,0-3-2.7" fill="#e9b0b7"/>
                </g>
              </g>
            </g>
          </g>
        </g>
      </g>
    </g>
  </g>
</svg>
