<svg id="img-10" xmlns="http://www.w3.org/2000/svg" xmlns:xlink="http://www.w3.org/1999/xlink" width="353" height="209" viewBox="0 0 353 209">
  <defs>
    <clipPath id="clip-path">
      <rect id="Rectángulo_409809" data-name="Rectángulo 409809" width="353" height="209" fill="none"/>
    </clipPath>
    <clipPath id="clip-path-2">
      <rect id="Rectángulo_409808" data-name="Rectángulo 409808" width="242.167" height="192.991" transform="translate(63.061 3.566)" fill="none"/>
    </clipPath>
    <clipPath id="clip-path-3">
      <rect id="Rectángulo_409767" data-name="Rectángulo 409767" width="75.734" height="2.117" transform="translate(134.033 120.898)" fill="none"/>
    </clipPath>
    <clipPath id="clip-path-5">
      <rect id="Rectángulo_409773" data-name="Rectángulo 409773" width="75.734" height="2.118" transform="translate(126.071 143.766)" fill="none"/>
    </clipPath>
    <clipPath id="clip-path-7">
      <rect id="Rectángulo_409779" data-name="Rectángulo 409779" width="75.734" height="2.118" transform="translate(131.015 166.619)" fill="none"/>
    </clipPath>
    <clipPath id="clip-path-8">
      <rect id="Rectángulo_409778" data-name="Rectángulo 409778" width="75.734" height="2.117" transform="translate(131.015 166.619)" fill="none"/>
    </clipPath>
    <clipPath id="clip-path-9">
      <rect id="Rectángulo_409781" data-name="Rectángulo 409781" width="39.352" height="32.525" transform="translate(82.965 32.49)" fill="none"/>
    </clipPath>
    <clipPath id="clip-path-11">
      <rect id="Rectángulo_409783" data-name="Rectángulo 409783" width="33.072" height="24.52" transform="translate(186.796 114.492)" fill="none"/>
    </clipPath>
    <clipPath id="clip-path-12">
      <rect id="Rectángulo_409782" data-name="Rectángulo 409782" width="33.066" height="24.52" transform="translate(186.8 114.492)" fill="none"/>
    </clipPath>
    <clipPath id="clip-path-13">
      <rect id="Rectángulo_409785" data-name="Rectángulo 409785" width="18.105" height="21.468" transform="translate(174.859 80.334)" fill="none"/>
    </clipPath>
    <clipPath id="clip-path-14">
      <rect id="Rectángulo_409784" data-name="Rectángulo 409784" width="18.102" height="21.467" transform="translate(174.86 80.335)" fill="none"/>
    </clipPath>
    <clipPath id="clip-path-15">
      <rect id="Rectángulo_409787" data-name="Rectángulo 409787" width="4.318" height="28.881" transform="translate(218.208 86.64)" fill="none"/>
    </clipPath>
    <clipPath id="clip-path-16">
      <rect id="Rectángulo_409786" data-name="Rectángulo 409786" width="4.316" height="28.88" transform="translate(218.208 86.641)" fill="none"/>
    </clipPath>
    <clipPath id="clip-path-17">
      <rect id="Rectángulo_409789" data-name="Rectángulo 409789" width="33.28" height="20.628" transform="translate(186.015 103.287)" fill="none"/>
    </clipPath>
    <clipPath id="clip-path-18">
      <rect id="Rectángulo_409788" data-name="Rectángulo 409788" width="33.28" height="20.624" transform="translate(186.015 103.289)" fill="none"/>
    </clipPath>
    <clipPath id="clip-path-19">
      <rect id="Rectángulo_409791" data-name="Rectángulo 409791" width="3.865" height="3.762" transform="translate(201.671 69.893)" fill="none"/>
    </clipPath>
    <clipPath id="clip-path-20">
      <rect id="Rectángulo_409790" data-name="Rectángulo 409790" width="3.865" height="3.761" transform="translate(201.671 69.894)" fill="none"/>
    </clipPath>
    <clipPath id="clip-path-21">
      <rect id="Rectángulo_409793" data-name="Rectángulo 409793" width="11.614" height="11.106" transform="translate(197.572 61.052)" fill="none"/>
    </clipPath>
    <clipPath id="clip-path-23">
      <rect id="Rectángulo_409795" data-name="Rectángulo 409795" width="5.768" height="33.886" transform="translate(196.72 129.964)" fill="none"/>
    </clipPath>
    <clipPath id="clip-path-24">
      <rect id="Rectángulo_409794" data-name="Rectángulo 409794" width="5.767" height="33.886" transform="translate(196.721 129.964)" fill="none"/>
    </clipPath>
    <clipPath id="clip-path-25">
      <rect id="Rectángulo_409797" data-name="Rectángulo 409797" width="12.89" height="20.91" transform="translate(124.095 144.764)" fill="none"/>
    </clipPath>
    <clipPath id="clip-path-27">
      <rect id="Rectángulo_409799" data-name="Rectángulo 409799" width="24.829" height="29.673" transform="translate(107.159 81.962)" fill="none"/>
    </clipPath>
    <clipPath id="clip-path-28">
      <rect id="Rectángulo_409798" data-name="Rectángulo 409798" width="24.815" height="29.671" transform="translate(107.173 81.962)" fill="none"/>
    </clipPath>
    <clipPath id="clip-path-29">
      <rect id="Rectángulo_409801" data-name="Rectángulo 409801" width="13.26" height="15.645" transform="translate(133.987 93.969)" fill="none"/>
    </clipPath>
    <clipPath id="clip-path-30">
      <rect id="Rectángulo_409800" data-name="Rectángulo 409800" width="13.259" height="15.645" transform="translate(133.988 93.969)" fill="none"/>
    </clipPath>
    <clipPath id="clip-path-31">
      <rect id="Rectángulo_409803" data-name="Rectángulo 409803" width="29.165" height="31.7" transform="translate(111.674 119.045)" fill="none"/>
    </clipPath>
    <clipPath id="clip-path-32">
      <rect id="Rectángulo_409802" data-name="Rectángulo 409802" width="29.165" height="31.699" transform="translate(111.674 119.045)" fill="none"/>
    </clipPath>
    <clipPath id="clip-path-33">
      <rect id="Rectángulo_409805" data-name="Rectángulo 409805" width="21.263" height="21.741" transform="translate(114.993 91.607)" fill="none"/>
    </clipPath>
    <clipPath id="clip-path-34">
      <rect id="Rectángulo_409804" data-name="Rectángulo 409804" width="21.263" height="21.739" transform="translate(114.993 91.608)" fill="none"/>
    </clipPath>
    <clipPath id="clip-path-35">
      <rect id="Rectángulo_409807" data-name="Rectángulo 409807" width="23.209" height="19.393" transform="translate(113.347 88.257)" fill="none"/>
    </clipPath>
    <clipPath id="clip-path-36">
      <rect id="Rectángulo_409806" data-name="Rectángulo 409806" width="23.209" height="19.39" transform="translate(113.347 88.257)" fill="none"/>
    </clipPath>
  </defs>
  <g id="Grupo_1120088" data-name="Grupo 1120088" clip-path="url(#clip-path)">
    <g id="Grupo_1120087" data-name="Grupo 1120087">
      <g id="Grupo_1120086" data-name="Grupo 1120086" clip-path="url(#clip-path-2)">
        <path id="Trazado_907041" data-name="Trazado 907041" d="M289.038,117.573a19.71,19.71,0,0,1,2.806-12.757c3.817-6.559,10.486-9.659,12.189-17.136a40.7,40.7,0,0,0-.957-22.96C298.8,52.986,286.64,43.583,273.837,44.7c-8.885.775-16.56,6.123-25.005,8.906a44.979,44.979,0,0,1-38.6-5.345c-9.592-6.521-16.3-16.727-26.664-22.026-13.884-7.1-32.035-3.321-43.607,6.952a44.6,44.6,0,0,0-13.807,23.092C124.968,61.4,124.719,66.7,123.3,71.756c-3.98,14.166-16.337,24.366-27.646,34.147S72.786,127.275,71.415,141.9c-.888,9.463,2.786,18.924,8.413,26.71a112.651,112.651,0,0,0,20.692,21.3H273.327c.024-3.045.081-6.228,1.559-8.916a14.778,14.778,0,0,1,3.815-4.232c3.8-3.06,8.567-4.217,12.393-6.952a30.1,30.1,0,0,0,8.607-9.785c4.966-8.975,2.442-19.737-2.849-28.145-2.656-4.222-6.235-8.056-7.5-12.844a14.505,14.505,0,0,1-.307-1.46" fill="#fff1de"/>
        <path id="Trazado_907042" data-name="Trazado 907042" d="M296.257,188.088H68.223a1.54,1.54,0,1,0-.078,3.079H296.257a1.54,1.54,0,1,0,.078-3.079h-.078" fill="#476b77"/>
        <path id="Trazado_907043" data-name="Trazado 907043" d="M242.954,159.051S225.6,107.093,271,77.766c22.787-11.46,35.609,2.375,29.891,16.586s-39.661,27.463-48.926,63.891c-1.13,4.849-7.219,8.242-9.015.808" fill="#476b77"/>
        <path id="Trazado_907044" data-name="Trazado 907044" d="M225.552,156.008S203.087,80.514,236.744,29.121c18.23-24.89,46.8.615,38.644,18.32S238.047,108.917,238.1,154.263c-.5,7.767-10.183,11.347-12.545,1.742" fill="#d4e157"/>
        <path id="Trazado_907045" data-name="Trazado 907045" d="M295.675,90.763a38.014,38.014,0,0,1-12.825-2.739,59.184,59.184,0,0,1,5.88-4.111.455.455,0,0,0,.178-.616l-.01-.016a.488.488,0,0,0-.654-.163,61.292,61.292,0,0,0-6.48,4.571.461.461,0,0,0-.275.218c-1.15.916-2.406,1.964-3.739,3.147a38.411,38.411,0,0,1-2.989-10.884.5.5,0,0,0-.534-.4.467.467,0,0,0-.413.515v0a38.077,38.077,0,0,0,3.2,11.426q-1.65,1.491-3.4,3.246a.467.467,0,0,0-.255.166.451.451,0,0,0-.078.171c-1.145,1.158-2.315,2.4-3.495,3.725a38.586,38.586,0,0,1-4.218-10.247.479.479,0,0,0-.569-.352.463.463,0,0,0-.365.542l0,.009a38.925,38.925,0,0,0,4.5,10.8c-1.631,1.874-3.274,3.907-4.887,6.107a.457.457,0,0,0-.215.16.44.44,0,0,0-.072.236q-1.3,1.79-2.562,3.717c-1.175-1.249-4.961-5.538-6.268-10.252a.477.477,0,0,0-.585-.327.462.462,0,0,0-.338.561v.005c1.455,5.245,5.7,9.829,6.667,10.829-1.288,2.02-2.537,4.151-3.72,6.4a.451.451,0,0,0-.172.2.441.441,0,0,0-.032.2q-.686,1.318-1.339,2.688c-1.292-1.1-5.231-4.682-6.748-8.6a.48.48,0,0,0-.615-.27.458.458,0,0,0-.283.583l0,.011c1.711,4.413,6.167,8.274,7.23,9.152-1.008,2.176-1.951,4.448-2.811,6.818a.459.459,0,0,0-.123.225.515.515,0,0,0,0,.111q-1.049,2.925-1.919,6.046c-1.269-.631-4.7-2.486-6.172-4.775a.488.488,0,0,0-.657-.149.454.454,0,0,0-.161.623l.008.013c1.7,2.639,5.573,4.644,6.734,5.2-.674,2.538-1.249,5.171-1.708,7.9a.483.483,0,0,0-.018.119q-.316,1.9-.557,3.862l-4.471-3.911a.494.494,0,0,0-.674.034.452.452,0,0,0,.021.64l.014.013,4.986,4.362c-.279,2.577-.461,5.228-.52,7.965a.469.469,0,0,0,.466.472h.056a.469.469,0,0,0,.433-.45,89.917,89.917,0,0,1,1.149-12.571l5.364-.944a.463.463,0,0,0,.384-.53v-.007a.484.484,0,0,0-.554-.372l-5.031.885a85.4,85.4,0,0,1,3.663-13.933,51.026,51.026,0,0,0,9.486.536h.018a.462.462,0,1,0-.067-.921,49.847,49.847,0,0,1-9.118-.5,85.79,85.79,0,0,1,4.3-9.748,33.974,33.974,0,0,0,10.357,2.174h.044a.462.462,0,0,0-.046-.922,33.282,33.282,0,0,1-9.92-2.08,89.132,89.132,0,0,1,6.473-10.39c1.586.952,7.029,3.963,12.566,4h.047a.462.462,0,0,0-.042-.922c-5.179-.031-10.448-2.9-12.018-3.831a93.986,93.986,0,0,1,8.7-10.171,26.359,26.359,0,0,0,14.013,4.064h.029a.462.462,0,0,0-.044-.923h-.015c-6.223.188-11.657-2.812-13.3-3.822a92.479,92.479,0,0,1,7.472-6.671,38.5,38.5,0,0,0,13.648,3h.052a.461.461,0,0,0-.038-.922" fill="#fff"/>
        <path id="Trazado_907046" data-name="Trazado 907046" d="M243.93,104.357a18.7,18.7,0,0,1-11.113,1.472c.854-6.118,1.983-12.011,3.289-17.6.5.078,1.246.175,2.2.232a27.937,27.937,0,0,0,11.517-1.726.631.631,0,0,0,.378-.807l-.007-.018a.663.663,0,0,0-.852-.359,26.847,26.847,0,0,1-12.933,1.431c1.851-7.713,4.019-14.832,6.221-21.153a38.379,38.379,0,0,0,5.6.728,43.636,43.636,0,0,0,11.66-.847.635.635,0,0,0,.5-.746l0-.012a.651.651,0,0,0-.783-.484,42.574,42.574,0,0,1-16.549.146c2.552-7.193,5.122-13.3,7.269-18,.523.073,1.394.175,2.526.244a36.247,36.247,0,0,0,16.2-2.579.626.626,0,0,0,.341-.817l-.01-.023a.664.664,0,0,0-.868-.32c-7.247,3.148-15.074,2.577-17.627,2.278,2.75-5.919,4.684-9.321,4.762-9.454a.628.628,0,0,0-.234-.857l-.018-.01a.673.673,0,0,0-.9.245c-.081.14-2.172,3.816-5.1,10.187a.621.621,0,0,0-.145.284v.031c-.934,2.04-1.95,4.346-3.013,6.9-1.852-.811-8.054-3.859-11.653-9.714a.674.674,0,0,0-.9-.221.626.626,0,0,0-.24.852l.012.02c3.853,6.268,10.348,9.415,12.293,10.249-1.326,3.234-2.711,6.826-4.088,10.735a.634.634,0,0,0-.158.263.589.589,0,0,0-.015.229c-1,2.863-2,5.892-2.96,9.065A41.458,41.458,0,0,1,227.5,65.44a.672.672,0,0,0-.926-.073.623.623,0,0,0-.1.874l.022.026a42.057,42.057,0,0,0,11.656,9.173c-1.1,3.7-2.153,7.594-3.117,11.648a.641.641,0,0,0-.127.249.6.6,0,0,0,0,.272q-1.119,4.755-2.054,9.787a43.676,43.676,0,0,1-9.153-6.3.674.674,0,0,0-.929.019.621.621,0,0,0,0,.878l.023.022a44.591,44.591,0,0,0,9.826,6.7,184.264,184.264,0,0,0-2.382,19.035,43.758,43.758,0,0,1-6.986-3.664.674.674,0,0,0-.923.108.622.622,0,0,0,.089.875l.023.018a47.315,47.315,0,0,0,7.709,4.019q-.325,5.158-.33,10.452a.6.6,0,0,0-.014.206c0,.014.009.028.014.041q.009,4.8.321,9.672a11.356,11.356,0,0,1-4.26-1.892.679.679,0,0,0-.929.044.623.623,0,0,0,.024.881l.021.019a13.358,13.358,0,0,0,5.239,2.286c.228,3.056.548,6.129.98,9.215a.648.648,0,0,0,.609.55.706.706,0,0,0,.13,0,.64.64,0,0,0,.565-.707v-.008a146.43,146.43,0,0,1-1.385-19.637,28,28,0,0,0,6.041-1.6.629.629,0,0,0,.342-.821l-.008-.019a.668.668,0,0,0-.868-.322,26.366,26.366,0,0,1-5.507,1.475,170.6,170.6,0,0,1,1.512-21.838,15.757,15.757,0,0,0,2.132.264,20.213,20.213,0,0,0,9.727-1.857.626.626,0,0,0,.315-.827l-.01-.022a.663.663,0,0,0-.877-.3" fill="#fff"/>
        <path id="Trazado_907047" data-name="Trazado 907047" d="M251.868,85.03s9.569-21.423,12.622-29.377c-2.044-2.176-8.894-2-14.019,2.535S246.726,54.3,237.726,54.3s-8.6,5.516-11.224,5.516S215.026,54.3,211.092,54.3c2.5,7.5,12.918,30.73,12.918,30.73Z" fill="#bfc9ff"/>
        <path id="Trazado_907048" data-name="Trazado 907048" d="M263.949,55.205c-2.553,4.242-13.432,21.987-16.736,21.987H220.54c1.984,4.526,3.47,7.838,3.47,7.838h27.858s9.569-21.423,12.623-29.377a3.1,3.1,0,0,0-.542-.447" fill="#b0c0d2"/>
        <path id="Trazado_907049" data-name="Trazado 907049" d="M290.8,145.471c-1.4-34.945-38.932-60.442-38.932-60.442H224.009s-37.532,25.5-38.932,60.442,30.16,44.156,52.861,44.156,54.261-9.211,52.861-44.156" fill="#bfc9ff"/>
        <path id="Trazado_907050" data-name="Trazado 907050" d="M253.623,81.994H222.132a3.054,3.054,0,0,0,0,6.07h31.491a3.053,3.053,0,0,0,0-6.07" fill="#476b77"/>
        <path id="Trazado_907051" data-name="Trazado 907051" d="M211.827,117.617a2.812,2.812,0,0,1-2.809-2.375,2.766,2.766,0,0,1,2.391-3.1l.036,0c5.851-.778,9.818-6.788,10.106-15.312.15-4.462,1.232-9.769,5.15-12.633a5.569,5.569,0,0,1,3.5-1.344c2.153.151,2.528,2.54,1.935,4.169a2.52,2.52,0,0,1-1.378,1.515,3.371,3.371,0,0,0-2.089,1.867,15.14,15.14,0,0,0-1.444,6.606c-.384,11.339-6.275,19.417-15.009,20.577a2.994,2.994,0,0,1-.39.026" fill="#476b77"/>
        <path id="Trazado_907052" data-name="Trazado 907052" d="M202.222,111.583a2.814,2.814,0,0,1-2.8-2.317,2.761,2.761,0,0,1,2.32-3.141l.038,0c6.16-.949,8.617-5.812,11.462-11.443.425-.842.851-1.686,1.292-2.519,4.107-7.77,12.6-9.532,12.959-9.6a2.837,2.837,0,0,1,3.351,2.141,2.751,2.751,0,0,1-2.163,3.234l-.037.007c-.119.026-6.229,1.378-9.055,6.725-.424.8-.835,1.617-1.245,2.43-3.093,6.121-6.6,13.059-15.672,14.457a2.946,2.946,0,0,1-.45.034" fill="#476b77"/>
        <path id="Trazado_907053" data-name="Trazado 907053" d="M280.255,114.538c-5.563,17.792-27.013,66.48-92,49.895,8.447,19.481,31.806,25.194,49.678,25.194,22.7,0,54.26-9.211,52.862-44.156-.462-11.533-4.86-22.035-10.545-30.933" fill="#b0c0d2"/>
        <path id="Trazado_907054" data-name="Trazado 907054" d="M234.509,164.1a41.908,41.908,0,0,1-14.476-3.254V149.816a50.346,50.346,0,0,0,8.645,3.271,30.816,30.816,0,0,0,8.2,1.311,10.033,10.033,0,0,0,4.271-.681,2.352,2.352,0,0,0,1.355-2.275,2.287,2.287,0,0,0-.978-1.859,15.276,15.276,0,0,0-3.259-1.727q-2.281-.963-6.157-2.324a28.219,28.219,0,0,1-7.033-3.5,12.344,12.344,0,0,1-3.893-4.35,13.212,13.212,0,0,1-1.224-5.994,10.637,10.637,0,0,1,3.636-8.567q3.636-3.089,10.909-3.819v-4.549h7.1v4.483a41.356,41.356,0,0,1,13.756,3.254l-4.082,9.463a32.872,32.872,0,0,0-12.933-3.122,8.236,8.236,0,0,0-3.859.648,2.079,2.079,0,0,0-1.115,1.909,2.313,2.313,0,0,0,.806,1.81,11.4,11.4,0,0,0,2.8,1.594q1.99.88,5.524,2.042,7.169,2.459,10.291,5.6a10.972,10.972,0,0,1,3.122,8.085,11.965,11.965,0,0,1-3.654,9.065q-3.652,3.487-10.651,4.317v6.408h-7.1Z" fill="#4a4f1e"/>
        <path id="Trazado_907055" data-name="Trazado 907055" d="M180.143,61.054c0,10.842-9.079,19.63-20.28,19.63s-20.28-8.789-20.28-19.63,9.08-19.63,20.28-19.63,20.28,8.789,20.28,19.63" fill="#ffea00"/>
        <path id="Trazado_907056" data-name="Trazado 907056" d="M176.077,61.052a16.223,16.223,0,1,1-16.743-15.685c.176-.006.353-.009.529-.009a15.961,15.961,0,0,1,16.214,15.694" fill="#f8b500"/>
        <path id="Trazado_907057" data-name="Trazado 907057" d="M158.561,69.241a15.905,15.905,0,0,1-5.5-1.236V63.82a19.137,19.137,0,0,0,3.282,1.241,11.69,11.69,0,0,0,3.112.5,3.792,3.792,0,0,0,1.622-.259.893.893,0,0,0,.514-.863.867.867,0,0,0-.371-.706,5.8,5.8,0,0,0-1.237-.656q-.865-.366-2.338-.882a10.715,10.715,0,0,1-2.67-1.33,4.68,4.68,0,0,1-1.478-1.651,5.018,5.018,0,0,1-.462-2.276,4.037,4.037,0,0,1,1.38-3.252,7.471,7.471,0,0,1,4.142-1.45V50.5h2.7v1.7a15.69,15.69,0,0,1,5.223,1.236l-1.55,3.593a12.472,12.472,0,0,0-4.91-1.186,3.131,3.131,0,0,0-1.465.246.79.79,0,0,0-.423.725.878.878,0,0,0,.306.687,4.345,4.345,0,0,0,1.061.606q.756.334,2.1.775a10.233,10.233,0,0,1,3.907,2.124,4.167,4.167,0,0,1,1.185,3.07,4.54,4.54,0,0,1-1.387,3.441,6.864,6.864,0,0,1-4.044,1.639v2.433h-2.7Z" fill="#ffea00"/>
        <path id="Trazado_907058" data-name="Trazado 907058" d="M160.735,43.463a.873.873,0,1,1-.9-.845h.028A.859.859,0,0,1,160.735,43.463Z" fill="#f8b500"/>
        <path id="Trazado_907059" data-name="Trazado 907059" d="M173.329,49.213a.9.9,0,0,1-1.234,0,.826.826,0,0,1-.026-1.169c.009-.009.017-.018.026-.026a.9.9,0,0,1,1.234,0,.826.826,0,0,1,.026,1.169c-.009.009-.017.018-.026.026" fill="#f8b500"/>
        <path id="Trazado_907060" data-name="Trazado 907060" d="M178.036,61.9a.845.845,0,1,1,.873-.845.858.858,0,0,1-.871.845h0" fill="#f8b500"/>
        <path id="Trazado_907061" data-name="Trazado 907061" d="M172.1,74.088a.826.826,0,0,1-.026-1.169l.026-.026a.9.9,0,0,1,1.234,0,.826.826,0,0,1,.026,1.169c-.009.009-.017.018-.026.026a.893.893,0,0,1-1.234,0" fill="#f8b500"/>
        <path id="Trazado_907062" data-name="Trazado 907062" d="M158.99,78.638a.873.873,0,1,1,.9.845h-.028A.859.859,0,0,1,158.99,78.638Z" fill="#f8b500"/>
        <path id="Trazado_907063" data-name="Trazado 907063" d="M146.4,72.893a.9.9,0,0,1,1.234,0,.826.826,0,0,1,.026,1.169c-.009.009-.017.018-.026.026a.9.9,0,0,1-1.234,0,.825.825,0,0,1-.029-1.166c.01-.01.019-.02.029-.029" fill="#f8b500"/>
        <path id="Trazado_907064" data-name="Trazado 907064" d="M141.691,60.206a.845.845,0,1,1-.873.845A.859.859,0,0,1,141.691,60.206Z" fill="#f8b500"/>
        <path id="Trazado_907065" data-name="Trazado 907065" d="M147.63,48.018a.825.825,0,0,1,.029,1.166l-.029.029a.9.9,0,0,1-1.234,0,.826.826,0,0,1-.026-1.169c.009-.009.017-.018.026-.026a.9.9,0,0,1,1.234,0" fill="#f8b500"/>
        <path id="Trazado_907066" data-name="Trazado 907066" d="M210.978,31.69a15.6,15.6,0,0,1-31.174,0,15.6,15.6,0,0,1,31.174,0" fill="#ffea00"/>
        <path id="Trazado_907067" data-name="Trazado 907067" d="M207.853,31.69a12.469,12.469,0,0,1-24.925,0,12.469,12.469,0,0,1,24.925,0" fill="#f8b500"/>
        <path id="Trazado_907068" data-name="Trazado 907068" d="M194.39,37.984a12.215,12.215,0,0,1-4.224-.949V33.822a14.768,14.768,0,0,0,2.523.954,8.981,8.981,0,0,0,2.392.383,2.915,2.915,0,0,0,1.246-.2.686.686,0,0,0,.4-.663.668.668,0,0,0-.285-.543,4.451,4.451,0,0,0-.951-.5q-.664-.28-1.8-.678a8.286,8.286,0,0,1-2.052-1.022,3.6,3.6,0,0,1-1.136-1.27,3.848,3.848,0,0,1-.357-1.761,3.1,3.1,0,0,1,1.06-2.5,5.739,5.739,0,0,1,3.184-1.114V23.585h2.072v1.308a12.061,12.061,0,0,1,4.014.95L199.284,28.6a9.584,9.584,0,0,0-3.774-.911,2.39,2.39,0,0,0-1.126.189.608.608,0,0,0-.325.557.673.673,0,0,0,.235.528,3.3,3.3,0,0,0,.816.465q.58.257,1.612.6a7.84,7.84,0,0,1,3,1.633,3.2,3.2,0,0,1,.911,2.359,3.493,3.493,0,0,1-1.066,2.646,5.279,5.279,0,0,1-3.109,1.26V39.8h-2.072Z" fill="#ffea00"/>
        <path id="Trazado_907069" data-name="Trazado 907069" d="M196.062,18.17a.671.671,0,1,1-.693-.649h.022A.66.66,0,0,1,196.062,18.17Z" fill="#f8b500"/>
        <path id="Trazado_907070" data-name="Trazado 907070" d="M205.745,22.59a.687.687,0,0,1-.948,0,.635.635,0,0,1-.022-.9l.022-.022a.687.687,0,0,1,.948,0,.634.634,0,0,1,.02.9c-.006.007-.013.013-.02.02" fill="#f8b500"/>
        <path id="Trazado_907071" data-name="Trazado 907071" d="M209.358,32.339a.649.649,0,1,1,.671-.649A.66.66,0,0,1,209.358,32.339Z" fill="#f8b500"/>
        <path id="Trazado_907072" data-name="Trazado 907072" d="M204.793,41.709a.635.635,0,0,1-.02-.9l.02-.02a.687.687,0,0,1,.948,0,.635.635,0,0,1,.022.9l-.022.022a.687.687,0,0,1-.948,0" fill="#f8b500"/>
        <path id="Trazado_907073" data-name="Trazado 907073" d="M194.721,45.209a.671.671,0,1,1,.693.649h-.022A.66.66,0,0,1,194.721,45.209Z" fill="#f8b500"/>
        <path id="Trazado_907074" data-name="Trazado 907074" d="M185.041,40.791a.687.687,0,0,1,.948,0,.635.635,0,0,1,.022.9l-.022.022a.687.687,0,0,1-.948,0,.635.635,0,0,1-.02-.9c.006-.007.013-.013.02-.02" fill="#f8b500"/>
        <path id="Trazado_907075" data-name="Trazado 907075" d="M181.425,31.041a.649.649,0,1,1-.671.649A.66.66,0,0,1,181.425,31.041Z" fill="#f8b500"/>
        <path id="Trazado_907076" data-name="Trazado 907076" d="M185.989,21.667a.635.635,0,0,1,.02.9c-.006.007-.013.013-.02.02a.687.687,0,0,1-.948,0,.635.635,0,0,1-.022-.9l.022-.022a.687.687,0,0,1,.948,0" fill="#f8b500"/>
        <path id="Trazado_907077" data-name="Trazado 907077" d="M127.2,188.947s-3.515-41.4-44.261-49.141c-19.466-1.6-24.29,11.748-15.977,20.11s36.153,8.057,53.667,31.016c2.259,3.085,7.56,3.744,6.575-1.985" fill="#476b77"/>
        <path id="Trazado_907078" data-name="Trazado 907078" d="M138.51,184.354s2.263-53.826-28.8-82.75c-16.33-13.7-31.066,7.786-22.657,18.3s35.211,35.055,42.808,65.271c1.641,5.094,8.692,5.952,8.649-.818" fill="#476b77"/>
        <path id="Trazado_907079" data-name="Trazado 907079" d="M69.54,155.917a28.121,28.121,0,0,0,8.179-5.554,46.1,46.1,0,0,0-5.371-1.222.354.354,0,0,1-.311-.392v-.008a.363.363,0,0,1,.41-.3,48.211,48.211,0,0,1,5.932,1.375.367.367,0,0,1,.259.076c1.085.317,2.284.7,3.577,1.151a29.067,29.067,0,0,0-1.189-8.489.362.362,0,0,1,.7-.185,28.742,28.742,0,0,1,1.206,8.93c1.07.388,2.2.825,3.372,1.315a.366.366,0,0,1,.229.045.337.337,0,0,1,.106.1q1.732.733,3.58,1.627a28.918,28.918,0,0,0-.134-8.391.352.352,0,0,1,.289-.407h0a.362.362,0,0,1,.421.284,29.173,29.173,0,0,1,.106,8.854c1.712.855,3.479,1.818,5.277,2.906a.353.353,0,0,1,.2.052.34.34,0,0,1,.122.146q1.451.89,2.922,1.885a20.584,20.584,0,0,0,1.3-8.974.354.354,0,0,1,.3-.4h.011a.362.362,0,0,1,.408.3,21.183,21.183,0,0,1-1.409,9.493c1.515,1.054,3.036,2.2,4.546,3.441a.328.328,0,0,1,.263.218q.879.732,1.752,1.509c.575-1.14,2.259-4.77,2.141-7.947a.363.363,0,1,1,.726-.025c.133,3.582-1.831,7.557-2.312,8.473q2.047,1.864,4.035,3.992a.357.357,0,0,1,.154.123.319.319,0,0,1,.032.079q1.622,1.758,3.176,3.7c.7-.8,2.548-3.076,2.891-5.1a.363.363,0,0,1,.416-.29.353.353,0,0,1,.3.4h0c-.394,2.334-2.51,4.839-3.157,5.561q1.86,2.387,3.588,5.067a.3.3,0,0,1,.049.078q.8,1.246,1.559,2.555l1.958-4.013a.371.371,0,0,1,.483-.168.347.347,0,0,1,.178.457l-.005.011-2.184,4.475c.975,1.731,1.9,3.541,2.772,5.446a.348.348,0,0,1-.175.46l-.01,0-.04.014a.366.366,0,0,1-.439-.194,69.854,69.854,0,0,0-4.606-8.5l-4.052.855a.362.362,0,0,1-.431-.268.356.356,0,0,1,.277-.418l3.8-.8a66.9,66.9,0,0,0-6.782-8.747,38.136,38.136,0,0,1-6.5,3.062h-.014a.366.366,0,0,1-.45-.218.349.349,0,0,1,.212-.446l.009,0a37.288,37.288,0,0,0,6.252-2.933,67.478,67.478,0,0,0-5.964-5.628,25.16,25.16,0,0,1-6.616,4.459l-.032.011a.367.367,0,0,1-.443-.2.349.349,0,0,1,.189-.455l.011,0a24.645,24.645,0,0,0,6.338-4.269,70.258,70.258,0,0,0-7.685-5.464c-.826,1.117-3.739,4.772-7.617,6.364l-.034.012a.367.367,0,0,1-.442-.2.348.348,0,0,1,.183-.457l.01,0c3.627-1.488,6.46-5,7.282-6.093a73.986,73.986,0,0,0-9.18-4.681,19.434,19.434,0,0,1-8.613,6.821l-.021.007a.366.366,0,0,1-.447-.21.347.347,0,0,1,.2-.449l.01,0a18.939,18.939,0,0,0,8.188-6.452,72.824,72.824,0,0,0-7.261-2.554,28.508,28.508,0,0,1-8.68,5.968.247.247,0,0,1-.038.014.366.366,0,0,1-.44-.2.348.348,0,0,1,.177-.458l.011,0" fill="#fff"/>
        <path id="Trazado_907080" data-name="Trazado 907080" d="M117.579,152.847a12.811,12.811,0,0,0,7.649-.772c-1.6-3.94-3.341-7.688-5.151-11.205-.321.132-.8.312-1.424.5a19.188,19.188,0,0,1-7.961.666.441.441,0,0,1-.388-.487v0a.449.449,0,0,1,.508-.374,18.385,18.385,0,0,0,8.855-1.085c-2.531-4.846-5.173-9.246-7.7-13.109a26.114,26.114,0,0,1-3.607,1.367,29.836,29.836,0,0,1-7.909,1.274.443.443,0,0,1-.461-.424v0a.438.438,0,0,1,.43-.446h.01a29.011,29.011,0,0,0,11.047-2.512c-2.91-4.389-5.649-8.052-7.872-10.847-.336.131-.9.337-1.643.561a24.885,24.885,0,0,1-11.223.835.436.436,0,0,1-.364-.5l0-.01a.449.449,0,0,1,.524-.35,24.831,24.831,0,0,0,12.125-1.262c-2.827-3.509-4.689-5.469-4.762-5.546a.427.427,0,0,1,.008-.6l.014-.013a.464.464,0,0,1,.637.021c.078.081,2.089,2.2,5.114,5.981a.43.43,0,0,1,.144.167.034.034,0,0,0,0,.021c.965,1.211,2.03,2.588,3.167,4.12a18.087,18.087,0,0,0,6.127-8.307.454.454,0,0,1,.563-.29.436.436,0,0,1,.3.536l0,.009a18.764,18.764,0,0,1-6.465,8.764c1.428,1.945,2.954,4.12,4.529,6.506a.423.423,0,0,1,.149.151.414.414,0,0,1,.049.15c1.148,1.748,2.321,3.61,3.5,5.571a27.78,27.78,0,0,0,5.874-7.568.458.458,0,0,1,.6-.2.43.43,0,0,1,.207.572l-.007.014a28.164,28.164,0,0,1-6.218,7.953c1.355,2.292,2.711,4.719,4.036,7.267a.45.45,0,0,1,.125.146.426.426,0,0,1,.046.182q1.545,2.991,3.014,6.2a29.17,29.17,0,0,0,5.036-5.638.46.46,0,0,1,.622-.133.425.425,0,0,1,.147.584l-.01.016a29.89,29.89,0,0,1-5.417,6.011,127.367,127.367,0,0,1,4.789,12.3,29.371,29.371,0,0,0,4.038-3.542.461.461,0,0,1,.632-.073.426.426,0,0,1,.089.6l-.013.016a31.758,31.758,0,0,1-4.459,3.893q1.087,3.382,1.979,6.91a.444.444,0,0,1,.045.136v.029q.8,3.2,1.413,6.493a7.656,7.656,0,0,0,2.519-1.932.464.464,0,0,1,.626-.118.428.428,0,0,1,.132.591l-.01.015a8.966,8.966,0,0,1-3.106,2.348c.363,2.072.668,4.169.9,6.292a.435.435,0,0,1-.312.462.458.458,0,0,1-.588-.367v0a100.608,100.608,0,0,0-2.381-13.3,19.334,19.334,0,0,1-4.294-.116.436.436,0,0,1-.364-.5v-.008a.451.451,0,0,1,.523-.352,18.186,18.186,0,0,0,3.916.114,118.015,118.015,0,0,0-4.681-14.307,10.709,10.709,0,0,1-1.375.511,13.889,13.889,0,0,1-6.791.3.435.435,0,0,1-.348-.507l0-.01a.448.448,0,0,1,.534-.335" fill="#fff"/>
        <rect id="Rectángulo_409759" data-name="Rectángulo 409759" width="75.734" height="22.849" transform="translate(131.014 98.049)" fill="#d4e157"/>
        <path id="Trazado_907081" data-name="Trazado 907081" d="M197.656,102.1H167.733a.455.455,0,1,1,0-.91h29.922a.455.455,0,1,1,0,.91"/>
        <path id="Trazado_907082" data-name="Trazado 907082" d="M143.071,109.928H133.66a.455.455,0,0,1,0-.91h9.411a.455.455,0,0,1,0,.91"/>
        <path id="Trazado_907083" data-name="Trazado 907083" d="M169.35,109.928H148.489a.455.455,0,0,1,0-.91H169.35a.455.455,0,0,1,0,.91"/>
        <path id="Trazado_907084" data-name="Trazado 907084" d="M197.656,118.286H185.165a.455.455,0,0,1,0-.91h12.491a.455.455,0,0,1,0,.91"/>
        <path id="Trazado_907085" data-name="Trazado 907085" d="M150.173,118.286h-9.567a.455.455,0,0,1,0-.91h9.567a.455.455,0,0,1,0,.91"/>
        <path id="Trazado_907086" data-name="Trazado 907086" d="M146.985,102.1H135.822a.455.455,0,1,1,0-.91h11.163a.455.455,0,1,1,0,.91"/>
        <path id="Trazado_907087" data-name="Trazado 907087" d="M204.115,109.928h-9.178a.455.455,0,0,1,0-.91h9.178a.455.455,0,0,1,0,.91"/>
        <rect id="Rectángulo_409760" data-name="Rectángulo 409760" width="24.074" height="22.849" transform="translate(156.844 98.049)" fill="#ffea00"/>
        <rect id="Rectángulo_409761" data-name="Rectángulo 409761" width="19.158" height="22.849" transform="translate(159.303 98.049)" fill="#476b77"/>
        <rect id="Rectángulo_409762" data-name="Rectángulo 409762" width="75.734" height="22.849" transform="translate(134.033 120.898)" fill="#d4e157"/>
        <path id="Trazado_907088" data-name="Trazado 907088" d="M143.125,124.955h29.927a.455.455,0,1,0,0-.91H143.125a.455.455,0,0,0,0,.91"/>
        <path id="Trazado_907089" data-name="Trazado 907089" d="M197.709,132.777h9.411a.455.455,0,1,0,0-.91h-9.411a.455.455,0,1,0,0,.91"/>
        <path id="Trazado_907090" data-name="Trazado 907090" d="M171.432,132.777h20.861a.455.455,0,1,0,0-.91H171.432a.455.455,0,1,0,0,.91"/>
        <path id="Trazado_907091" data-name="Trazado 907091" d="M143.125,141.134h12.491a.455.455,0,1,0,0-.91H143.125a.455.455,0,1,0,0,.91"/>
        <path id="Trazado_907092" data-name="Trazado 907092" d="M190.6,141.134h9.567a.455.455,0,1,0,0-.91H190.6a.455.455,0,1,0,0,.91"/>
        <path id="Trazado_907093" data-name="Trazado 907093" d="M193.8,124.955h11.163a.455.455,0,0,0,0-.91H193.8a.455.455,0,0,0,0,.91"/>
        <path id="Trazado_907094" data-name="Trazado 907094" d="M136.666,132.777h9.178a.455.455,0,1,0,0-.91h-9.178a.455.455,0,1,0,0,.91"/>
        <path id="Trazado_907095" data-name="Trazado 907095" d="M149.115,132.777h5.89a.455.455,0,1,0,0-.91h-5.89a.455.455,0,1,0,0,.91"/>
        <rect id="Rectángulo_409763" data-name="Rectángulo 409763" width="24.074" height="22.849" transform="translate(159.863 120.898)" fill="#ffea00"/>
        <rect id="Rectángulo_409764" data-name="Rectángulo 409764" width="19.158" height="22.849" transform="translate(162.321 120.898)" fill="#476b77"/>
        <g id="Grupo_1120005" data-name="Grupo 1120005" opacity="0.5" style="mix-blend-mode: multiply;isolation: isolate">
          <g id="Grupo_1120004" data-name="Grupo 1120004">
            <g id="Grupo_1120003" data-name="Grupo 1120003" clip-path="url(#clip-path-3)">
              <g id="Grupo_1120002" data-name="Grupo 1120002">
                <g id="Grupo_1120001" data-name="Grupo 1120001" clip-path="url(#clip-path-3)">
                  <rect id="Rectángulo_409765" data-name="Rectángulo 409765" width="75.734" height="2.117" transform="translate(134.033 120.898)"/>
                </g>
              </g>
            </g>
          </g>
        </g>
        <rect id="Rectángulo_409768" data-name="Rectángulo 409768" width="75.734" height="22.849" transform="translate(126.071 143.766)" fill="#d4e157"/>
        <path id="Trazado_907096" data-name="Trazado 907096" d="M135.164,147.821h29.922a.455.455,0,1,0,0-.91H135.164a.455.455,0,0,0,0,.91"/>
        <path id="Trazado_907097" data-name="Trazado 907097" d="M189.748,155.645h9.411a.455.455,0,1,0,0-.91h-9.411a.455.455,0,0,0,0,.91"/>
        <path id="Trazado_907098" data-name="Trazado 907098" d="M163.47,155.645h20.861a.455.455,0,0,0,0-.91H163.47a.455.455,0,1,0,0,.91"/>
        <path id="Trazado_907099" data-name="Trazado 907099" d="M135.164,164h12.491a.455.455,0,1,0,0-.91H135.164a.455.455,0,1,0,0,.91"/>
        <path id="Trazado_907100" data-name="Trazado 907100" d="M182.647,164h9.567a.455.455,0,0,0,0-.91h-9.567a.455.455,0,1,0,0,.91"/>
        <path id="Trazado_907101" data-name="Trazado 907101" d="M179.793,147.821h5.525a.455.455,0,1,0,0-.91h-5.525a.455.455,0,1,0,0,.91"/>
        <path id="Trazado_907102" data-name="Trazado 907102" d="M189.715,147.821h5.524a.455.455,0,1,0,0-.91h-5.524a.455.455,0,1,0,0,.91"/>
        <path id="Trazado_907103" data-name="Trazado 907103" d="M142.364,155.645h5.525a.455.455,0,0,0,0-.91h-5.525a.455.455,0,1,0,0,.91"/>
        <path id="Trazado_907104" data-name="Trazado 907104" d="M128.7,155.645h9.178a.455.455,0,1,0,0-.91H128.7a.455.455,0,1,0,0,.91"/>
        <rect id="Rectángulo_409769" data-name="Rectángulo 409769" width="24.074" height="22.849" transform="translate(151.901 143.766)" fill="#ffea00"/>
        <rect id="Rectángulo_409770" data-name="Rectángulo 409770" width="19.158" height="22.849" transform="translate(154.359 143.766)" fill="#476b77"/>
        <g id="Grupo_1120010" data-name="Grupo 1120010" opacity="0.5" style="mix-blend-mode: multiply;isolation: isolate">
          <g id="Grupo_1120009" data-name="Grupo 1120009">
            <g id="Grupo_1120008" data-name="Grupo 1120008" clip-path="url(#clip-path-5)">
              <g id="Grupo_1120007" data-name="Grupo 1120007">
                <g id="Grupo_1120006" data-name="Grupo 1120006" clip-path="url(#clip-path-5)">
                  <rect id="Rectángulo_409771" data-name="Rectángulo 409771" width="75.734" height="2.117" transform="translate(126.071 143.766)"/>
                </g>
              </g>
            </g>
          </g>
        </g>
        <rect id="Rectángulo_409774" data-name="Rectángulo 409774" width="75.734" height="22.849" transform="translate(131.014 166.619)" fill="#d4e157"/>
        <path id="Trazado_907105" data-name="Trazado 907105" d="M197.656,170.674H167.733a.455.455,0,1,1,0-.91h29.922a.455.455,0,1,1,0,.91"/>
        <path id="Trazado_907106" data-name="Trazado 907106" d="M143.071,178.5H133.66a.455.455,0,1,1,0-.91h9.411a.455.455,0,1,1,0,.91"/>
        <path id="Trazado_907107" data-name="Trazado 907107" d="M169.35,178.5H148.489a.455.455,0,1,1,0-.91H169.35a.455.455,0,0,1,0,.91"/>
        <path id="Trazado_907108" data-name="Trazado 907108" d="M197.656,186.856H185.165a.455.455,0,0,1,0-.91h12.491a.455.455,0,0,1,0,.91"/>
        <path id="Trazado_907109" data-name="Trazado 907109" d="M150.173,186.856h-9.567a.455.455,0,0,1,0-.91h9.567a.455.455,0,1,1,0,.91"/>
        <path id="Trazado_907110" data-name="Trazado 907110" d="M153.027,170.674H147.5a.455.455,0,1,1,0-.91h5.525a.455.455,0,1,1,0,.91"/>
        <path id="Trazado_907111" data-name="Trazado 907111" d="M143.106,170.674h-5.525a.455.455,0,0,1,0-.91h5.525a.455.455,0,1,1,0,.91"/>
        <path id="Trazado_907112" data-name="Trazado 907112" d="M190.455,178.5h-5.524a.455.455,0,0,1,0-.91h5.525a.455.455,0,0,1,0,.91"/>
        <path id="Trazado_907113" data-name="Trazado 907113" d="M204.115,178.5h-9.178a.455.455,0,0,1,0-.91h9.178a.455.455,0,1,1,0,.91"/>
        <rect id="Rectángulo_409775" data-name="Rectángulo 409775" width="24.074" height="22.849" transform="translate(156.844 166.619)" fill="#ffea00"/>
        <rect id="Rectángulo_409776" data-name="Rectángulo 409776" width="19.158" height="22.849" transform="translate(159.303 166.619)" fill="#476b77"/>
        <g id="Grupo_1120015" data-name="Grupo 1120015" opacity="0.5" style="mix-blend-mode: multiply;isolation: isolate">
          <g id="Grupo_1120014" data-name="Grupo 1120014">
            <g id="Grupo_1120013" data-name="Grupo 1120013" clip-path="url(#clip-path-7)">
              <g id="Grupo_1120012" data-name="Grupo 1120012">
                <g id="Grupo_1120011" data-name="Grupo 1120011" clip-path="url(#clip-path-8)">
                  <rect id="Rectángulo_409777" data-name="Rectángulo 409777" width="75.734" height="2.117" transform="translate(131.015 166.62)"/>
                </g>
              </g>
            </g>
          </g>
        </g>
        <path id="Trazado_907114" data-name="Trazado 907114" d="M122.318,37.151c0-12.124-10.242-21.933-22.808-21.763-12.018.163-21.865,9.59-22.158,21.22a21.549,21.549,0,0,0,9.919,18.6,10.924,10.924,0,0,1,5.035,9.127v.682h15.051v-.683a11.011,11.011,0,0,1,5.092-9.164,21.56,21.56,0,0,0,9.869-18.017" fill="#ffea00"/>
        <path id="Trazado_907115" data-name="Trazado 907115" d="M102.094,66.981a.731.731,0,0,1-.743-.719V41.774a5.744,5.744,0,1,1,5.929,5.553q-.093,0-.186,0h-1.57a.72.72,0,0,1-.054-1.439h1.624a4.119,4.119,0,1,0-4.257-4.117V66.262A.731.731,0,0,1,102.094,66.981Z" fill="#fff"/>
        <path id="Trazado_907116" data-name="Trazado 907116" d="M97.35,66.981a.731.731,0,0,1-.743-.719V41.774a4.257,4.257,0,1,0-4.4,4.115l.138,0h1.57a.72.72,0,0,1,.054,1.439H92.35a5.559,5.559,0,1,1,5.742-5.556V66.262a.731.731,0,0,1-.743.719" fill="#fff"/>
        <path id="Trazado_907117" data-name="Trazado 907117" d="M99.832,13a.522.522,0,0,1-.531-.513h0V4.08a.531.531,0,0,1,1.061,0v8.4a.522.522,0,0,1-.53.514h0" fill="#ffea00"/>
        <path id="Trazado_907118" data-name="Trazado 907118" d="M110.691,15.491a.542.542,0,0,1-.228-.051.505.505,0,0,1-.258-.667l.008-.018,3.747-7.58a.538.538,0,0,1,.707-.242.508.508,0,0,1,.258.669l-.008.017L111.17,15.2a.53.53,0,0,1-.479.292" fill="#ffea00"/>
        <path id="Trazado_907119" data-name="Trazado 907119" d="M119.588,22.279a.535.535,0,0,1-.413-.191.5.5,0,0,1,.057-.7l.023-.018,6.76-5.272a.543.543,0,0,1,.747.078.5.5,0,0,1-.058.7l-.022.017-6.761,5.272a.54.54,0,0,1-.332.114" fill="#ffea00"/>
        <path id="Trazado_907120" data-name="Trazado 907120" d="M124.395,32.029a.527.527,0,0,1-.516-.4.512.512,0,0,1,.382-.615l.012,0,8.449-1.932a.533.533,0,0,1,.639.382.513.513,0,0,1-.386.616l-.009,0-8.449,1.939a.5.5,0,0,1-.122.014" fill="#ffea00"/>
        <path id="Trazado_907121" data-name="Trazado 907121" d="M132.863,44.62a.536.536,0,0,1-.113-.012l-8.479-1.787a.514.514,0,0,1-.407-.6l0-.009a.53.53,0,0,1,.632-.393L132.98,43.6a.514.514,0,0,1,.407.6l0,.009a.527.527,0,0,1-.518.4" fill="#ffea00"/>
        <path id="Trazado_907122" data-name="Trazado 907122" d="M126.411,57.73a.531.531,0,0,1-.325-.108l-6.855-5.157a.5.5,0,0,1-.111-.7l.017-.022a.542.542,0,0,1,.745-.091l6.855,5.157a.5.5,0,0,1,.11.7.2.2,0,0,1-.017.023.536.536,0,0,1-.419.2" fill="#ffea00"/>
        <path id="Trazado_907123" data-name="Trazado 907123" d="M88.329,15.491a.53.53,0,0,1-.479-.292L84.1,7.619a.506.506,0,0,1,.233-.678l.017-.008a.538.538,0,0,1,.707.242l3.747,7.581a.506.506,0,0,1-.232.677l-.018.008a.542.542,0,0,1-.228.051" fill="#ffea00"/>
        <path id="Trazado_907124" data-name="Trazado 907124" d="M79.432,22.279a.54.54,0,0,1-.332-.114l-6.761-5.272a.5.5,0,0,1-.1-.7.184.184,0,0,1,.017-.022.543.543,0,0,1,.747-.078l6.76,5.272a.5.5,0,0,1,.1.7l-.018.023a.536.536,0,0,1-.413.191" fill="#ffea00"/>
        <path id="Trazado_907125" data-name="Trazado 907125" d="M74.625,32.029a.5.5,0,0,1-.122-.014l-8.45-1.932a.514.514,0,0,1-.4-.6l0-.013a.533.533,0,0,1,.639-.382l8.454,1.935a.513.513,0,0,1,.4.606l0,.012a.527.527,0,0,1-.516.4" fill="#ffea00"/>
        <path id="Trazado_907126" data-name="Trazado 907126" d="M66.153,44.62a.527.527,0,0,1-.518-.4.513.513,0,0,1,.4-.609l.009,0,8.483-1.788a.53.53,0,0,1,.632.393.513.513,0,0,1-.4.609l-.009,0-8.484,1.783a.536.536,0,0,1-.113.012" fill="#ffea00"/>
        <path id="Trazado_907127" data-name="Trazado 907127" d="M72.609,57.73a.536.536,0,0,1-.419-.2.5.5,0,0,1,.07-.7l.023-.017,6.86-5.155a.542.542,0,0,1,.745.091.5.5,0,0,1-.072.7l-.022.017-6.855,5.157a.531.531,0,0,1-.325.108" fill="#ffea00"/>
        <path id="Trazado_907128" data-name="Trazado 907128" d="M98.118,19.453c1.044,1.751-.9,4.733-4.35,6.66s-7.089,2.068-8.134.317.9-4.733,4.35-6.66,7.089-2.068,8.134-.317" fill="#fff"/>
        <g id="Grupo_1120020" data-name="Grupo 1120020" style="mix-blend-mode: multiply;isolation: isolate">
          <g id="Grupo_1120019" data-name="Grupo 1120019">
            <g id="Grupo_1120018" data-name="Grupo 1120018" clip-path="url(#clip-path-9)">
              <g id="Grupo_1120017" data-name="Grupo 1120017">
                <g id="Grupo_1120016" data-name="Grupo 1120016" clip-path="url(#clip-path-9)">
                  <path id="Trazado_907129" data-name="Trazado 907129" d="M122.317,37.15a21.172,21.172,0,0,0-.518-4.66c-2.461,5.065-13.9,25.031-38.834,19.05A22.341,22.341,0,0,0,87.271,55.2a10.924,10.924,0,0,1,5.035,9.126v.684h15.051v-.683a11.011,11.011,0,0,1,5.092-9.164,21.561,21.561,0,0,0,9.868-18.017" fill="#ffea00"/>
                </g>
              </g>
            </g>
          </g>
        </g>
        <path id="Trazado_907130" data-name="Trazado 907130" d="M91.822,63.871v3.643a8.014,8.014,0,0,0,16.02,0V63.871Z" fill="#ada184"/>
        <path id="Trazado_907131" data-name="Trazado 907131" d="M107.842,66.105h-6.49a.514.514,0,0,0-.045,1.027h6.535Z" fill="#ada184"/>
        <path id="Trazado_907132" data-name="Trazado 907132" d="M97.924,68.4H91.877a7.477,7.477,0,0,0,.193,1.028h5.855a.514.514,0,0,0,0-1.028h0" fill="#ada184"/>
        <path id="Trazado_907133" data-name="Trazado 907133" d="M164.982,21.176h-2.514a7.991,7.991,0,0,0-.715-1.672l1.777-1.72a.9.9,0,0,0,.028-1.272l-.028-.028-1.98-1.916a.97.97,0,0,0-1.34,0l-1.777,1.72a8.537,8.537,0,0,0-1.727-.692V13.169a.932.932,0,0,0-.947-.917h-2.8a.933.933,0,0,0-.948.917V15.6a8.537,8.537,0,0,0-1.727.692l-1.779-1.718a.97.97,0,0,0-1.34,0l-1.979,1.916a.9.9,0,0,0-.027,1.272.358.358,0,0,0,.027.028l1.777,1.72a7.991,7.991,0,0,0-.715,1.672h-2.514a.932.932,0,0,0-.947.917v2.7a.932.932,0,0,0,.947.917h2.514a7.991,7.991,0,0,0,.715,1.672l-1.777,1.72a.9.9,0,0,0-.027,1.272.359.359,0,0,0,.027.028l1.979,1.916a.97.97,0,0,0,1.34,0l1.777-1.72a8.537,8.537,0,0,0,1.727.692v2.433a.933.933,0,0,0,.948.917h2.8a.932.932,0,0,0,.947-.917V31.3a8.537,8.537,0,0,0,1.727-.692l1.777,1.72a.97.97,0,0,0,1.34,0l1.98-1.916a.9.9,0,0,0,.028-1.272l-.028-.028-1.777-1.72a7.991,7.991,0,0,0,.715-1.672h2.514a.932.932,0,0,0,.947-.917V22.1a.932.932,0,0,0-.947-.917m-5.734,2.657a4.907,4.907,0,1,1-5.287-5.118,4.844,4.844,0,0,1,5.287,5.118" fill="#c3c5dd"/>
        <path id="Trazado_907134" data-name="Trazado 907134" d="M98.927,183.431c-6.259,0-11.333,2.659-11.333,5.94h22.667c0-3.281-5.075-5.94-11.334-5.94" fill="#ffc47d"/>
        <path id="Trazado_907135" data-name="Trazado 907135" d="M256.341,183.431c-6.259,0-11.333,2.659-11.333,5.94h22.667c0-3.281-5.075-5.94-11.334-5.94" fill="#ada184"/>
        <path id="Trazado_907136" data-name="Trazado 907136" d="M86.237,186.165c-3.378,0-6.117,1.435-6.117,3.206H92.354c0-1.771-2.739-3.206-6.117-3.206" fill="#7390e0"/>
        <path id="Trazado_907137" data-name="Trazado 907137" d="M269.438,186.165c-3.378,0-6.117,1.435-6.117,3.206h12.234c0-1.771-2.739-3.206-6.117-3.206" fill="#476b77"/>
        <path id="Trazado_907138" data-name="Trazado 907138" d="M291.173,163.811c-11.9,7.119-8.415,25.56-8.415,25.56h3.694s1.026-4.47,8-11.82,8.62-20.859-3.284-13.74" fill="#7390e0"/>
        <path id="Trazado_907139" data-name="Trazado 907139" d="M284.491,188.535h-.024a.468.468,0,0,1-.452-.483h0a38.267,38.267,0,0,1,10.793-22.7.488.488,0,0,1,.674-.011.451.451,0,0,1,.025.637l-.015.016A37.318,37.318,0,0,0,284.967,188.1a.47.47,0,0,1-.475.438" fill="#fff"/>
        <path id="Trazado_907140" data-name="Trazado 907140" d="M276.919,175.013c6.686,4,4.727,14.358,4.727,14.358h-2.075s-.576-2.51-4.5-6.639-4.842-11.718,1.845-7.718" fill="#b2ce7a"/>
        <path id="Trazado_907141" data-name="Trazado 907141" d="M280.4,188.535a.475.475,0,0,1-.468-.375c-.013-.07-1.425-6.994-5.676-10.957a.452.452,0,0,1-.027-.639l.014-.014a.488.488,0,0,1,.674-.012c4.472,4.17,5.893,11.153,5.952,11.449a.463.463,0,0,1-.372.539h-.006a.549.549,0,0,1-.091.008" fill="#fff"/>
        <path id="Trazado_907142" data-name="Trazado 907142" d="M247.36,193.479H174.825a1.54,1.54,0,0,0-.111,3.078h72.645a1.54,1.54,0,0,0,.111-3.078q-.056,0-.111,0" fill="#476b77"/>
        <path id="Trazado_907143" data-name="Trazado 907143" d="M160.3,193.479H87.761a1.54,1.54,0,0,0-.111,3.078h72.645a1.54,1.54,0,0,0,.111-3.078q-.056,0-.111,0" fill="#476b77"/>
        <path id="Trazado_907144" data-name="Trazado 907144" d="M217.438,188.491s-1.088,5.59-.335,6.238,15.91,0,15.91,0,.495-1.7-3.858-2.35-5.022-.567-5.692-2.187a25.753,25.753,0,0,1-.92-2.512Z" fill="#ada184"/>
        <path id="Trazado_907145" data-name="Trazado 907145" d="M198.6,188.491s1.088,5.59.335,6.238-15.91,0-15.91,0-.495-1.7,3.858-2.35,5.022-.567,5.692-2.187a25.749,25.749,0,0,0,.92-2.512Z" fill="#ada184"/>
        <path id="Trazado_907146" data-name="Trazado 907146" d="M223.17,169.931l-.629-6.938-.157-2.4-.079-1.2-.144-1.188-.6-5.636-4.77-38.076-13.164,2.941.04-.518H186.8l1.453,37.811.182,4.722c.1,1.574.273,3.147.4,4.72l.857,6.785,1.532,16.855a2.13,2.13,0,0,0,2.253,1.9l4.145-.2a2.117,2.117,0,0,0,2.043-2.032l.4-16.879.226-6.741c.048-1.564.052-3.127.136-4.692l.36-4.7,1.692-22.115,5.7,23.1,1.143,4.631.281,1.158.215,1.167.431,2.333,1.724,6.689,3.1,16.77a2.143,2.143,0,0,0,2.375,1.7l4.942-.576a2.1,2.1,0,0,0,1.891-2.2Z" fill="#476b77"/>
        <g id="Grupo_1120025" data-name="Grupo 1120025" opacity="0.5" style="mix-blend-mode: multiply;isolation: isolate">
          <g id="Grupo_1120024" data-name="Grupo 1120024">
            <g id="Grupo_1120023" data-name="Grupo 1120023" clip-path="url(#clip-path-11)">
              <g id="Grupo_1120022" data-name="Grupo 1120022">
                <g id="Grupo_1120021" data-name="Grupo 1120021" clip-path="url(#clip-path-12)">
                  <path id="Trazado_907147" data-name="Trazado 907147" d="M210.9,127.128c2.578.185,6.375,6.031,8.972,11.884L216.8,114.493l-13.164,2.941.04-.519H186.8l.242,6.281c3.406,1.6,11.2,4.233,23.853,3.932" fill="#476b77"/>
                </g>
              </g>
            </g>
          </g>
        </g>
        <path id="Trazado_907148" data-name="Trazado 907148" d="M157.092,99.744a15.486,15.486,0,0,0-4.37-1.734c-1.414-.273-2.041-.644-2.3-.613s.517.86,1.51,1.383c.452.365.548.661-.839.887a20.014,20.014,0,0,1-4.012-.161c-.463,0,.639.906,2.4,1.139-1.139.363-2.872-.069-3.537-.073s.8,2.366,3.576,2.812,7.95-.688,7.95-.688Z" fill="#ffc47d"/>
        <path id="Trazado_907149" data-name="Trazado 907149" d="M196.994,75.97a5.375,5.375,0,0,1,1.928,7.353,5.446,5.446,0,0,1-.521.74l-.041.049c-1.347,1.6-2.706,3.176-4.133,4.731s-2.879,3.1-4.442,4.6a46.656,46.656,0,0,1-5.173,4.431,16.691,16.691,0,0,1-1.607,1.066,13.405,13.405,0,0,1-1.8.944,16.81,16.81,0,0,1-1.759.693c-.572.191-1.148.4-1.7.531a49.61,49.61,0,0,1-6.524,1.313,140.447,140.447,0,0,1-14.5,1.171l-.452-4.918a134.251,134.251,0,0,0,13.367-3,41.128,41.128,0,0,0,5.271-1.98c.422-.176.776-.386,1.147-.581a8.48,8.48,0,0,0,1-.607,4.982,4.982,0,0,0,.8-.633,9.418,9.418,0,0,0,.8-.773,37.984,37.984,0,0,0,3.378-4.09c1.1-1.5,2.173-3.079,3.208-4.7s2.046-3.264,3.027-4.935a5.761,5.761,0,0,1,7.914-1.91Z" fill="#ada184"/>
        <g id="Grupo_1120030" data-name="Grupo 1120030" opacity="0.5" style="mix-blend-mode: multiply;isolation: isolate">
          <g id="Grupo_1120029" data-name="Grupo 1120029">
            <g id="Grupo_1120028" data-name="Grupo 1120028" clip-path="url(#clip-path-13)">
              <g id="Grupo_1120027" data-name="Grupo 1120027">
                <g id="Grupo_1120026" data-name="Grupo 1120026" clip-path="url(#clip-path-14)">
                  <path id="Trazado_907150" data-name="Trazado 907150" d="M191.413,85.234a53.611,53.611,0,0,0-4.927-4.9c-.413.668-.828,1.335-1.247,1.989-.753,1.177-1.531,2.323-2.322,3.444-.135,2.977-.22,8.246-.534,9.872-.43,2.219-3.879,4.283-7.524,6.163.951-.2,1.912-.417,2.89-.69.552-.135,1.128-.34,1.7-.531a16.585,16.585,0,0,0,1.759-.692,13.409,13.409,0,0,0,1.8-.945,16.69,16.69,0,0,0,1.607-1.066,46.635,46.635,0,0,0,5.172-4.43c1.107-1.069,2.152-2.155,3.177-3.249-.834-2.821-1.549-4.966-1.549-4.966" fill="#ada184"/>
                </g>
              </g>
            </g>
          </g>
        </g>
        <path id="Trazado_907151" data-name="Trazado 907151" d="M222.114,123.414a12.174,12.174,0,0,0-.761,4.307c.223,1.577,1.1,1.549.956,3.054a20.5,20.5,0,0,1-.564,3.009s.934.5,1.453-1.935a7.9,7.9,0,0,1-.593,3.082s1.332.143,2.073-3.082a18.743,18.743,0,0,0-.444-8.371c-.37-1.075-2.12-.064-2.12-.064" fill="#ffc47d"/>
        <path id="Trazado_907152" data-name="Trazado 907152" d="M228.86,98.577A44.736,44.736,0,0,0,224.146,84.9c-.506-.99-2.117-3.594-3.723-6.121a5.974,5.974,0,0,0-3.131-2.447,3.25,3.25,0,0,0-.887-.241l-.137-.016c-.134-.021-.268-.034-.4-.048-6.106-.721-16.376-1.783-22-1.752a6.116,6.116,0,0,0-4.984,2.052A20.262,20.262,0,0,0,185.049,87.6c-.12,6.049.721,26.867,1.082,32.8,9.132,5.932,28.357,2.558,28.357,2.558l.481-5.35,1.8,4.3a7.98,7.98,0,0,0,2.523-.465C217.009,114,217.23,102.21,217.937,97.7c.064-.409.157-.919.268-1.5a26.744,26.744,0,0,1,1.721,4.132,44.27,44.27,0,0,1,1.56,11.736,92.838,92.838,0,0,1-.627,12.474l4.8.986a98.554,98.554,0,0,0,2.825-13.037,51.552,51.552,0,0,0,.376-13.914" fill="#ada184"/>
        <path id="Trazado_907153" data-name="Trazado 907153" d="M205.536,69.9a30.7,30.7,0,0,0,.291,5.756c-.223,1.13-1.718,1.45-2.893,1.457a1.98,1.98,0,0,1-1.974-2.53c.786-1.009,2.164-2.771,2.1-3.817s2.47-.866,2.47-.866" fill="#ffc47d"/>
        <path id="Trazado_907154" data-name="Trazado 907154" d="M204.443,78.392s2.761-1.631,1.385-3.941a20.306,20.306,0,0,1-2.593,2.668Z" fill="#476b77"/>
        <path id="Trazado_907155" data-name="Trazado 907155" d="M202.258,78.392s-2.761-1.631-1.385-3.941a23.641,23.641,0,0,0,2.361,2.668Z" fill="#476b77"/>
        <path id="Trazado_907156" data-name="Trazado 907156" d="M203.233,77.118l-.976,1.273s.368,1.106,1.092,1.106,1.093-1.106,1.093-1.106Z" fill="#476b77"/>
        <path id="Trazado_907157" data-name="Trazado 907157" d="M203.84,78.994l1.209,16.556-2.466,2.436L200.291,95.4,202.8,78.948Z" fill="#476b77"/>
        <g id="Grupo_1120035" data-name="Grupo 1120035" opacity="0.5" style="mix-blend-mode: multiply;isolation: isolate">
          <g id="Grupo_1120034" data-name="Grupo 1120034">
            <g id="Grupo_1120033" data-name="Grupo 1120033" clip-path="url(#clip-path-15)">
              <g id="Grupo_1120032" data-name="Grupo 1120032">
                <g id="Grupo_1120031" data-name="Grupo 1120031" clip-path="url(#clip-path-16)">
                  <path id="Trazado_907158" data-name="Trazado 907158" d="M221.487,115.521c1.26-4.122.89-13.5,1.033-16.413s-2.293-14.152-2.867-12.253-1.444,9.343-1.444,9.343a26.645,26.645,0,0,1,1.721,4.132,44.27,44.27,0,0,1,1.56,11.736c.022,1.139.015,2.29-.008,3.445v.01" fill="#ada184"/>
                </g>
              </g>
            </g>
          </g>
        </g>
        <g id="Grupo_1120040" data-name="Grupo 1120040" opacity="0.5" style="mix-blend-mode: multiply;isolation: isolate">
          <g id="Grupo_1120039" data-name="Grupo 1120039">
            <g id="Grupo_1120038" data-name="Grupo 1120038" clip-path="url(#clip-path-17)">
              <g id="Grupo_1120037" data-name="Grupo 1120037">
                <g id="Grupo_1120036" data-name="Grupo 1120036" clip-path="url(#clip-path-18)">
                  <path id="Trazado_907159" data-name="Trazado 907159" d="M217.495,103.289c-1.478,2.91-5.187,9.332-10.385,12.232-5.532,3.086-16.944,2.946-21.1,2.78.042.819.081,1.529.116,2.1,9.132,5.932,28.357,2.559,28.357,2.559l.481-5.35,1.8,4.3a7.98,7.98,0,0,0,2.523-.465c-1.611-5.253-1.972-12.661-1.8-18.158" fill="#ada184"/>
                </g>
              </g>
            </g>
          </g>
        </g>
        <g id="Grupo_1120045" data-name="Grupo 1120045" opacity="0.5" style="mix-blend-mode: multiply;isolation: isolate">
          <g id="Grupo_1120044" data-name="Grupo 1120044">
            <g id="Grupo_1120043" data-name="Grupo 1120043" clip-path="url(#clip-path-19)">
              <g id="Grupo_1120042" data-name="Grupo 1120042">
                <g id="Grupo_1120041" data-name="Grupo 1120041" clip-path="url(#clip-path-20)">
                  <path id="Trazado_907160" data-name="Trazado 907160" d="M203.065,70.771a5.841,5.841,0,0,1-1.394,2.883,10.11,10.11,0,0,0,3.865-.878c-.053-1.52,0-2.871,0-2.871s-2.529-.18-2.47.866" fill="#ffc47d"/>
                </g>
              </g>
            </g>
          </g>
        </g>
        <path id="Trazado_907161" data-name="Trazado 907161" d="M198.12,68.18s-.24-5.66,3.318-6.409,6.471,1.562,6.3,4.728-2.916,5.036-5.361,5.668-4.689-.687-4.256-3.988" fill="#ffc47d"/>
        <path id="Trazado_907162" data-name="Trazado 907162" d="M197.831,62.467a4.453,4.453,0,0,0,4.165,2.2c3.106-.03,2.834,1.738,2.04,2.769s0,1.228,1.349.4,1.952,2.268-.513,2.754c-1.242.666-1.173.952-.787,1.4s3.21.14,4.856-3.155.8-5.7-.657-7.038a7.467,7.467,0,0,0-2.638-1.356s-3.4-3.336-5.591-2.413-2.95,2.58-2.225,4.434" fill="#ada184"/>
        <g id="Grupo_1120050" data-name="Grupo 1120050" opacity="0.5" style="mix-blend-mode: multiply;isolation: isolate">
          <g id="Grupo_1120049" data-name="Grupo 1120049">
            <g id="Grupo_1120048" data-name="Grupo 1120048" clip-path="url(#clip-path-21)">
              <g id="Grupo_1120047" data-name="Grupo 1120047">
                <g id="Grupo_1120046" data-name="Grupo 1120046" clip-path="url(#clip-path-21)">
                  <path id="Trazado_907163" data-name="Trazado 907163" d="M208.942,68.841c.09-.18.169-.355.244-.529a1.841,1.841,0,0,1-2.075-1.571V66.73c-.3-1.391.3-3.386-3.506-3.386a10.272,10.272,0,0,1-6.03-2.291,3.539,3.539,0,0,0,.257,1.413,4.457,4.457,0,0,0,4.165,2.2c3.106-.031,2.834,1.737,2.04,2.769s0,1.228,1.35.4,1.951,2.267-.514,2.754c-1.242.666-1.173.952-.787,1.4s3.21.141,4.856-3.154" fill="#ada184"/>
                </g>
              </g>
            </g>
          </g>
        </g>
        <g id="Grupo_1120055" data-name="Grupo 1120055" opacity="0.5" style="mix-blend-mode: multiply;isolation: isolate">
          <g id="Grupo_1120054" data-name="Grupo 1120054">
            <g id="Grupo_1120053" data-name="Grupo 1120053" clip-path="url(#clip-path-23)">
              <g id="Grupo_1120052" data-name="Grupo 1120052">
                <g id="Grupo_1120051" data-name="Grupo 1120051" clip-path="url(#clip-path-24)">
                  <path id="Trazado_907164" data-name="Trazado 907164" d="M200.8,154.456l1.692-22.115-5.768-2.377,3.58,33.886c.048-1.565.052-3.127.136-4.693Z" fill="#476b77"/>
                </g>
              </g>
            </g>
          </g>
        </g>
        <path id="Trazado_907165" data-name="Trazado 907165" d="M137.8,137.684l-1.094,12.943c-.376,4.308-.706,8.612-1.119,12.907l-4.2,25.419-4.434.009-1.007-25.64c-.385-4.266-.853-8.527-1.274-12.783l-1.3-12.748Z" fill="#ffc47d"/>
        <path id="Trazado_907166" data-name="Trazado 907166" d="M138.168,195.1a14.773,14.773,0,0,0-3.336-1.977c-2.611-1.021-3.441-4.169-3.441-4.169l-4.434.009a35.525,35.525,0,0,0-.47,6.281,8.754,8.754,0,0,0,1.728,0l.453-1.828s1.6,1.987,2.055,2.1c.332.08,4.738.328,7.1.457a.486.486,0,0,0,.342-.868" fill="#ffea00"/>
        <path id="Trazado_907167" data-name="Trazado 907167" d="M133.147,193.723c1.12.144,1.577-.2,1.76-.569-.024-.009-.05-.024-.074-.034-2.611-1.021-3.441-4.169-3.441-4.169l-3.039.006s2.635,4.487,4.793,4.764" fill="#ffc47d"/>
        <g id="Grupo_1120060" data-name="Grupo 1120060" opacity="0.5" style="mix-blend-mode: multiply;isolation: isolate">
          <g id="Grupo_1120059" data-name="Grupo 1120059">
            <g id="Grupo_1120058" data-name="Grupo 1120058" clip-path="url(#clip-path-25)">
              <g id="Grupo_1120057" data-name="Grupo 1120057">
                <g id="Grupo_1120056" data-name="Grupo 1120056" clip-path="url(#clip-path-25)">
                  <path id="Trazado_907168" data-name="Trazado 907168" d="M136.724,150.428l.261-3.089A5.145,5.145,0,0,0,134.8,145.4c-2.277-.906-10.7-.571-10.7-.574l.581,5.716c.422,4.255.89,8.517,1.274,12.783l.093,2.352c1.069-3.324,2.753-10.7,3.053-12.324,1.083-.4,5.317-2.029,7.628-2.922" fill="#ffc47d"/>
                </g>
              </g>
            </g>
          </g>
        </g>
        <path id="Trazado_907169" data-name="Trazado 907169" d="M123.983,72.281c-1.8-1.841-5.8-1.247-7.412.579a4.9,4.9,0,0,0-1.15,3.172c0,.3.238,2.644.858,2.54-1.452.243-4.263,1.48-4.075,4.643s1.986,3.2,1.986,3.2-5.337-.03-6.776,6.125a7.087,7.087,0,0,0,4.014,8.366c-.451-.183-2.115,2.759-2.244,3.057-1.127,2.613.615,5.4,2.926,6.786,2.538,1.519,5.563.885,8.055-.4,5.168-2.472,3.277-7.828,3.277-7.828s7.55-.983,8.379-5.642-1.717-6.586-1.717-6.586,2.888-2.28.7-6.763c-1-2.024-5.608-4.978-5.608-4.978a5.722,5.722,0,0,0-1.217-6.27" fill="#ada184"/>
        <g id="Grupo_1120065" data-name="Grupo 1120065" opacity="0.5" style="mix-blend-mode: multiply;isolation: isolate">
          <g id="Grupo_1120064" data-name="Grupo 1120064">
            <g id="Grupo_1120063" data-name="Grupo 1120063" clip-path="url(#clip-path-27)">
              <g id="Grupo_1120062" data-name="Grupo 1120062">
                <g id="Grupo_1120061" data-name="Grupo 1120061" clip-path="url(#clip-path-28)">
                  <path id="Trazado_907170" data-name="Trazado 907170" d="M130.1,90.292s2.887-2.28.7-6.762a6.428,6.428,0,0,0-1.235-1.568C126.73,86.5,120.6,92.555,108,90.773a9.81,9.81,0,0,0-.595,1.766,7.085,7.085,0,0,0,4.014,8.366c-.451-.183-2.115,2.759-2.244,3.057-1.127,2.614.614,5.4,2.926,6.787,2.538,1.518,5.563.885,8.055-.4,5.169-2.472,3.277-7.828,3.277-7.828s7.55-.983,8.379-5.642-1.717-6.587-1.717-6.587" fill="#ada184"/>
                </g>
              </g>
            </g>
          </g>
        </g>
        <path id="Trazado_907171" data-name="Trazado 907171" d="M157.581,114.687c-1.545-1.106-4.736-1.776-5.952-2-2.179-1.8-4.957-4.087-6.933-5.962-1.024-.977-2.025-1.972-2.912-2.97a14.929,14.929,0,0,1-1.152-1.453,4.917,4.917,0,0,1-.364-.649l-.158-.332-.178-.417c-.477-1.124-.948-2.413-1.377-3.719s-.85-2.637-1.248-3.981c-.3-1.024-.6-2.06-.894-3.1a4.887,4.887,0,0,0-6.077-3.294c-.1.03-.206.065-.307.1a4.644,4.644,0,0,0-2.569,6.644c.557.993,1.122,1.982,1.7,2.976.742,1.279,1.506,2.556,2.307,3.834s1.628,2.547,2.63,3.884l.382.5.464.549a11.262,11.262,0,0,0,1,1.026,22.1,22.1,0,0,0,1.978,1.552c1.3.908,2.591,1.7,3.891,2.465,2.6,1.516,5.937,3.379,8.607,4.71A19.2,19.2,0,0,0,153,117.567c.965.739,1.293,1.257,1.5,1.33s-.047-.848-.592-1.619c-.2-.447-.152-.709.993-.358a16.65,16.65,0,0,1,2.985,1.631c.352.173-.049-1.194-1.3-2.035,1.011.153,2.082,1.4,2.587,1.651s.343-2.1-1.589-3.482" fill="#ffc47d"/>
        <g id="Grupo_1120070" data-name="Grupo 1120070" opacity="0.5" style="mix-blend-mode: multiply;isolation: isolate">
          <g id="Grupo_1120069" data-name="Grupo 1120069">
            <g id="Grupo_1120068" data-name="Grupo 1120068" clip-path="url(#clip-path-29)">
              <g id="Grupo_1120067" data-name="Grupo 1120067">
                <g id="Grupo_1120066" data-name="Grupo 1120066" clip-path="url(#clip-path-30)">
                  <path id="Trazado_907172" data-name="Trazado 907172" d="M147.246,109.016c-.586-.506-1.154-1.006-1.688-1.49l-6.778-.864s.333-4.583.55-7.269c-.268-.713-.531-1.455-.777-2.208-.352-1.054-.682-2.134-1.008-3.216a16.087,16.087,0,0,0-1.772,2.159c-.559.76-1.4,5.546-1.786,7.977.036.049.069.1.106.146l.382.5.464.55a11.123,11.123,0,0,0,1,1.025,22.108,22.108,0,0,0,1.978,1.553c.895.626,1.788,1.187,2.682,1.732,2.072-.091,5.2-.432,6.647-.6" fill="#ffc47d"/>
                </g>
              </g>
            </g>
          </g>
        </g>
        <path id="Trazado_907173" data-name="Trazado 907173" d="M127.753,137.705l-1.094,12.943c-.376,4.308-.706,8.612-1.119,12.907l-5.159,25.421-4.433.009-.045-25.642c-.385-4.266-.853-8.527-1.274-12.783l-1.3-12.748Z" fill="#ffc47d"/>
        <path id="Trazado_907174" data-name="Trazado 907174" d="M127.158,195.123a14.774,14.774,0,0,0-3.336-1.977c-2.611-1.021-3.441-4.169-3.441-4.169l-4.434.009a35.621,35.621,0,0,0-.47,6.281,8.751,8.751,0,0,0,1.728,0l.453-1.828s1.6,1.986,2.055,2.1c.331.081,4.738.328,7.1.457a.487.487,0,0,0,.343-.868" fill="#ffea00"/>
        <path id="Trazado_907175" data-name="Trazado 907175" d="M135.82,112.048s3.374,1.991,4.716,12.054-2.212,24.815-2.212,24.815-13.1,3.147-20.869,1.18c-.59-1.275-1.18-2.975-1.18-2.975l-1.15,2.838-2.8-1.7s-7.7-22.414,3.825-36.761c4.436-.969,19.672.544,19.672.544" fill="#7390e0"/>
        <path id="Trazado_907176" data-name="Trazado 907176" d="M138.171,94.271a12.991,12.991,0,0,0-4.271-7.945c-1.509-1.169-5.23-.743-5.23-.743a38.649,38.649,0,0,0-11.321,1.324c-2.29.692-2.445,3.74-2.332,5.63.184,3.084,1.061,6.093,1.275,9.172.1,1.491.167,4.852.141,6.347a27.448,27.448,0,0,0-.284,3.448c6.922,4.925,18.255,1.216,19.671.543-.81-5.189,2.714-14.261,2.351-17.777" fill="#ffea00"/>
        <path id="Trazado_907177" data-name="Trazado 907177" d="M130.538,79.067s-.758-5.377-4.243-5.5-5.83,2.527-5.117,5.485,3.625,4.274,6.04,4.471,4.3-1.412,3.319-4.453" fill="#ffc47d"/>
        <path id="Trazado_907178" data-name="Trazado 907178" d="M123.883,80.862s.665,3.784-.478,5.533c.537.7,2.439,3.054,4.772,2.39s-1.209-3.187-1.209-3.187a20.16,20.16,0,0,1-1.287-3.632c-.1-.989-1.8-1.1-1.8-1.1" fill="#ffc47d"/>
        <path id="Trazado_907179" data-name="Trazado 907179" d="M130.785,75.568a3.705,3.705,0,0,0,.985-2.5,3.947,3.947,0,0,0-7.782-.78,6.157,6.157,0,0,0-3.152,1.485c-1.823,1.711-1.332,4.173-.508,6.25.315.8.889,2.373,1.84,2.677a2.869,2.869,0,0,0,2.474-.566S123,81.9,123.105,80.857s.577-.969,2.117,0,.488-.618-.674-1.947,1.615-2.4,1.615-2.4l.064.025a3.95,3.95,0,0,0,3.28-.036,3.775,3.775,0,0,0,.5-.262l.058-.036a3.856,3.856,0,0,0,.474-.381c.052-.048.1-.1.152-.147a1.346,1.346,0,0,0,.1-.1Z" fill="#ada184"/>
        <path id="Trazado_907180" data-name="Trazado 907180" d="M122.3,193.747c1.058.136,1.526-.165,1.727-.508-.067-.029-.139-.068-.2-.093-2.611-1.021-3.441-4.169-3.441-4.169l-2.875.006s2.635,4.487,4.793,4.764" fill="#ffc47d"/>
        <g id="Grupo_1120075" data-name="Grupo 1120075" opacity="0.5" style="mix-blend-mode: multiply;isolation: isolate">
          <g id="Grupo_1120074" data-name="Grupo 1120074">
            <g id="Grupo_1120073" data-name="Grupo 1120073" clip-path="url(#clip-path-31)">
              <g id="Grupo_1120072" data-name="Grupo 1120072">
                <g id="Grupo_1120071" data-name="Grupo 1120071" clip-path="url(#clip-path-32)">
                  <path id="Trazado_907181" data-name="Trazado 907181" d="M139.543,119.045a37.14,37.14,0,0,1-7.62,20.941c-4.645,5.956-14.972,6.3-20.249,6.054.372,1.411.651,2.226.651,2.226l2.8,1.695,1.15-2.838s.59,1.7,1.178,2.975c7.767,1.968,20.869-1.179,20.869-1.179s3.556-14.756,2.214-24.817a38.66,38.66,0,0,0-.993-5.057" fill="#7390e0"/>
                </g>
              </g>
            </g>
          </g>
        </g>
        <g id="Grupo_1120080" data-name="Grupo 1120080" style="mix-blend-mode: multiply;isolation: isolate">
          <g id="Grupo_1120079" data-name="Grupo 1120079">
            <g id="Grupo_1120078" data-name="Grupo 1120078" clip-path="url(#clip-path-33)">
              <g id="Grupo_1120077" data-name="Grupo 1120077">
                <g id="Grupo_1120076" data-name="Grupo 1120076" clip-path="url(#clip-path-34)">
                  <path id="Trazado_907182" data-name="Trazado 907182" d="M124.351,101.822c-.688-.936-4.773-8.521-4.773-8.521s-3.071-1.789-4.585-1.69c0,.326.008.64.025.926.16,2.686.845,5.316,1.161,7.983,1.542,2.353,4.4,6.163,7.276,7.154a72.75,72.75,0,0,0,10.035,2.393,5.359,5.359,0,0,1-2.08,3.281,24.294,24.294,0,0,0,4.411-1.3,21.312,21.312,0,0,1,.435-6.7c-1.8-.422-11.282-2.676-11.9-3.523" fill="#ffea00"/>
                </g>
              </g>
            </g>
          </g>
        </g>
        <path id="Trazado_907183" data-name="Trazado 907183" d="M157.955,105.737a10.363,10.363,0,0,1-3.311.075c1.652-.222,2.681-1.071,2.248-1.071a18.64,18.64,0,0,1-3.755.158c-1.3-.208-1.21-.485-.787-.827.929-.492,1.65-1.27,1.41-1.3s-.825.32-2.148.579a22.517,22.517,0,0,0-4.246,1.407c-3.153-.538-7.1-1.18-10.139-1.888-1.569-.36-3.118-.759-4.6-1.2-.75-.218-1.457-.463-2.139-.713-.336-.126-.622-.268-.932-.4s-.453-.27-.688-.384c-.049-.051.02-.06.014-.065s.02.024-.007-.014l-.1-.14-.508-.695c-.388-.547-.8-1.172-1.2-1.81-.81-1.279-1.61-2.617-2.394-3.973-.707-1.226-1.411-2.472-2.1-3.723a4.983,4.983,0,0,0-6.805-1.835q-.08.045-.156.093a4.659,4.659,0,0,0-1.128,7.025q1.443,1.693,2.925,3.376c1.1,1.241,2.219,2.475,3.4,3.713.6.62,1.2,1.236,1.9,1.882.354.324.688.641,1.184,1.03l.343.272c.125.1.335.217.5.318a9.9,9.9,0,0,0,1.06.557c.528.174,1.12.4,1.6.5s.964.218,1.419.295c.9.146,1.792.267,2.653.346,1.731.17,3.42.27,5.1.328,3.3.121,7.368.157,10.673.091,0,0,4.787,1.056,7.385.634s3.963-2.644,3.341-2.639" fill="#ffc47d"/>
        <g id="Grupo_1120085" data-name="Grupo 1120085" opacity="0.5" style="mix-blend-mode: multiply;isolation: isolate">
          <g id="Grupo_1120084" data-name="Grupo 1120084">
            <g id="Grupo_1120083" data-name="Grupo 1120083" clip-path="url(#clip-path-35)">
              <g id="Grupo_1120082" data-name="Grupo 1120082">
                <g id="Grupo_1120081" data-name="Grupo 1120081" clip-path="url(#clip-path-36)">
                  <path id="Trazado_907184" data-name="Trazado 907184" d="M118.413,97.1c-2.363-2.818-3-6.961-3.167-8.841a4.647,4.647,0,0,0-1,6.5c.07.1.144.19.222.28q1.443,1.694,2.925,3.376c1.1,1.241,2.219,2.475,3.4,3.713.6.62,1.2,1.236,1.9,1.881.354.325.688.641,1.184,1.03l.343.273c.125.094.335.217.5.318a9.825,9.825,0,0,0,1.061.557c.528.174,1.119.4,1.594.5s.964.218,1.419.294c.906.146,1.792.268,2.653.347,1.73.17,3.421.27,5.1.327l-10.589-2.915a84.765,84.765,0,0,1-7.551-7.636" fill="#ffc47d"/>
                </g>
              </g>
            </g>
          </g>
        </g>
      </g>
    </g>
  </g>
</svg>
