<svg id="img-02.40070940" xmlns="http://www.w3.org/2000/svg" xmlns:xlink="http://www.w3.org/1999/xlink" width="189.8" height="311.4" viewBox="0 0 189.8 311.4">
  <defs>
    <clipPath id="clip-path">
      <rect id="Rectángulo_409667" data-name="Rectángulo 409667" width="156.7" height="116" transform="translate(26.8 2)" fill="none"/>
    </clipPath>
    <clipPath id="clip-path-2">
      <rect id="Rectángulo_409668" data-name="Rectángulo 409668" width="161.9" height="164.3" transform="translate(23.7 127.5)" fill="none"/>
    </clipPath>
    <clipPath id="clip-path-3">
      <rect id="Rectángulo_409669" data-name="Rectángulo 409669" width="150" height="143.2" transform="translate(32.5 141.9)" fill="none"/>
    </clipPath>
    <clipPath id="clip-path-4">
      <rect id="Rectángulo_409671" data-name="Rectángulo 409671" width="145" height="305" transform="translate(0 6.4)" fill="none"/>
    </clipPath>
    <clipPath id="clip-path-5">
      <path id="Trazado_907013" data-name="Trazado 907013" d="M38.5,92.6a3.435,3.435,0,0,1,3.4,2.7L43,99.7l.7,3.1,2.6,10.8,1.9,7.8H8.8l-.2-.7-1.8-7.6L5.3,107,2.5,95.6a2.567,2.567,0,0,1,1.8-3H38.5Z" fill="none"/>
    </clipPath>
    <linearGradient id="linear-gradient" x1="-4.713" y1="14.688" x2="-4.711" y2="14.688" gradientUnits="objectBoundingBox">
      <stop offset="0" stop-color="#414182"/>
      <stop offset="1" stop-color="#7171e3"/>
    </linearGradient>
    <clipPath id="clip-path-6">
      <rect id="Rectángulo_409670" data-name="Rectángulo 409670" width="160.4" height="361.1" transform="translate(2.3 -50.5)" fill="none"/>
    </clipPath>
  </defs>
  <g id="Capa_1">
    <g id="Grupo_1119788">
      <g id="Grupo_1119784">
        <g id="Grupo_1119783">
          <g id="Grupo_1119537">
            <g id="Grupo_1119881" data-name="Grupo 1119881" clip-path="url(#clip-path)">
              <g id="Grupo_1119536">
                <path id="Trazado_906356" d="M183.5,2V118H26.8V2Z" fill="#efe1b7"/>
              </g>
            </g>
          </g>
        </g>
        <rect id="Rectángulo_409590" width="156.7" height="107.4" transform="translate(30.7 8.6)" fill="#fff8e5"/>
        <rect id="Rectángulo_409591" width="156.7" height="8.6" transform="translate(30.7)" fill="#2d3ea5"/>
        <path id="Trazado_906880" d="M176.3,4.4a2,2,0,1,0,2-2h0a2.006,2.006,0,0,0-2,2h0" fill="#a2acf7"/>
        <path id="Trazado_906881" d="M165.6,4.4a2,2,0,1,0,2-2h0a2.006,2.006,0,0,0-2,2h0" fill="#a2acf7"/>
        <path id="Trazado_906882" d="M154.9,4.4a2,2,0,1,0,2-2h0a2.006,2.006,0,0,0-2,2h0" fill="#a2acf7"/>
        <rect id="Rectángulo_409592" width="2.8" height="93.7" transform="translate(177.8 17.1)" fill="#a2acf7"/>
        <rect id="Rectángulo_409593" width="2.8" height="72.1" transform="translate(171 38.7)" fill="#a2acf7"/>
        <rect id="Rectángulo_409594" width="2.8" height="60.9" transform="translate(164.1 49.9)" fill="#a2acf7"/>
        <rect id="Rectángulo_409595" width="2.8" height="71.3" transform="translate(177.8 39.5)" fill="#7279ae"/>
        <rect id="Rectángulo_409596" width="2.8" height="54.9" transform="translate(171 55.9)" fill="#7279ae"/>
        <rect id="Rectángulo_409597" width="2.8" height="46.3" transform="translate(164.1 64.5)" fill="#7279ae"/>
        <rect id="Rectángulo_409598" width="2.8" height="40.3" transform="translate(177.8 70.5)" fill="#2d3ea5"/>
        <rect id="Rectángulo_409599" width="2.8" height="31" transform="translate(171 79.8)" fill="#2d3ea5"/>
        <rect id="Rectángulo_409600" width="2.8" height="26.2" transform="translate(164.1 84.6)" fill="#2d3ea5"/>
        <rect id="Rectángulo_409601" width="2.8" height="49.5" transform="translate(157 61.3)" fill="#a2acf7"/>
        <rect id="Rectángulo_409602" width="2.8" height="38.1" transform="translate(150.1 72.7)" fill="#a2acf7"/>
        <rect id="Rectángulo_409603" width="2.8" height="32.2" transform="translate(143.3 78.6)" fill="#a2acf7"/>
        <rect id="Rectángulo_409604" width="2.8" height="37.7" transform="translate(157 73.1)" fill="#7279ae"/>
        <rect id="Rectángulo_409605" width="2.8" height="29" transform="translate(150.1 81.8)" fill="#7279ae"/>
        <rect id="Rectángulo_409606" width="2.8" height="24.5" transform="translate(143.3 86.3)" fill="#7279ae"/>
        <rect id="Rectángulo_409607" width="2.8" height="21.3" transform="translate(157 89.5)" fill="#2d3ea5"/>
        <rect id="Rectángulo_409608" width="2.8" height="16.4" transform="translate(150.1 94.4)" fill="#2d3ea5"/>
        <rect id="Rectángulo_409609" width="2.8" height="13.9" transform="translate(143.3 96.9)" fill="#2d3ea5"/>
        <rect id="Rectángulo_409610" width="2.8" height="72.1" transform="translate(122.8 38.7)" fill="#a2acf7"/>
        <rect id="Rectángulo_409611" width="2.8" height="55.5" transform="translate(129.6 55.3)" fill="#a2acf7"/>
        <rect id="Rectángulo_409612" width="2.8" height="46.8" transform="translate(136.4 64)" fill="#a2acf7"/>
        <rect id="Rectángulo_409613" width="2.8" height="54.9" transform="translate(122.8 55.9)" fill="#7279ae"/>
        <rect id="Rectángulo_409614" width="2.8" height="42.2" transform="translate(129.6 68.6)" fill="#7279ae"/>
        <rect id="Rectángulo_409615" width="2.8" height="35.6" transform="translate(136.4 75.2)" fill="#7279ae"/>
        <rect id="Rectángulo_409616" width="2.8" height="31" transform="translate(122.8 79.8)" fill="#2d3ea5"/>
        <rect id="Rectángulo_409617" width="2.8" height="23.9" transform="translate(129.6 86.9)" fill="#2d3ea5"/>
        <rect id="Rectángulo_409618" width="2.8" height="20.2" transform="translate(136.4 90.6)" fill="#2d3ea5"/>
        <rect id="Rectángulo_409619" width="2.8" height="50.8" transform="translate(97.7 60)" fill="#a2acf7"/>
        <rect id="Rectángulo_409620" width="2.8" height="39.1" transform="translate(90.8 71.7)" fill="#a2acf7"/>
        <rect id="Rectángulo_409621" width="2.8" height="33" transform="translate(84 77.8)" fill="#a2acf7"/>
        <rect id="Rectángulo_409622" width="2.8" height="38.6" transform="translate(97.7 72.2)" fill="#7279ae"/>
        <rect id="Rectángulo_409623" width="2.8" height="29.7" transform="translate(90.8 81.1)" fill="#7279ae"/>
        <rect id="Rectángulo_409624" width="2.8" height="25.1" transform="translate(84 85.7)" fill="#7279ae"/>
        <rect id="Rectángulo_409625" width="2.8" height="21.9" transform="translate(97.7 88.9)" fill="#2d3ea5"/>
        <rect id="Rectángulo_409626" width="2.8" height="16.8" transform="translate(90.8 94)" fill="#2d3ea5"/>
        <rect id="Rectángulo_409627" width="2.8" height="14.2" transform="translate(84 96.6)" fill="#2d3ea5"/>
        <rect id="Rectángulo_409628" width="2.8" height="26.9" transform="translate(76.8 83.9)" fill="#a2acf7"/>
        <rect id="Rectángulo_409629" width="2.8" height="20.7" transform="translate(70 90.1)" fill="#a2acf7"/>
        <rect id="Rectángulo_409630" width="2.8" height="17.5" transform="translate(63.2 93.4)" fill="#a2acf7"/>
        <rect id="Rectángulo_409631" width="2.8" height="20.4" transform="translate(76.8 90.4)" fill="#7279ae"/>
        <rect id="Rectángulo_409632" width="2.8" height="15.7" transform="translate(70 95.1)" fill="#7279ae"/>
        <rect id="Rectángulo_409633" width="2.8" height="13.3" transform="translate(63.2 97.5)" fill="#7279ae"/>
        <rect id="Rectángulo_409634" width="2.8" height="11.6" transform="translate(76.8 99.2)" fill="#2d3ea5"/>
        <rect id="Rectángulo_409635" width="2.8" height="8.9" transform="translate(70 101.9)" fill="#2d3ea5"/>
        <rect id="Rectángulo_409636" width="2.8" height="7.5" transform="translate(63.2 103.3)" fill="#2d3ea5"/>
        <rect id="Rectángulo_409637" width="2.8" height="39.1" transform="translate(42.6 71.7)" fill="#a2acf7"/>
        <rect id="Rectángulo_409638" width="2.8" height="30.1" transform="translate(49.5 80.7)" fill="#a2acf7"/>
        <rect id="Rectángulo_409639" width="2.8" height="25.4" transform="translate(56.3 85.4)" fill="#a2acf7"/>
        <rect id="Rectángulo_409640" width="2.8" height="29.7" transform="translate(42.6 81.1)" fill="#7279ae"/>
        <rect id="Rectángulo_409641" width="2.8" height="22.9" transform="translate(49.5 87.9)" fill="#7279ae"/>
        <rect id="Rectángulo_409642" width="2.8" height="19.3" transform="translate(56.3 91.5)" fill="#7279ae"/>
        <rect id="Rectángulo_409643" width="2.8" height="16.8" transform="translate(42.6 94)" fill="#2d3ea5"/>
        <rect id="Rectángulo_409644" width="2.8" height="12.9" transform="translate(49.5 97.9)" fill="#2d3ea5"/>
        <rect id="Rectángulo_409645" width="2.8" height="10.9" transform="translate(56.3 99.9)" fill="#2d3ea5"/>
      </g>
      <g id="Grupo_1119786">
        <rect id="Rectángulo_409479" width="161.9" height="8.6" transform="translate(27.9 125)" fill="#2d3ea5"/>
        <path id="Trazado_906361" d="M178.6,129.4a2,2,0,1,0,2-2h0a2.006,2.006,0,0,0-2,2h0" fill="#a2acf7"/>
        <path id="Trazado_906362" d="M167.9,129.4a2,2,0,1,0,2-2,2.006,2.006,0,0,0-2,2h0" fill="#a2acf7"/>
        <path id="Trazado_906363" d="M157.2,129.4a2,2,0,1,0,2-2h0a2.006,2.006,0,0,0-2,2h0" fill="#a2acf7"/>
        <g id="Grupo_1119785">
          <g id="Grupo_1119781">
            <g id="Grupo_1119542">
              <g id="Grupo_1119882" data-name="Grupo 1119882" clip-path="url(#clip-path-2)">
                <g id="Grupo_1119541">
                  <path id="Trazado_906360" d="M185.6,127.5V291.8H23.7V127.5H185.6Z" fill="#efe1b7"/>
                </g>
              </g>
            </g>
          </g>
          <rect id="Rectángulo_409589" width="161.9" height="155.7" transform="translate(27.9 133.6)" fill="#fff8e5"/>
          <g id="Grupo_1119782" opacity="0.3">
            <g id="Grupo_1119545">
              <g id="Grupo_1119883" data-name="Grupo 1119883" clip-path="url(#clip-path-3)">
                <g id="Grupo_1119544">
                  <path id="Trazado_906364" d="M32.5,285.1h150V141.9H32.5Zm149.6-.4H32.9V142.3H182V284.7Z" fill="#2d3ea5"/>
                  <rect id="Rectángulo_409480" width="149.6" height="0.4" transform="translate(32.7 260.9)" fill="#2d3ea5"/>
                  <rect id="Rectángulo_409481" width="149.6" height="0.4" transform="translate(32.7 237.1)" fill="#2d3ea5"/>
                  <rect id="Rectángulo_409482" width="149.6" height="0.4" transform="translate(32.7 213.3)" fill="#2d3ea5"/>
                  <rect id="Rectángulo_409483" width="149.6" height="0.4" transform="translate(32.7 189.5)" fill="#2d3ea5"/>
                  <rect id="Rectángulo_409484" width="149.6" height="0.4" transform="translate(32.7 165.7)" fill="#2d3ea5"/>
                  <rect id="Rectángulo_409485" width="0.4" height="142.8" transform="translate(57.4 142.1)" fill="#2d3ea5"/>
                  <rect id="Rectángulo_409486" width="0.4" height="142.8" transform="translate(82.4 142.1)" fill="#2d3ea5"/>
                  <rect id="Rectángulo_409487" width="0.4" height="142.8" transform="translate(107.3 142.1)" fill="#2d3ea5"/>
                  <rect id="Rectángulo_409488" width="0.4" height="142.8" transform="translate(132.2 142.1)" fill="#2d3ea5"/>
                  <rect id="Rectángulo_409489" width="0.4" height="142.8" transform="translate(157.2 142.1)" fill="#2d3ea5"/>
                </g>
              </g>
            </g>
          </g>
          <path id="Trazado_906872" d="M182.2,285h.2c0-.1-30.3-44.7-30.3-44.7l-12.4,7.5-35-67.9h0l-17.3,5.8-6.1,18.8-15.8-4-4-28.8h0L33,146.8v.2c-.1,0,28.4,24.9,28.4,24.9l4,28.9h0l16,4.1h0c0-.1,6.1-18.9,6.1-18.9l17.1-5.7,35,67.9,12.5-7.6L182.3,285Z" fill="#000979"/>
          <path id="Trazado_906879" d="M102,180.6a2.4,2.4,0,1,0,2.4-2.4h0a2.433,2.433,0,0,0-2.4,2.4h0" fill="#7279ae"/>
          <path id="Trazado_906877" d="M84.6,185.4A2.4,2.4,0,1,0,87,183h0a2.433,2.433,0,0,0-2.4,2.4h0" fill="#7279ae"/>
        </g>
      </g>
      <g id="Grupo_1119886" data-name="Grupo 1119886" clip-path="url(#clip-path-4)">
        <g id="Enmascarar_grupo_1100037">
          <g id="Grupo_1119787">
            <path id="Trazado_906366" d="M121.2,182.2a2.3,2.3,0,1,0,2.3-2.3,2.263,2.263,0,0,0-2.3,2.3h0" fill="#7279ae"/>
            <path id="Trazado_906367" d="M109.1,189.3a2.3,2.3,0,1,0,2.3-2.3,2.263,2.263,0,0,0-2.3,2.3h0" fill="#7279ae"/>
            <path id="Trazado_906368" d="M75.3,124.2a2.3,2.3,0,1,0,2.3-2.3,2.263,2.263,0,0,0-2.3,2.3h0" fill="#7279ae"/>
            <path id="Trazado_906369" d="M58.6,128.8a2.3,2.3,0,1,0,2.3-2.3,2.263,2.263,0,0,0-2.3,2.3h0" fill="#7279ae"/>
            <path id="Trazado_906370" d="M52.6,147.5a2.3,2.3,0,1,0,2.3-2.3,2.263,2.263,0,0,0-2.3,2.3h0" fill="#7279ae"/>
            <path id="Trazado_906371" d="M38.1,143.6a2.3,2.3,0,1,0,2.3-2.3,2.263,2.263,0,0,0-2.3,2.3h0" fill="#7279ae"/>
            <path id="Trazado_906372" d="M33.5,115.5a2.3,2.3,0,1,0,2.3-2.3,2.263,2.263,0,0,0-2.3,2.3h0" fill="#7279ae"/>
            <path id="Trazado_906373" d="M60.9,154.6c2-8.9,3.6-17.5,8.9-25.9,11.1-.4,33.5,1.3,34.4,2.3,2.1,2.4,13.8,18.9,14.2,25.5.9,12.8-.7,25.8-2.7,38.5-2,12.4-5.9,25.7-6.7,38.2-3.9.5-4.9,1-8.8,1.5-5.9-20.2-8.9-41.5-10.4-62.8-.9.1-2.4.3-3.3.4A516.083,516.083,0,0,0,77,236.4a24.4,24.4,0,0,1-8.5.5c-.9-.1-2.6-10.2-2.9-11.5A302.028,302.028,0,0,1,59,185.3a102.1,102.1,0,0,1,1.9-30.7" fill="#3a3a4a"/>
            <path id="Trazado_906374" d="M67.1,227.2l1.8-4.1a47.865,47.865,0,0,1,19.9,21.6c4.4,9.4,5.4,20.9,5.9,32.1.2,4.3.3,8.5.4,12.5a13.815,13.815,0,0,1-5.9,2c-1.2-3.6-2.4-7.1-3.7-10.6a444.9,444.9,0,0,0-18.2-43.3,11.911,11.911,0,0,1-.3-10.1" fill="#3a3a4a"/>
            <path id="Trazado_906375" d="M73.7,235.6a29.215,29.215,0,0,0,2.6-12.7.684.684,0,0,1,.7-.7.858.858,0,0,1,.7.6,29.626,29.626,0,0,1-2.8,13.4.628.628,0,1,1-1.1-.6"/>
            <path id="Trazado_906376" d="M77.9,233.3a.667.667,0,0,1,1.3.3l-1.1,4.9a.638.638,0,0,1-.8.5c-.3,0-.5-.4-.5-.8Z"/>
            <path id="Trazado_906377" d="M87.6,303.1l1.6-11.8,5.9-2,.3.5c-.8,4.7-3.2,10.7-7.8,13.3" fill="#ffccbc"/>
            <path id="Trazado_906378" d="M85.8,307.8c.3-.7.7-1.3,1-2a14.262,14.262,0,0,0,.9-2.7c4.6-2.6,7-8.6,7.8-13.3l2.6,4.3a1.943,1.943,0,0,1,.3,1.3l1.7,9.8-.7.3-2.9-7.7h-.2c-3.5,2.9-.8,8-4.8,10.7a15.2,15.2,0,0,1-4.6,1.8,11.365,11.365,0,0,1-2.5.6c-.2-.7,1-2.3,1.4-3" fill="#bac36a"/>
            <path id="Trazado_906379" d="M89.9,288.9l4-1.8c.5-.2.7.5.2.7l-4,1.8c-.5.2-.7-.5-.2-.7" fill="#465066"/>
            <path id="Trazado_906380" d="M101.4,223.4l3.1-3.3c6.1,7.3,9.9,17.2,10.7,27.6.8,10.5-2.3,21.9-5.8,32.7-1.3,4.2-2.7,8.2-4,12.1a12.6,12.6,0,0,1-6.1-.1c.2-3.8.3-7.6.4-11.4a449.078,449.078,0,0,0-1.6-47.8,13.057,13.057,0,0,1,3.3-9.8" fill="#3a3a4a"/>
            <path id="Trazado_906381" d="M105.3,235.6a29.511,29.511,0,0,0,2.6-12.7.684.684,0,0,1,.7-.7.858.858,0,0,1,.7.6,29.626,29.626,0,0,1-2.8,13.4.628.628,0,1,1-1.1-.6"/>
            <path id="Trazado_906382" d="M109.5,233.3a.638.638,0,0,1,.8-.5c.3,0,.5.4.5.8l-1.1,4.9a.667.667,0,0,1-1.3-.3Z"/>
            <path id="Trazado_906383" d="M93.8,303.1l5.6-10.8h6.1c0,.1.1.8.1.8-2.4,4.2-6.7,9.1-11.8,10" fill="#ffccbc"/>
            <path id="Trazado_906384" d="M90.4,307c.5-.5,1.1-1,1.6-1.6a7.639,7.639,0,0,0,1.7-2.3c5.1-.9,9.4-5.8,11.8-10l.9,5a2.953,2.953,0,0,1-.2,1.3l-1.8,10h-.8v-8.3h-.2c-4.2,1.4-3.5,7.3-8.1,8.4a12.921,12.921,0,0,1-4.8.1,11.53,11.53,0,0,1-2.6-.3c0-.7,1.8-1.9,2.3-2.4" fill="#d4e157"/>
            <path id="Trazado_906385" d="M100.8,290.5h4.1c.5-.1.5.6,0,.7h-4.1c-.5.1-.5-.6,0-.7" fill="#465066"/>
            <path id="Trazado_906386" d="M19.8,121.6c2.7,1.1,5.6,1.7,8.3,2.9,1.3.6.2,2.5-1.1,1.9-2.7-1.3-5.6-1.8-8.3-2.9-1.3-.6-.2-2.5,1.1-1.9" fill="#ffccbc"/>
            <path id="Trazado_906387" d="M75.3,133.3a317.573,317.573,0,0,1-38.8-5.4c.2-2.4,1.4-3,1.7-5.4,12.3-.4,26.9-1.2,39.9-1.5l1.4,7.7a4.118,4.118,0,0,1-3.4,4.6h-.8" fill="#ffccbc"/>
            <path id="Trazado_906388" d="M79.3,130.6a4.209,4.209,0,0,1-4.4,4.2h-.4l-32.2-4.3,1.2-9.5,21.7-.5,14.5-1.7-.6,11.9Z" fill="#393973"/>
            <path id="Trazado_906389" d="M65.4,119.8l2.1-29.7L81,97.4l-1.6,33.3a4.209,4.209,0,0,1-4.4,4.2h-.4L67,133.8,65.5,120Z" fill="#393973"/>
            <path id="Trazado_906390" d="M67.8,119.1l4,2.9c.8.5,0,1.8-.8,1.3l-4-2.9c-.8-.5,0-1.8.8-1.3" fill="#1a1a33"/>
            <path id="Trazado_906391" d="M25.3,125.8a6.089,6.089,0,0,1-2.2-2,2.772,2.772,0,0,1-.2-2.9,4.043,4.043,0,0,1,3-1.7,27,27,0,0,1,9.4-.2c2,.3,4.2,1,5.1,2.7,1.5,2.9-1.3,5.8-4,6.2a16.618,16.618,0,0,1-11.1-2.2" fill="#ffccbc"/>
            <path id="Trazado_906392" d="M47.3,121.4H66a2.112,2.112,0,0,1,2.1,2.1H32.6l-2.1-2.1H47.3Z" fill="#fff"/>
            <path id="Trazado_906393" d="M.5,93.1a3.838,3.838,0,0,1,3-1.5H37.1a3.75,3.75,0,0,1,3.6,2.8l6.6,27H6L0,96.2a3.488,3.488,0,0,1,.6-3" fill="#baadad"/>
            <path id="Trazado_906394" d="M49,121.4H7.8L1.3,94.8a2.556,2.556,0,0,1,1.9-3.1H38.8a3.75,3.75,0,0,1,3.6,2.8l6.6,27Z" fill="#4e4e50"/>
            <g id="Grupo_1119550">
              <g id="Grupo_1119884" data-name="Grupo 1119884" clip-path="url(#clip-path-5)">
                <g id="Grupo_1119549">
                  <rect id="Rectángulo_409492" width="47.4" height="31.1" transform="translate(0.668 92.718) rotate(-2.8)" fill="url(#linear-gradient)"/>
                </g>
              </g>
            </g>
            <g id="Grupo_1119885" data-name="Grupo 1119885" clip-path="url(#clip-path-6)">
              <g id="Grupo_1119551">
                <path id="Trazado_906396" d="M6,121.4a2.112,2.112,0,0,0,2.1,2.1H32.5a2.112,2.112,0,0,0-2.1-2.1Z" fill="#baadad"/>
                <path id="Trazado_906397" d="M46.6,118.9l-5-6.3-1.7,2.9L29.7,102.1l-2.5,5.4-5.6-2.8-2.9,3.7-7-9.7-3.2,2L4.8,98" fill="none" stroke="#fff" stroke-linecap="round" stroke-miterlimit="10" stroke-width="1"/>
                <path id="Trazado_906398" d="M24.3,120.7a4.735,4.735,0,0,0,3.6,3.6c1.4.3.8,2.5-.6,2.2a6.931,6.931,0,0,1-5.2-5.1c-.3-1.4,1.8-2,2.1-.6" fill="#ffccbc"/>
                <path id="Trazado_906399" d="M57.7,166.6c-.7-3.5,10.5-45,13.9-57.7-2.5-6.3-7.4-15.5-2.8-21.5C77,76.9,82.6,69.7,94.7,69.7s9.7-.2,13.4,2.1A12.694,12.694,0,0,1,113.9,84c-.7,5.1-4.4,8.9-6.4,13.5-2.4,5.2-7.4,19-4.8,24,4.9,9.4,17.1,30.9,16.7,34.2-17.6,12.6-42.1,17-61.7,11" fill="#bac36a"/>
                <path id="Trazado_906400" d="M84.4,79.4c-.4,4.1,8.5-.3,9.2-.7a24.046,24.046,0,0,0,5.9-4.6.636.636,0,0,1,.9.9h0a25.786,25.786,0,0,1-11.5,7c-2.4.6-6.2.9-5.9-2.6,0-.8,1.4-.9,1.3,0" fill="#766d78"/>
                <path id="Trazado_906401" d="M61.9,164.8c18,4.5,37.8.4,53.4-11.1.7-.5,1.3.6.6,1.1-15.8,11.7-36.1,15.9-54.4,11.3-.8-.2-.4-1.5.4-1.3" fill="#766d78"/>
                <path id="Trazado_906402" d="M101.5,69.7c3.4,1.2,9.6,0,12.1,2.6h0a16.324,16.324,0,0,1,.3,21.7s-9.4,17.9-11.3,24.3c6.9,13.3,13.1,26.5,20,39.8-9.6,3.9-18.9,8.2-28.4,12.1-4-16.8-6.6-34.1-5.8-51.6s4.1-33.4,13.1-48.9" fill="#2d3ea5"/>
                <path id="Trazado_906403" d="M96.1,138.7a45.6,45.6,0,0,1,11.3-3.8.875.875,0,0,1,.9.6.937.937,0,0,1-.5.9,45.213,45.213,0,0,0-10.9,3.7c-.9.4-1.6-.9-.7-1.3" fill="#1a1a33"/>
                <path id="Trazado_906404" d="M96.7,91.4c2.6-2,8.2-5.2,8.6-8.7.3-3.3-.5-7.1-.7-10.4,0-1,1.3-1,1.4,0,.2,2.8.4,5.7.6,8.5,0,1.4.4,3-.3,4.4a8.978,8.978,0,0,1-2.8,2.7c-2,1.6-4.1,3.2-6.1,4.7-.8.6-1.4-.7-.7-1.3" fill="#1a1a33"/>
                <path id="Trazado_906405" d="M94.8,109.1c1.3-2.8,3.1-5.4,4.3-8.2.7-1.7.8-1.9,0-3.7a39.919,39.919,0,0,0-2.7-4.4c-.5-.8.8-1.6,1.3-.8l4,6.6a1.1,1.1,0,0,1,0,.8,88.55,88.55,0,0,0-11.2,26.7.728.728,0,1,1-1.4-.4,86.7,86.7,0,0,1,5.6-16.5" fill="#1a1a33"/>
                <path id="Trazado_906406" d="M87.1,70.9C79,76.7,67.3,137.1,68.8,171.1a29.455,29.455,0,0,1-13.6-4c4-16.2,8.3-32.1,13.1-48a25.235,25.235,0,0,0-.5-16.5c-.3-.9-.7-1.8-.9-2.7a18.569,18.569,0,0,1-.1-10.7,26.544,26.544,0,0,1,4.9-8c3.7-4.3,9.7-9.8,15.4-10.4" fill="#2d3ea5"/>
                <path id="Trazado_906407" d="M74.1,82.4c1.2-3.2,4.6-6,6.7-8.5.6-.7,1.6.3,1,1.1-1.5,1.8-3.1,3.6-4.6,5.5-1.2,1.5-2,2.6-1.7,4.5a6.919,6.919,0,0,0,2.1,3.6c.6.7-.4,1.8-1,1.1-1.7-1.9-3.5-4.3-2.4-7.2" fill="#1a1a33"/>
                <path id="Trazado_906408" d="M76.7,88.5a.707.707,0,0,1,1,1c-2.4,2.3-4.2,4.4-4.5,7.9-.2,2.5,0,5,0,7.4v15.6a.7.7,0,0,1-1.4,0V100.5c0-5.4,1-8.4,5-12.2" fill="#1a1a33"/>
                <path id="Trazado_906409" d="M73.8,110.9a34.916,34.916,0,0,0-13.1-3.1c-2,2.2-5,5.3-3.7,7.4,2.5,4.3,10.1,3.3,14.6,2.5Z" fill="#ffccbc"/>
                <path id="Trazado_906410" d="M51.5,106.5a33.825,33.825,0,0,1,11,1.8c1.6.6-.3,3.3-1.9,2.8-3.1-1.1-4.9-3.1-8.2-3.1-1.7,0-2.6-1.5-.9-1.5" fill="#ffccbc"/>
                <path id="Trazado_906411" d="M58.9,109.9a9.185,9.185,0,0,0-2.8-.5,4.188,4.188,0,0,0-2.7.9,5.823,5.823,0,0,0-1.5,3.5.762.762,0,0,0,.8,0,1.344,1.344,0,0,0,.6-.7c.3-.5.7-1,1-1.5,1.1.2,2.2.2,3.3.4a2.438,2.438,0,0,0,1.2,0c.6-.2.4-1.4,0-2" fill="#ffccbc"/>
                <path id="Trazado_906412" d="M59.3,112.1a9.185,9.185,0,0,0-2.8-.5,4.188,4.188,0,0,0-2.7.9,5.823,5.823,0,0,0-1.5,3.5.762.762,0,0,0,.8,0,1.344,1.344,0,0,0,.6-.7c.3-.5.7-1,1-1.5,1.1.2,2.2.2,3.3.4a2.438,2.438,0,0,0,1.2,0c.6-.2.4-1.4,0-2" fill="#ffccbc"/>
                <path id="Trazado_906413" d="M60.1,113.9a9.185,9.185,0,0,0-2.8-.5,4.188,4.188,0,0,0-2.7.9,5.823,5.823,0,0,0-1.5,3.5.762.762,0,0,0,.8,0,1.344,1.344,0,0,0,.6-.7c.3-.5.7-1,1-1.5,1.1.2,2.2.2,3.3.4a2.438,2.438,0,0,0,1.2,0c.6-.2.4-1.4,0-2" fill="#ffccbc"/>
                <path id="Trazado_906414" d="M73.8,110.9l23,9.1-4.1,10.1L71.5,117.6l2.2-6.8Z" fill="#ffccbc"/>
                <path id="Trazado_906415" d="M82.7,113.4l-3.8,9.8,16.7,9.9a6.091,6.091,0,0,0,8.4-2.2c.2-.4.4-.9.6-1.3l13.2-43.5-16.5,5.5-5.4,25.5-13.2-3.8Z" fill="#2d3ea5"/>
                <path id="Trazado_906416" d="M83.3,113.6a68.878,68.878,0,0,0,11.9,2.9c1.8-8.2,3.6-16.5,5.4-24.7.2-.7,1.2-.4,1.1.3l-5.6,25.2c0,.3-.4.5-.7.4a68.9,68.9,0,0,1-12.5-3,.571.571,0,0,1,.3-1.1" fill="#1a1a33"/>
                <path id="Trazado_906417" d="M79.5,123.2a59.9,59.9,0,0,1,12.9,7.6c2.8,2.1,6.9,4,9.8.9,1.9-2,2.5-5,3.3-7.5,3.6-11.5,6.5-23.3,10.2-34.8a.571.571,0,0,1,1.1.3l-5.9,21.2c-1.9,6.1-3.4,12.8-6,18.6-1.8,4.1-5.5,6-9.8,4.1-2.7-1.2-4.8-3.5-7.3-5.1a59.162,59.162,0,0,0-8.7-4.4c-.7-.3,0-1.3.6-1" fill="#1a1a33"/>
                <path id="Trazado_906418" d="M83.5,125.6a91.745,91.745,0,0,1,2.7-10.3.571.571,0,0,1,1.1.3c-1,3.4-1.9,6.8-2.7,10.3-.2.7-1.2.4-1.1-.3" fill="#1a1a33"/>
                <path id="Trazado_906419" d="M97.3,119.6c.6,1.4,1.1,2.9,1.6,4.4a.67.67,0,0,1-.4.7c-.3,0-.6,0-.7-.4a32.935,32.935,0,0,0-1.6-4.4c-.3-.7.8-1,1.1-.3" fill="#1a1a33"/>
                <path id="Trazado_906420" d="M98.9,119.1l1.3,2c.4.6-.6,1.2-1,.6l-1.3-2c-.4-.6.6-1.2,1-.6" fill="#1a1a33"/>
                <path id="Trazado_906421" d="M47.4,124.8c.1-.7,1.2-.4,1.1.3a25.788,25.788,0,0,0-.4,3.9.5.5,0,0,1-.6.5.472.472,0,0,1-.5-.5,19.922,19.922,0,0,1,.4-4.2" fill="#1a1a33"/>
                <path id="Trazado_906422" d="M105,20.1a25.167,25.167,0,0,1,11.4,11.4c2.9,5.9,3.2,12.5.3,18s-9,9.6-16.3,10.5-15.4-1.8-20-6.9A21.1,21.1,0,0,1,75.2,40a20.469,20.469,0,0,1,2.6-12.6c4.9-8,16.8-12.3,27.2-7.2" fill="#bf360c"/>
                <path id="Trazado_906423" d="M119.2,14.1a13.261,13.261,0,0,1,5.6,7.9,15.287,15.287,0,0,1-10.7,18.8,9.256,9.256,0,0,1-2.3.4c-4.5.5-9.2-1.4-11.4-5a14.093,14.093,0,0,1-1.7-9,17.788,17.788,0,0,1,3-8.6c3.9-5.4,11.6-8.2,17.4-4.6" fill="#bf360c"/>
                <path id="Trazado_906424" d="M85.9,79.5a1.95,1.95,0,0,0,1.5,0,32.348,32.348,0,0,0,12.4-7.2A1.607,1.607,0,0,0,100,70h0c-3.8-3.6-2-10.6-1.2-15.9l-12.1,4a13.1,13.1,0,0,1,.6,2.7,37.468,37.468,0,0,1,0,8.2c-.3,3.7-1,6.9-1.4,7.3-.9.9-1.4,2.6,0,3.2" fill="#ffccbc"/>
                <path id="Trazado_906425" d="M87.2,69.1c.2,0,.3-.2.4-.3a14.456,14.456,0,0,0,6.8-10.3h0l-7.3,2.3a37.468,37.468,0,0,1,0,8.2" fill="#ffab91"/>
                <path id="Trazado_906426" d="M80.1,34.3c-3.7,8-7.6,26.4,3.4,29.8,3.6,1.1,7.7-.5,10.6-3.1s4.9-6.1,6.8-9.5a16.321,16.321,0,0,0,4.4-.3,4.23,4.23,0,0,0,2.9-2.9,2.373,2.373,0,0,0-1.7-2.8h-.4C96.9,46,89.8,36,85.8,28c0,0-3.9,3.5-4.2,3.9A21.285,21.285,0,0,0,80,34.4" fill="#ffccbc"/>
                <path id="Trazado_906427" d="M88.6,36.5a5.816,5.816,0,0,1,5.8.8c.7.5-.3,1.5-.9,1a4.541,4.541,0,0,0-4.5-.5c-.8.3-1.1-.9-.3-1.2" fill="#bf360c"/>
                <path id="Trazado_906428" d="M78.2,36.5a4.225,4.225,0,0,1,5.1-.5c.7.5,0,1.6-.7,1.2a2.856,2.856,0,0,0-3.5.2c-.6.6-1.6-.3-.9-.9" fill="#bf360c"/>
                <path id="Trazado_906429" d="M89.1,41.7a.638.638,0,0,1,.8-.5c.3,0,.5.4.5.8l-.6,2.5a.638.638,0,0,1-.8.5c-.3,0-.5-.4-.5-.8l.6-2.5" fill="#212121"/>
                <path id="Trazado_906430" d="M79,40.6a.638.638,0,0,1,.8-.5c.3,0,.5.4.5.8l-.6,2.5a.638.638,0,0,1-.8.5c-.3,0-.5-.4-.5-.8l.6-2.5" fill="#212121"/>
                <path id="Trazado_906431" d="M102.3,48a3.118,3.118,0,0,1,4.3-1.1c.7.4,0,1.6-.7,1.2a1.808,1.808,0,0,0-2.5.6c-.5.7-1.6,0-1.1-.6" fill="#ffab91"/>
                <path id="Trazado_906432" d="M83.9,56.5a6.655,6.655,0,0,0,5-2.2.5.5,0,1,1,.7.7,7.12,7.12,0,0,1-5.8,2.5.56.56,0,0,1-.5-.6.536.536,0,0,1,.5-.5" fill="#212121"/>
                <path id="Trazado_906433" d="M79.6,48.5a8.855,8.855,0,0,0,2.4-3c.2-.4.9-.2.7.3A8.518,8.518,0,0,1,81,48.3c-.7.7-1.2,1.1-.8,2.1a5.175,5.175,0,0,0,1.6,1.7c.4.3-.1.9-.5.6-.8-.7-2.5-2.1-2.3-3.3,0-.4.4-.7.7-.9" fill="#ffab91"/>
              </g>
            </g>
          </g>
        </g>
      </g>
    </g>
  </g>
</svg>
